<mxfile host="app.diagrams.net" agent="Mozilla/5.0 (Windows NT 10.0; Win64; x64; rv:134.0) Gecko/20100101 Firefox/134.0" version="26.2.13">
  <diagram name="페이지-1" id="e24fQDzHjB0GHZQU644q">
    <mxGraphModel dx="1044" dy="542" grid="1" gridSize="10" guides="1" tooltips="1" connect="1" arrows="1" fold="1" page="1" pageScale="1" pageWidth="827" pageHeight="1169" math="0" shadow="0">
      <root>
        <mxCell id="0" />
        <mxCell id="1" parent="0" />
        <mxCell id="qj45M-iO8YI4KxqO611d-13" style="edgeStyle=orthogonalEdgeStyle;rounded=0;orthogonalLoop=1;jettySize=auto;html=1;flowAnimation=1;" edge="1" parent="1" source="qj45M-iO8YI4KxqO611d-3" target="qj45M-iO8YI4KxqO611d-11">
          <mxGeometry relative="1" as="geometry" />
        </mxCell>
        <mxCell id="qj45M-iO8YI4KxqO611d-3" value="" style="shape=image;verticalLabelPosition=bottom;labelBackgroundColor=default;verticalAlign=top;aspect=fixed;imageAspect=0;image=data:image/png,iVBORw0KGgoAAAANSUhEUgAAAEMAAABDCAYAAADHyrhzAAALM0lEQVR4Xu1bB1RUVxr+6IKgIlgAC6KiYsXeyCq2rJqsXRNjb1GjWY+Kiln7Wog1lpi4im09lrUkGgsqNiwrKNiw94Zib4gI2ftdd8jIzDBvZt4g5vAfh3Ocee++e7/33798/39tfheCHJEI2OSA8Ycm5IChtStywMgBQ7+RzBLNeP0mBQ+evcCTF0l49ioJL5KS8fRlEl4lv0HK21Skpv0OO1sbONjbwcXJEXlzO8PV2Ql5XJyRz9UZnnlckcvRwepmXnUwnrx4hSsJD3Dq6m3EXr6JC7fu497jZ7j/5Dkei99evk5WvKjcuZzg7uqCAvlcUdg9L/yLFERgyaKoWMIHJQp7yt/UFFXAuHH/ESLjziPieDziBABnbySoOUe9Y5UtWhiBpYqiadUABFcpg2IF81v8TLPBeJuahu0xZ7By93+xK/YsHj57afFkzB3AI09uNA4sh68a1cKn1cvD3s7WrKHMAmPToTjM2rAb+09dNOuh1rwpqEIpDGnTGK3rVTH5MSaBkSD2fsii9VghtEENsbGxga34iH9gHJwm/qgVEFNLwnq3gVf+vIqnqhgM2oFOkxfhpDCMSsXR3h7eHnlR2qcgihfykBMrkNcVVGs351zSczg62EtPQo/yJuWt9DDPk17LbZf49AXuPnqK6/ce4uLt+7jz8CnevH2r9PHS0K4J7YNyxQorukcRGLcePEajEbOFZ7hndFAatboBJVHDvzhqlPGFtwCArpJaYInQS90RwESfv4boC9dxKP6yMNa3jGoSX0Rk2BAU8XQ3+nijYFBtv5iyGGv2xRgczM/LE+2CqqJ13UBU8vORb9zaQg2i+95wMBbrD8Ti8t1Eg49s/0k1rA7tLbdkZmIUjOgL11Br8DS9b6CQex4Ma9cE3ZvUgadQ/w8lD8R2WrbrML5ft1PGNPrkyJwRqFW2hGVgjF+5BeNWbNEZhAMvGdoVAcW8PhQGOs+lXes5cxmOnL2q89vYr1piXJeWloHRY8YyLI04/N4gzk4OOLlwDEp5F8g2QGgmwu1Sqd9EaYi1pZvQ3qXDuqkPBoOaHwZ0RP+Wf8l2YCz8bT8GzV8NBoXa0rVxbSwb3t0yMHrOWI7wiEM6g9jZ2kp7MbJjM5FMqZsjmIMwvc20tRGY/p8IHSA4niqaYQgMzYTpw/s2D0L7oGrw8cxnzjosuoexx7r9x/DT1v2Z5kRZAoZmJfQsTaqWQ7NqAQiqWFrGF0zJ1Ram/Iw3DohUIOJYvEgOzxr0IKrbDGOaoW+xjC4Z/VX2K4IyRQqBGaZvYQ8UzOcGJxFx8sNtZkhS09JENJqK1ykpSBSp/9WEhzh/K0F87uHElVs4eeW2jFJNkSzVDGMTowciSCRqGI6TuOF3DNnTw3ERaiclp0gC6NHzVyIcfy4Xze8sFauBwUiOSVV2FX3zsxoYZJmGt2+C9VGx2B17Lttg0iiwLNrWDxQeZSeu3H2gfpyhz2YQjHOLx8HBzg5RZy5jgwAlMu6c3oxWLS0yNE4lYZuCq5SV/AW5DGa/ZXuN1clVrKYZviIdPzp3pEjH3dLR596Ov34XB05fEuHwFZly0/CZaugyUzPanBLCEDMTZToQVKE0yvt6SVukEeYptb6dmnWaoQ+MjIsgA34z8TFuP3wsQbkqSGLGBCSG3xnFN4KbSBUBUqokdphQ2gtNcxTu2FlkvVwgvQ/5EGoiQfDxcEfRAu6SOTck2RIMY4aE4XKycJ1U6zThSm2Fq6VXcXJwMJvD5DM/SjCMgWXu7zlgaCGXA4YWGAzUag6aimuCN9WWLoIgXh7SI1OFM8p0GXKt0XNHyUgyu8mzV69RY9AUHb62X4sgLBzcWX0wSPGd/mkMmJxlRxmxeAPCRDqvLRFTvpWJZGZilmZwwN5/rY95AzvJpCu7CVmuSau2YuvR0yIHyiVJqC8a1jA6TbPB4Mgs6U3o9hnqlPMz+qAPcQGL3Ka4aovA4AKZdTIUJq3WoLJ/lpQJrAWsxWBoT4y8BZMlVsXJmvsLLsNYrcJaCzNnXFXB0J4AeydI6JT2LogKvt4oKZh0b498cg9LLkM0n9DekFxm9MkolMwYezI+lFgNDEML4rZyc3GS2+kdGHZSe8iPEAxmnpN7tJIlyawWs8AgQ0XajsmYNYT2J1zUOEzdYkwM10cdl61Rf6tTWW5TU8QsMJhChw/thq3Rp7Eq8qhOtGfKBPRdyzgmdsFoRcVizf3xN+6ixXfz0ufCjHfTuP4meTqzwGAKf2bRWKnqj56/lC1M9Ol7TpyXaTsJXUuEFfPjC0Lf40uMjdd39kos2hb13mXUjo1jv1bcAWA2GBnJHc6C2+bYxeuysY0V8lNX78g3Rf6CHX9KZVqvNgjp0FTp5fK6JiPnyHYqbalWuhiOzBmpmBJQFYyMsydnwUrXjcRHUmNYIWdWyfxBw3qnCHKHmiT6dyRp07ByGXRqUN0kIDIDI2ZeqOKxrAqG4lkouJDeJnzHIal1ZL26NKotmTAyZws278MPmyJla6W20E33bV4fg1sFg1ubL2HFriM4ezMB5URM1LNZPVmu0MhHAQY1Z8jCdZj7y570ibOs+WXDmlgrSovckpkJacMeTevgl8MnxDa+kX4p85Vlw7qnV/4+CjDOiTcZ0Ge80ZYlBQqmc8m+6UPxiSiHUj4KMGJEDxc5CmvIr+MH4LPalZSBoa9ZhWp3fH5olrUi0Es1GTVbb0eOJQAxKIuaOSzdhRvVjF4zl2OJMFzawlCZPVJMzLJKLt1JxOAFa7BNBHqGhOrO9giG+ewpYexjSBj2z+nfUbZcKzaghnq62N4YLnq6TA15LQGPHmXamh0IDd+kMwwXt33y4HQKgUa3/aSfsfFgnM61w9s3xcRun+sQU0Y1g81idYeE6TVeLPCM6NAMXUQuoXaHvyHQNh85ic/HLtD5ee3oPmCLo7awf+PT0XN15r5yRE90Dq6pM4ZRMPg2OgiEWWQ2JNSODmIiJHnKF/e2KhXIN91mwkKdqTAPYfitLXtPXkBwyCwdMNjoxtprRjEKBm+4Lo5QBIfM1KlfZhyMmWx10RlcN8BPdAj7guGwl9Ae7VqoJduE987/dS++EQ1sGaVlrYrYPGHge1/rM/68gFvkuy+bmwcG72Jg02nyv8DsUKnw9BBro/4+hUTveP7/9467Ib+biyR4XHI5ykq+o4Md/ISHyqxRjnXaUUs2YtWeo3ob2DgnbhM26JIXYUfz4u0H9U6V1ADd6fS+7d5r31SkGZoR2UM+7Of1mbZOKwWK11GTbEV9lZMjaN/3aYtWdXWPRrBzp/WEH7EjJt6U4Y1eS83dNfXv6S/BJDA0o7O7judNDovWAzWFRjjux+90ThXxdFPggH+q+aj0sbZMHIgWNSvK/5sFBm9MFschfjt6Sp5EIp/BA3hqiHZEqBnv9LU7qNhvghrD64yhXVwyGwztUdkytFO0IO4UZ9TYjccAyVwhw1VFHMrTFsYMXcOWSnuhEVbz2tQLBF0tt29mkt8tt6QFtkWfkX0iGmHdh+BrMldVwNCeCAu/BIeHdGIv3ZQdPPeevDu9SG6DGmVI/tG5BcaLZnd9Z1NYEJq9MRJRojMooLiXrJKxd53AzxA9XP8W9GPGLiEukjYoRARZBJhGmO3UPLNSVdiLoW0bC2P+R71YdTD0LZQL4akigkFOgR/NuVaePuLiucAGlfzNVShxOGiW3K7awlD7+PzRisfMEjAUz8aCC7OE9rNgfll6a9ewcJ2DhDzWuXXSN+oRwlm6Igsexhyq5Zh56edraS82jPlannNVKn+abcIFMx5ZvTdGEszMk5hZmyJ/KjBMWbi+a/8H5gslkgS09fMAAAAASUVORK5CYII=;" vertex="1" parent="1">
          <mxGeometry x="330" y="280" width="67" height="67" as="geometry" />
        </mxCell>
        <mxCell id="qj45M-iO8YI4KxqO611d-8" style="edgeStyle=orthogonalEdgeStyle;rounded=0;orthogonalLoop=1;jettySize=auto;html=1;exitX=1;exitY=0.5;exitDx=0;exitDy=0;entryX=0;entryY=0.5;entryDx=0;entryDy=0;flowAnimation=1;" edge="1" parent="1" source="qj45M-iO8YI4KxqO611d-5" target="qj45M-iO8YI4KxqO611d-6">
          <mxGeometry relative="1" as="geometry" />
        </mxCell>
        <mxCell id="qj45M-iO8YI4KxqO611d-10" style="edgeStyle=orthogonalEdgeStyle;rounded=0;orthogonalLoop=1;jettySize=auto;html=1;entryX=0;entryY=0.5;entryDx=0;entryDy=0;flowAnimation=1;" edge="1" parent="1" source="qj45M-iO8YI4KxqO611d-5" target="qj45M-iO8YI4KxqO611d-3">
          <mxGeometry relative="1" as="geometry" />
        </mxCell>
        <mxCell id="qj45M-iO8YI4KxqO611d-5" value="" style="shape=image;verticalLabelPosition=bottom;labelBackgroundColor=default;verticalAlign=top;aspect=fixed;imageAspect=0;image=data:image/png,iVBORw0KGgoAAAANSUhEUgAAAEQAAABECAYAAAA4E5OyAAALRUlEQVR4Xu1bd1gU1xY/iL1EMWjsvYFiLKAitiiCseXZjYq9oFiCIIg+BIwFKYpAiGJFjd2E2APW2FB5oogNRY0ae4m9+9797fdmnJmd3Z3ZXVz14/yz38zee+69vzn33NOu1X8ZUQ7xCFjlACKWhhxAJLsjBxBDgGw8lE5r9qbSjfsPVWuWPLmtqVntqjSkXTMq82VR1f0/hg68hLxjunVc3BqK3bjH5HlVLFmc1gUOJ6calUzm9aEZ8ICs2n2U+oQuMtv4jWpWot3h46lgvrxm4/khGPGAtJ04l3aknTHrmEkzx1HbBnZm5ZndzHhAag4Josxrt/jxurjUo6+rlFM1Prbb3YdP+D5LfAbQQDdnVTws3VgnIBumjKCuLvVVza/2sBA6feXG5wFILSYh5wQSstR3AA1oq+7rmoOHqi+QDY15CTHHYszBIxvWqIqlRQC5//gppV24qniiZW2LUa3ypRS3N6WhRQBJ+s9pcp8UrXjexQoXZPqsHoUO6UIlihZR3M+YhhYBZGfaWXKdGKV6vm4N7WljyCjKlye36r5KO1gEkORjZ8gtYK7SOYrarZk8jHq2aGhUXyWdLALInyfPU5eQeUrmR09fvKSXr9/wbT07tKCfx/ZR1NeYRhYB5M3bd/T4+QtF8/WKXUVwKziCoQeDL7vIIoCoWczgyGW0JOkg32WQW1Na7NNfDQtVbXUCkjBhIPV3baKKWXbYIQMjEigh+dCHB0Tqy6wKGEq9WzmqAsR+WDCduXKT72MOX8ZigEgXY1ehFJWyURfkOXz2Ej17+YoHZJnfIPJo01gVqNLGSgGBTuo3azE9fvZS0XgIYPVq6UidmtQVtee3TO8ZCzWRMnORda5cdDDKjxAXMYWUAnLv0VMq2dOXEOhSQ2O++4aiRvakXFZWmm48IPszLtA3frMJJ4A5CNtt5cQhZPX/gYzlqRQQuAPVBgbSgyfPVA+1etJQjbSIAMEDlNekJYl0/Z76eCo3CwDQqYkDxY/rR1/ZfKF6csZuGUiIbQ8fo8ZDEAvBLC1A8OLK7fu09WgG3XrwSMT8eNY1Sjx4nH9nW7Qwje7cStQmj7U1ObEtYs4omVIJef7yNcX8vpuev3qvw3ShI11LzXJf0dlFIfKA6GKyft8x6jEtnv+7dsUylBE/xagvoqaTUkDU8JSuxShAYBzBSOII7viZhcFq5mFU2+wARN9aFCeqLAXI8KgVtGDbfh5Mc1iqFgfk4o27dOnmXaMkJGxdEiF+wpE5fBmLA4KTa+bq7UYBIu00vpsrRQ7vbhIviwMStGwTTf1li0mL4Dr/GelLzetUM4mXxQEJTNhI01ZuNWkR6OzTrS1FDO9mMh+LAzJr7R8UtjZJayFv372jh0+fi94XLVSAYPYLCSfaYPemLInuYjIYYGBxQF68es0Mptdaizn/921qPDZU9P5IzESqVqYk/w4eRuEC+Sm3tRgkU5CxOCC6Jp91447G/xDSxYRpVLmUrSnrNdj3owXk7NWbZDc0WLQAmNCwHLOTliYdokGRCfwQQiPTooaZpQBZufsI9Q1dzAPy0ZjupgBy7MIV8o3fYJQgoToKY3NkX6E0nVoQpHn8ZCXkj9TT1G6y8uyfPuQQu0HI9JMGxNjsnxSY/Hnz0K4wb3K2q/JpA7KNxWza/zvWqC3DdUISPWJYd1Ew/ZPdMnAWl+1IkQVEWskkVw2FaF6HRg5UvoSNiMcnC4g+0ZBWMqmphvosATElYaYYEIjngPCl/IdB3ub0ArFRpXZDw3SvMVgchjy/5EdmupdQy0rUHsae8FhVkx9SDMii7Qdo6Jzl/MDVy5akzMVTTZq4nB1yjlmqNUy0VKsPCqQL1+/wc0MuGJE2JWQQEHzF+K37aMP+NFHUK2/u3NS6Xk3ycG3MtLQTn+hRMug/LHeykAEMi1FaWtWgWgXq09qJhri7ECqHlBI8ZyTaEpJTaM+JTHr15n0JRZXSttStWQMa3r65QenTCwikAtGu2/881juvzs51KWZUb6rASroN0d70TBr902rKuHxdb9M6lcpQjFdvalW3hiGW9BdLnYyNW02o09dHJYsVoRmD/qU3jKATkNA12ylgcaLByXANHCqXpc1TvfSCgsqh7j/Op0fPlNWGIDby6xRPjSTqIoDRfnKMqD7W0KTDhnalCT3cZJvJArL58EnqHBRH0stWyH9CjF+/eStb8OLuaE+/B8vXgF2+dY9cvMNks4Lc1sBWkhKMp4Nz/GSBRmUR5ikMQnP9i7AYCm5ngKc034t1bGIfr32jOlrjaQGC7L2LdzgdzxKXTaKuy7NjC6pXtbwmyrUpJZ3CWUT86p0HIqbLWca/n0zG3zP6F5q/ZZ+oLcxl765tqIVDdU0OGNspfF0yHc28LGo3smNLihvzvdbkl+88TP3Dloje4yaGL/v6HRs7ECQM6/iJlZxDBwoJumrfbF+tywlagGw9kkEdAsUmMcQLYiYllHG7B0TTtbvvQYF4I08qDAMiV+wwYiohIc2Ra307+i3Ik0XD8onYIlndldWf7WHgcPTlF4Xo5PwpVLr4+/IMKFFX/yhRu3K2NpqxYRJIadzPayk6cZfo9dZpo+lbJ7GUaAHiE7+eZm/YwXcE89TYSTqveSCfOpbds+GoeJFCdDQmgKDZOZKmDnFlZG+EDznWqCi7j4+cu0ytJkQS8rU8j8AR7KR4X3uPaJvT6JmibH8sU8Jeknwz1x/Few29ZojK1+WC1lqAYE9iO3BkKA8C3QBTWVgoc2DOBGpqX5XngQCz/6Jf+ecmdpXpUJS/LBjcS8RaAQxH4cO6kW/3tvwzyjea+0Twz4Xy59OkVqW+iXAQ73nrKOq3nfyr75y/psTgkaJ5aAGCglq41hwFe3SkoH4ddU4eZQjVmCEkVIi4OCQ8LkNWbKbg5Zt5Hm3q16IdoT/oBaS13xzafeIc32Zq/04U2LcD/7zr+Dlq4z+Hf7Zhyj6LxWPxq4uk+SFhGQTXRwsQ3KoSlkHiigicI12EmlNMHnsaBM2eMtefoLQ4gvc5htkeHCGInBY3WaP05Ah6pMGo6QTp4whKFcqVo9TMv8j5h1l8gQ+i8nvCfciF3fnTRaiNFZZ09G3diFb4D9YvIRApiBZHCKDga+oaCHaFUIPDDznCdIjwSx08nUXNx0eIjj8knLCH5ShyQ7IoPIhjcj/bhlwQB32goJ3GzCTkjTmCjlnPdI0cHTiVpSknR0qEoyjPnjSuS2v9gKCK0HH0DJFOwCIXentQS4HViK84Y9U2ilifLGIoV2kMM7rRmFA6cfEa3xZ2QvSoXpojmsu5oJwLTqT3vLUi4w1H/eFof4K7ICS5o9yvpxsF9GonMvux9VBFIPRvoHNSYwO0blnIGmZyA2HSCKjg2hksze2pp0QeJSaKRaawiSNoK6UVzGbwkNgMaNOM5Wm5XO0+piihLLX6MrGGeEsJ5j+2zZPn4spDpBVgJBYtWIDSL/1Nmw+na9XO6bJtZAFBORX0gvC6mM6NKfgDvoe0zIr7G1ZvX1Y2KdRPSnhCgpaxImJdxXvSLa6EJ/yknbO8Cb6NlHT6MgCj1/QFBp0wjiFOIpxI+ghfcmDEUi2rUVcf6ARUVEO89RFOMJxkSgilYOvZnWJdF5L0eruQFGTuV+05qiWW3OBw6iZ//y1f1mhoUtATMPnjNu0VWbjCfrA4vTq31ChdnFpKCK7/dKbTTrItIkewiLHtQjw66a2ONBgPAXNIyxbm8KWcuaSxDKFPkJB2a2hHsCmgO9QSzH3kVqDwuDJQOHIw/WEfABS1BN0GGwrOHixZgI/Tztm+ikb/yZn0ireM2sl8Lu0VScjnslgl68gBRIJSDiASQP4H4Ju7j7INDlcAAAAASUVORK5CYII=;" vertex="1" parent="1">
          <mxGeometry x="150" y="170" width="68" height="68" as="geometry" />
        </mxCell>
        <mxCell id="qj45M-iO8YI4KxqO611d-12" style="edgeStyle=orthogonalEdgeStyle;rounded=0;orthogonalLoop=1;jettySize=auto;html=1;flowAnimation=1;" edge="1" parent="1" source="qj45M-iO8YI4KxqO611d-6" target="qj45M-iO8YI4KxqO611d-11">
          <mxGeometry relative="1" as="geometry" />
        </mxCell>
        <mxCell id="qj45M-iO8YI4KxqO611d-6" value="" style="shape=image;verticalLabelPosition=bottom;labelBackgroundColor=default;verticalAlign=top;aspect=fixed;imageAspect=0;image=data:image/png,iVBORw0KGgoAAAANSUhEUgAAADsAAAA8CAYAAADYIMILAAALn0lEQVRoQ+1bB1RU1xY9NMFesPcu9o4RY4wd/X6jsUXEhoohqKBArPn6YyIWxI4aBcSORDGWKKKxYjcaCyJWUOzYUan5Z198zxl4wwzM8B2//6w1ywXcd+fud0/ZZ9+ryd9s9ImYyf/BZmOnk1JS6G1SCiUlp1BqWhp//iY4S5oeDmNqYkIm/DEzxceU8liYk1Uec8pjbp6NlWUemu2dfZOYTDEP4+n+0xcU8yCebt6Pp4fPXtLTVwmU8DaJgScL0CmpaTkCDKDmZqYCpFUeC8pvlYeKFshPJYsUpCqlralSKWsqXbQQVSppTXktLbIFXmewCW8T6WjkDdp9+hLt/fMynb8Zl60vMuTghlXLU/vGNmTfrC61qluN8lnm0Wl6ncBG33lAS7YfpICwCHr1JlGnif8bgwrmtSInezv6rlsbqlm+lNav1Ar24q275L5sE+07G6U4WdEC+agIf/Kyy1m+iyvJDeGSphx3uloaxztiXQoD5INEzgdvODSevXrNofJacarOzerQvJF9qXbF0ll+VZZgEYvO89fSb8f+UpsEbmRXpxrVKFeSyhUvQsUK5hOuhBhDErEwNxMxB7BmHH+6Wuq7OAfY5JRUSuSkl5icTK8Tk+jJy9cU9/gZwcuORl7PFEZefTrR7OFf5xzsnJA9NGXVNsIbhhXKZ0Wjv2pLPVs1pqY1KuqKweDjTkfHUOjRc7Ro6356+eatmH/awG401bFbzsDevP+Y+v28kk5F3xITYNfmOvem7/7ZxuCLz8mEKG/r95+i309e5AxdjFw4biuUKJozsMt3Hia3pcHClWD92zanVZ6D9a51OQGW1TOPn7+iAnktxWZoM40xO4JjdeWuI+J5xF74THdq16iWtvmM+u+KYO/GP6dBcwLlDFy3Ulna4+1GZa0LGzUYbYtTBHv88k1y8g2iy7H3xfOO7VvQklH9RYL6mE0R7I4TF2iY72pBA2HIcpP7dxEl5WM2RbAbD5wWOwseDFvs+g25dv/SqHA+T3hD9548p6txDwXpKFusMFXnul+8UAHBrZVMEaz/7ggaPm+NPH7190NpILuyMRgY1qELV8knJJwOXogW1QJlyNTEVBCc4fatyLlraypeuECm5SqCXbztAI1eslEeHDLFmXq3bvLBsaKTWr33OE0O3Cq6Lk3W54um5DuyN5Uvrl53FcHOD91HY5eFyHPtmO5K/7Ct/0HBgkLC4yYGbGXqmKC2FuQS0EtVG97lc5r/bR9uES3lXyuCnbs5nDx/2SwPQtnp2KT2BwML11215xhN8A+lR8/Tkyaa+8bVKoh1gVSgYUH7iViGgaMHTx5OPewaZQ0WnPj7lVvkQftmjdVKKK4wQT915ZboWPSxamVKiB4VYGCIx6Dw4zQhIJQeqLguxm2d5kL1KpcV4+Di/167g7B2ifWN6dGOZjr1lJt8xZ2dtSlMvEXJDswZR20a1NSIASRk1JINFBpxTh+c4lmACPAYRF/UryF+XrPvBI3nF4/Mq2po5w7M8RAKhmTX7z2i/jP8ZT6PBj/QY7DMmRXBem/cTZM4CUh2xNdLvG1NFnY6UjAuqS7ri9jbqQdN6GfPRP+k8DC0dhkNO+/Zu6NaWxf/IoFcFq2nkENnxPDPaleh9ROGsZxTXPysE9iIeV6if9VkWMwozt5bue3S12qx4hDIDQe8xX3pJrrz+Kk8ZZ2KZSgu/pkcl4jVHwd1J7ee7QR/j4y9x53aChG/sC7N69HKsQNlmmsQsJgYMXsi6qZeMcuaItlUKE2xj55wgvyVbj96DxQvex5n13V/nKRFv+0XsQwD4AHtbKlz07q071wULWX5SFI2J35jL/pcSZU0GFh9d1R6PpzFPBCa2IdP5CnhjuDmTapXFElqsM8qQuioWhlmUMjEUDVgIBXBk0aoJVajAoswGL0kWM11bWtVJr/RDmrKCCgidDE07ppsEnP5Hxy6qvW5RgN227HzNNpvo9qOQvpZOsaBmtesnAkTkqEfu+yMjbsyEYohnVoyoehLhfPnVXvOKMCiywI9vcWiu2SNq1cgv1EOIqNqMrAplEnV4ypw+HkM1LpQ/kyPfXCwcMUxfsGEGilZgyrlxI5qqgCghtPX/06+m/fyKcR7HRuJCjuq1ARgboOBRUJBNoa2izKgaqYsq9bk9svWprKahnXgfDS5LFxPUbfTRQIYVJFlDPTzetUVNxRK54wNu2l2SJjcgmJgvzbNaJFrPypR+D3JyDiBQcCizo5csI7Czlxil1J2umIF8xPIwjBuwWAoKw4z/enIxWvyA2BFy90cqbUGoDhH8vk1nEB6pKyLh9GRLRszQNF1VVdjELB7z14mB+8AmaRrijHEE3pj1MGpq7fTT+yKklUvW0IQAE20FEDhtt7Bu9WOYL5mDRsuD9qIl170nWCvtAaDgL1x7zF5rdhMAA1CLpF46QuRQLCzKPDYWbit46wAOnM1VgzBmc3a8U7UvWUDxfcEoAtZEMfLkURxDMR47CjmDtxzVNBE21pVyJ0ZVSk+6dPJjTHpD0Hb5LGH53pqjCFpEGrfH+euiISBow9Vw06C6nVoYiP+hr4UZUaSfSC8+47sQ5Z8DpvR0MGAMf24dqca0G4t6osdRYP+57VY+tLTV/77crcBQq3QCSz0YujG0ls/7OtJON8xhCHBIPtChIdBL0K/3LZhZk0aWReqCVo3qU/FM+C8SGIVSxYTcxzmuP/Cw0de3oyhPQhUUSewyKz4ksiYe4QTsqGd7AQHNYSBpA+cHUjnrt8W04E4oC/NKKHAG3CWM42B4gRPMqwHrluZD6UlQ5JrrQJ25rCeNL5vZ93AYhS+7CmfnCkVZ31Aoz8dwdxXarCnMKXDR9WFIbss3XFIZF5VoFAlALRqmfSWTbKMO5ttsPoA0vQsEg36U8QgDOczYTPGyI36BT7NP8jK4Z4zkUJiUdWVcPTyi7ujaO4zGup1Wy9f+dc4usQRpk5unBtAMSf6TWThs9fSXRit109DuovD7IhL1wlgL9yKy8R1OzSuLZIRypOSoQp0nLBA/pOPcy/y6NUx98Beu/uIs3GUKPbIuDhFz8eXP9o3spHdbvvx89Rr+nI1MAiTpORUtUyrukowI7ilaoxmRIF2z37yQvnXOFod16tD7oDFWW56nY0SQFBnUVshcYLIr2EiARq3+chZ6s1gdTFoUIM6fCZqaVYUEHPhJXaf6idPiybfvWf73AGbFYOCbruXjzsBGvXQwdtfqBpKhksgXZrXFbdgwJG1HS5Lc4BM9GU5RjI0+kqH5lovkOiyC6BpzgvWisQC95V2Fv/a1alKW/71rehEsOvBB0/TeP8trDi85HHE+lARAe6rlg2FLAq3VhW2dfn+oPBjNMQnSAzFd4J2OnW2y52dxawxUtfD5Qo3ZAAaR5x2rEpWelf8MQ66cvSdh6LOormuz+0cAOp6l0kJPLI7iAoM80CKRaxnNIPsrOqkiFXVndVlZ/QZg3o9fd1O+nnDLjENOHHAuEHU1bZe7oPVZ+E5eRY00nXxBqE6wsDBsbMtbDIrHAbf2ZwsWJ9noCvbT1pEl2LStWLU5CCvIYpXIj56sLh513HiAlmHQreDrkfJdAILmocbp4bmyfrsKJ5FvA6dG0Qb+D4UDIxsvksfcScqR2AhnyzbeUhct8UZLe5DGYtBSvXgkwNsBgwievDkERpppdadnbZmh+gnYSglbsxMetg1FBN/KIPCERpxVjQUL16nX+cDW5vGF10gjmsyrWDx5qD9qFojPgQGWahZrpRIBNZ8aQMXna0s+KKmhRlZmPFFTW7K02+lmvIJjnaDTpfGNVjcSmVpJzlVuqjJt1L5Ikv8i1fisCs67oFoGv66cUdtUnjdirGOhGOQHIPFXSgcNYAdKZkxXMGFyrHApa8gKFmZ1p3Fw8Z8uXoo00JX1rAMcrlaelOfzLV5Vdf4JP5DhKZY+J/+ry7a86rxjtApQRnv8rO3sv8AK6iVp+yzvvoAAAAASUVORK5CYII=;" vertex="1" parent="1">
          <mxGeometry x="330" y="90" width="59" height="60" as="geometry" />
        </mxCell>
        <mxCell id="qj45M-iO8YI4KxqO611d-15" style="edgeStyle=orthogonalEdgeStyle;rounded=0;orthogonalLoop=1;jettySize=auto;html=1;entryX=0;entryY=0.5;entryDx=0;entryDy=0;flowAnimation=1;" edge="1" parent="1" source="qj45M-iO8YI4KxqO611d-11" target="qj45M-iO8YI4KxqO611d-14">
          <mxGeometry relative="1" as="geometry" />
        </mxCell>
        <mxCell id="qj45M-iO8YI4KxqO611d-11" value="" style="shape=image;verticalLabelPosition=bottom;labelBackgroundColor=default;verticalAlign=top;aspect=fixed;imageAspect=0;image=data:image/png,iVBORw0KGgoAAAANSUhEUgAAAEgAAABHCAYAAACkuwGSAAAIDklEQVR4Xu1baVRVVRTeCAKOOOAQWo7gshzIWUFNVMxshbYcMpVEUCmVQcsJ1EqBSkWwlQOIivPCWmqWIQ5ZKojhhAOhIppoDiiOgAja/e5aT95979537/Pd+3jP7na53g/OPefs7+yzz977fMfmOSOkiiACNipAhq1DBUhk96gAqQCZ5mBVC1ItSLUg0xCQ04Jyb+RTSWmZLBOyt7OlZg2dJfVVUeNicpJ80M2CBxS6civtPJJJj4qeSFJKrFH1Kg40qEtbivl0ODWsXZO3OcYNWZFEv6SflnXc97sy4wYOpwYC42pPRhQgBNoTYzdS/G+HxHR+qb+PG9CDVoWOIRsbG873GHd8zAZKSD78Uv2KfeT/rgfFhYymSjrj6n4nCtDDomJy9ZtLWE0l5I36deiv72dR/Vo1ON3fvv+QOk+Ooiu37ioxLDvehTXzqWZVR4P9iwJU8KiQmn8STveYXyXEpa4TpcXMIAClLVdvF1C34G/o+p37SgxLTtWqUM7aBVS3ZjXTAWo5dg7dffhYkYk2cq7FAvR6vdqc/vPyC6h78HeEXyWkdvWqdHHtfKpTQyGA7O3sqH3zxuRob0fPRAoC8C+lZWWUcf4K8/uMo6+xANnZVqKOrk2oMnMKihUi4F+KS0opMzePnjwt5YyrOEBQ7FD0F3orL7TaBQ8LqZX/PD1LNBYgKJa9+ivRldfMIy//HnmGLtSzRLMABOf6Wh0nSTsAzr7pmDBZALq8PlLUuWomdYM5XODsdbeqWQDi8x2CFiTg7AFw+tKZepYo5KThXC8lLjDCgvh9mcUBVPTkKXWYFEF/X73BwbBNUxc6vGS6nkXA4jyYrXE69xqnfavGDejEsnCq4lBZkuUKOXuLAwjaIOgLWLKeoxiCtfEDPXmVXcUEpwgWtSWeaR8g0J6vE6sCCApsTz3J/D/FnkBDPNxpcA93g5agaY9GPt3bs98YI1YHkDHKydFWBUgERRUgawWopLSUEG2bQ/LvP6Jqjg68J5vFWRCO8YVbU+j8tVvk6lKfQj/sS22bNVIEp1OX8ihszQ46mn2ZjaOCh3iRb79unLEsCiBk3l7Toyk77+aLSSJL3zI7gLq3bi4rSABl2II4+kenHJIcEUQDOr35YiyLAmjlrwcpcOlGPSBQ0kgKm0Aeb7WQBaS0rEssONeYPEtXUAhDAU4jFgVQ9E97aVrcj7wgoLy5NXwC9WzT0iSQDp/NoaHzVxJyLD6ZOKgnrQgaZZkAwSf0mraIHhQWKwLSoTMXWcsRAqeqgz0lRwZxFqFCLehI7Axq7MwtdG05kEHjohMJuRefwJLgk95p52aUJf2ReZ5GRK4SLP0iN4sPGUOjvLpw+sU27Bb8rfmzeQCTuXIOIenTlV1Hz5B/9DrBlXZ2qk6bZ/lTv7dbSwJp/8ls+ogBB3VqIdATpo5hb0l0BaXidoHzCdUBbVE8WUXZIXiwF1vTLXtWTjHCJQH+tmFfOkExIUGpEyB5dyw/cfja7jmexYJjqOTbp30rGt23K7O1i5gcr7wX20o2zHeFFLNtH91/XGRegCQtvUgjALnz60mCjvsg43N85i0jXBzILYpbkFwT9mROtZTIYL0oGD5swOxYAkhKiNUAhFvVYz+EEWIlbUHQ2WlyJP17V5lrH6sBCMHjnqgQPQsqLnlK3rP+5xYEH7RtXiDByfIJjnafL5frOVg5tpziFgTlpvj0Ieea1an0WTnjw4Zs2FNs0+9HDZ5imODmWQGcvIlP8ZRj52hkVILoKYb4ByfVc+afRuwq2dId5sJz6fb95j/FEAedWhHOe7uQnHGW/BYlGoyDNs30p/4dpMVBe09ksSChrMEn8GMJU33pvS5tLCcOwoUfXyS99c9jNJYBp/BJCa8yIA3Acrzc+beV0PY5gEg6Ip5u3eMPFhFJJ4T60sg+nTldVFgkzXcjiiua3p8vFoxbAE5S2HjqbWSaodEYRz5yMSGmCXKx3UwuhtBBIxWai+leHBrK5gEOsvlebV1N8rFIWIcaAClwUC9aHvSxZQIkVA/C7SksR3tlTUEJJY/hEXG81Bg/7x60epqvZQKE/e41YwmdN0NF8UhWLguSbhK6a8FkGti53Flb1BbDsqEmHbUlmf11Y66Jpw/zVqwmfTLnKs1matKp53KoCVPanTa0v2XXpLW3DSJhR3tp9+embDfc0OJkAykUNxu6YnEWZIqySnyrAiSCqgrQqwbQjrRTLDEcAkI3GBuG5Oe0TNqZnim5vVX7oLUpaeS3OJGjA3IokMn5ZE1KKo1bvI7zJ8Q4iHWkitVsMWMZZrg68pzKzzA7viyMkFZIEasBCHXlZr5hemUHRNlIeqUSycGMz10XYR0cRZXlytgwVp6PaY9sHuRLsCrECN0gkoMn7TZuriw0YPCk6zKFOinj5jH3YSCDmp0GDO6Pewsw7StLmuhT5p1ZxoUrhF9tMZZIDqZ9J7cmLPdICkCI6HElbnamvRQHKaWNsQBJ6VNKG1lr0kq+9jHWSUtRXkob2V774Lh19ZsjWOqUMhlDbeDD4Ox1X/8hAe08JUqPIGXqeJrv6znVYF/7mPxeTOmXfwj6QDzge3EI0vnq3alyYcLpB8FpPEO0MvnFIXrVvB0FARxOTw6Bc/+gWzuK/WyE4JtV8IBClicR0hM5x0V6Y+itrLZ+oi8OtRtfvH6bffclh9jZ2lJLl3qSuqqocTE5owCSpM0r1kgFSGRBVYBUgEzb86oFqRakWpBpCKgWZBp+/wGZAh+VHOBaVgAAAABJRU5ErkJggg==;" vertex="1" parent="1">
          <mxGeometry x="430" y="168.5" width="72" height="71" as="geometry" />
        </mxCell>
        <mxCell id="qj45M-iO8YI4KxqO611d-14" value="" style="shape=image;verticalLabelPosition=bottom;labelBackgroundColor=default;verticalAlign=top;aspect=fixed;imageAspect=0;image=data:image/png,iVBORw0KGgoAAAANSUhEUgAAADUAAAA1CAYAAADh5qNwAAAG10lEQVRoQ+1aeVzOdxx/d8uVO7SUq+TqeGG6RiYUUmrGotBl2LKVo6UcuYZtvJpXhFLO0iGJ5WwKtZlWveZos0x6qVCukA77fn5bvXqq5/f8no71NN7Pn8/3+Ly/n8/3c31/cm8Y8D+D3DtSrUSjb5emnr54hVevyyCLV05OTg5tlJXQsW2bem2njqZelpbhwPk0hCRews3cApRXVMic0SkqKGCQpjpcJprCcdz7UFVREpFRhFRFZSV8Q+PwdWSizBERJ9DyGROxbu40KCrIVw8RIZXwUxYcAoI5s2stIDOM9vOA9aih9ZNy33YAu0+lyASftirKGKWrDc3unfHgyXOk3cxB8fMX9crmZmWG4CWz6ydluzoIcVcyWpyU1cih8HO0hu576lBVVsbr8nLkPijG1qgz2H82FZW18gU7UwPE+C+QXVI2xsOxy3M2enbuWOdwS16Vwjs4GjsTLor8x0vKbs1OHLv8a4tpiojErFoAY71+YmXIyX+IKX47cP3u/eox000NEe3vUb+mWpqUrYkBInxdoayoKJYUxU2v4Ch8F3OudZBymWSKPV/MkWgp6w+fwsp9ca2D1MyxI3DYx1UiKXIYS3dHtw5SgzR7MvNzw/C+GrzECoqfcp4wJPEyip6VgMw2lt3FKogE35a+UyTUPm9nOFsaS9QWDTiRlgX/8OPMU6rh5LrFsklqpI42jvq5Q6tHlzqkKFYlZWTDaEAfdFNrX/3/jbv5II8oNqNoSU2ptVNFqJczKOYQnr8sRTgLtATKJIhQxp/3MFirF1bPmYKxw3XEalNmzM9jsjmCPvsEVFYQAuMucK6bUF5RKVICdenQDp/bWmCxjQW6dmxXh5xMkNLr0xOJGzy5PI+QlZMHq5WByHv4mPdujTPQhe8sa1jo61QfBk1ocVJUMoQvnYdZFiM5Ai9KX8NpcyiiU9IFOQvSWoCzDRZOHSOdo6D03polmUYD+0CJFWi37uUjPjWLZc/PBG3MN8hp/Gjs/dKpuh7alZAMz6AIlJaVC17b0kgPpzd6CidFprHZ1R7mQweALjOB6q2sO3lcQXnm2g3Bm9ceOFCjB1cLDfs3LpHZ2Qfswu95hVKtKVWcUmcJZsRXrhgjxtPQ5k5bQpF6I0cqIWgwmV3goplYMPkDbi65bPdtBxF25orUa0lFymfmJGyYZ8u7CQnhsf2gVOZCC5LrprvUXlWFW//AuTTM3RoGailIC8GkqJlxxMcNVN/wgUzGYV0wsu8VCJalVxc1nAhYxAVSAgXPSb6BUq1RczPBpLqrdWDJpQs+NBzEK+ydgkeYvnYn0v/IFUSK4tCm+XZYNmNC9XiXb8O5PK6hEEyKNjjC7tPHY0bw7lVWXoH4tEysP3QK6bdzJfYJxxvqsULQAx1U/+nZRfx4FfO+CQO15hoKwaTIM4UtnctbhdYU4tHTEuz5IQW7T6bg9v0H9crXqX1bxK9ZCDPmSQl3C4sw1X8HMpkJNwa8pKoaL0O0erM+gSNMh/Tn3YtcO8WwmiCPuCM+CRFJV5HPSgTK0Qz6a3IOgVy3vZkhFOTlOcfizdKg748nNYYPN5eX1ASf7dzpHWJ3qeoS0yQSlHIsit4E8lAxLOJHXvwFI3S04GFtDtJCTVzIuIW/CoowzUQfnWv9R+NoLrXknpS8bF5S1JmlXpuFvm71RolXr2NFSCxUlBQxoHd3Fl8UWLuqiHMMVX04imOLbcbCwdxIsIBrDyZgVXi84PF8A3k1VducYi6lY0lQJNdzkwQyL5vR+vByGI9h2hpQUlTgnfJz9h3M2rBX7P2TtF/N/3lJ1RxIwZBS/8LH0uV3VMBRCSFJa3Sn5rDE9Sgzw8ZCEKngk8lYvjcWj8W0eSUJQVkIZSOS0FRtbomktseehy9rP1E3tKHwdrDEFjd73ulUYjhuCmmS5ikvqW2x57CCaUiatL8+yUfr9UXUSg9odOskltil325zmYi05l3fgrykqJ1LzzmNhTxLhZaxdyMq3mq+G1WtS3XYwsDDiEq+1tituPmCgm9T7ETEPO3Gwc3KHNrqXbnXPnpypQJzc+TpJiMkkVRzdJP69eoGk8H9ucCd97AYSZnZoJSqKSE492vKTZt7rf/M/JqbiODgKysvidIeyDRjfRxb/Wn1NJEWmRtLMPfIyJuvNMTmTzThOlJVECEVn5qJj1hp3tg4JY1AjR1LiXakr7tI20GEFLV3fVhGTs8krQVe9pbYON9WJIGu88ULpS/7z6axTw+SWSOkEG/YT9YgBzlQZe5mbQZqhtLnCTUh9oMrCpSU/zWkZdXch0CVMxGpaq7W3u/t+oqsuU+7Odd/p6nmPN2mXPtve2TGj1usWfsAAAAASUVORK5CYII=;" vertex="1" parent="1">
          <mxGeometry x="580" y="177.5" width="53" height="53" as="geometry" />
        </mxCell>
        <mxCell id="qj45M-iO8YI4KxqO611d-16" value="" style="shape=image;verticalLabelPosition=bottom;labelBackgroundColor=default;verticalAlign=top;aspect=fixed;imageAspect=0;image=data:image/gif,R0lGODlhugJmAff/AAAAAAAUJQBFZwEADQEBAQFHZwICAgJIZwMDAwNIagRKaQUFBQVKaQYGBgZLawZMawhMbAlNbQoKCgtMbQtObg0ODw1Pbw1RcA8PDw9QbhAQEBBRcBFTcRI4URNVchVUcxYWFhZVdBdWcxdWdRgYIRhYdxlZdhoaGhtYdhxZdxxbdx0dHSAhIiBceiBdeCFfeiJgeyNefCNhfCUmJiVgfCdifilkgCoqKyxlgCxlgi1ngS8vMDBpgzFqhDIyMjQ0NDRqhTY2NjZthjZtiDc3NzduiDg4ODlwiTw8PTw/STxxij4+Pj8/P0BAQEB0jUB1jEJCQkJCTkJ2j0N2jkV4j0Z5kUdHR0h6k0lKSkp6k0x9k01NTk9/l1BQUFNTU1RUVFSCmVWDmlZWVlaFmVhYWFiGm1iHnFuHnVyJnF1dXV2Kn1+Mn2GMomJiYmONomVlZWZnZ2aPpGeTo2iRpWqSpGtra2uTpm1tbW2VqG2WqG+XqXBwcHGXqXKYq3OZq3SarXZ2dnacrXqer3t7e3ufsX5+fn9/f3+itH+jsn+jsoCks4GBgYSmtYeHh4eouIipt4iruImJiYuLi4yruY2NjY6tvJGRkZKwvZOwv5SxvpWVlZayv5a0wJe0wZmZmZq1w5u3wpycnJy4w5y4xZ6enp+4xJ+4xp+6xaCgoKCssaK7yKOjo6S9yaa9yqenp6e/y6i/yarBzKurq6vCzaysrazEzq7Dzq+vr7DF0LHG0bOzs7TH0bXI0re3t7jL1LnFybrO1ru7u7vO2L7Awb7P18DM0MDR2cHP08HS2sTV3cXW3MbGxsjW3cnJycrZ38za4c3Nzc7Q0c7c49DQ0NDd49Le5NTU1NXg5dfi59jY2NnZ2dnk6dvb29vm6d3d3d3l697e3uDg4ODn6uDp7eHh4ePq7+Tp7eTs7+bt7+fu8Orv8uzw8+3x9O/z9vD19fL29/T2+PX49/b29vb3+fb5+Pf39/j4+Pn5+fn7/Pr6+vr8/vz8/P39/f7+/v///wD/ACH/C05FVFNDQVBFMi4wAwEAAAAh+QQFBwD+ACwAAAAAugJmAYcAAAAAFCUARWcBAA0BAQEBR2cCAgICSGcDAwMDSGoESmkFBQUFSmkGBgYGS2sGTGsITGwJTW0KCgoLTG0LTm4NDg8NT28NUXAPDw8PUG4QEBAQUXARU3ESOFETVXIVVHMWFhYWVXQXVnMXVnUYGCEYWHcZWXYaGhobWHYcWXccW3cdHR0gISIgXHogXXghX3oiYHsjXnwjYXwlJiYlYHwnYn4pZIAqKissZYAsZYItZ4EvLzAwaYMxaoQyMjI0NDQ0aoU2NjY2bYY2bYg3Nzc3bog4ODg5cIk8PD08P0k8cYo+Pj4/Pz9AQEBAdI1AdYxCQkJCQk5Cdo9Ddo5FeI9GeZFHR0dIepNJSkpKepNMfZNNTU5Pf5dQUFBTU1NUVFRUgplVg5pWVlZWhZlYWFhYhptYh5xbh51ciZxdXV1dip9fjJ9hjKJiYmJjjaJlZWVmZ2dmj6Rnk6NokaVqkqRra2trk6ZtbW1tlahtlqhvl6lwcHBxl6lymKtzmat0mq12dnZ2nK16nq97e3t7n7F+fn5/f39/orR/o7KApLOBgYGEprWHh4eHqLiIqbeIq7iJiYmLi4uMq7mNjY2OrbyRkZGSsL2TsL+Usb6VlZWWsr+WtMCXtMGZmZmatcObt8KcnJycuMOcuMWenp6fuMSfuMafusWgoKCgrLGiu8ijo6Okvcmmvcqnp6env8uov8mqwcyrq6urws2srK2sxM6uw86vr6+wxdCxxtGzs7O0x9G1yNK3t7e4y9S5xcm6zta7u7u7zti+wMG+z9fAzNDA0dnBz9PB0trE1d3F1tzGxsbI1t3JycnK2d/M2uHNzc3O0NHO3OPQ0NDQ3ePS3uTU1NTV4OXX4ufY2NjZ2dnZ5Onb29vb5und3d3d5eve3t7g4ODg5+rg6e3h4eHj6u/k6e3k7O/m7e/n7vDq7/Ls8PPt8fTv8/bw9fXy9vf09vj1+Pf29vb29/n2+fj39/f4+Pj5+fn5+/z6+vr6/P78/Pz9/f3+/v7///8A/wD///8I/wD7Cew3bqDBgfzi8Tt40J49hgYTLoQ4sCDFfhIv9nOoMaNGixQ9UuR4USRFkBBNMiQZUqFGgh1dXmSZUuZFlAxVNnxY0ubJmBNH8mwZ9GfPoiuH1kTKEOdBnQZp5vQJ0WlEqjuBvrSKEGtUpVOZHuQqEOpAqU+9GiSLUa1AtFfFrtU6E2xauTCPaoTbFa9Atmbf2o27la5Qw0aJ7h3ct7DeuoirRs76+Obkr5fnVobIt6zbv5kFhwa9OenovIohl246unNbv6iXLj4N+LPrwLX93v4cO+zs1WNbM/YMO/fv1JaBnx3+2jFyzswDk35uWnlF4bSxW58uWzV11tt3F//X/j14+Oi8jXvvLvl8dvfbe989zj5x/erlNecXHV/94f7k3QfefhuhNx58BMpH2Hq+fRRgg8kRKJ5zAmIGIIIVcgchdO9JaCCFG+KX4XUYhjjgiAV2iOKEDpY4X4seqmiihQn6x+GFMeK44ocw7ijji/9RF8+Q8XRD5JFIJqnkkkwqaWSTUEYp5ZBPTmnllVRiqeWUVW7ppZNfhplkl2KGSWaZXp6JppZqrnllm25yGeeXcM4JZZ12ErnPnvuAw+effOoTjz6AAupQoX8KSiiifPrJ6D6KPrrPoY9GKqmjjFrKKKWZDippn5JqiiiniIqKKKalevooqYWaWiiqrQ7/+tKstNZqK0WqPgoroK7+ySqvuTK6a6LBFvorsYvqGmqxhtqzbLLCPivpsYEyC+iw1UJrrLOVWvsntnv2yie14XrbqLSrctuptvr5qOOMy/24YJAoKtgYg0DaBy9/NZ52678Av5Teg/m2l2O/Ls6rb8GUIXxwvTaKuK+GDNM4YsQNQ0ywwga767DHGid8b4T1hqQPPu+k7I477bTs8sswv7xyyvLgow9suB748MT2EkcfzxhbDPTGIy/MccZDi+xzjxOz2HHTPJIMtbxFS1xxu1O/ezW/ISeIUD7vrIOON9Q0c8wwveyiCy63tO3223C3jYsuu/QyzDHNUOMNOuu8/5MPzgINrHRzTG+dotZHC214z4TTm/TOiwcdL+JVI7215Fw/DrLmWX/cedebR+4vP/q8Y04zu4TSCB9rgJHFFEooccQQtNdu++20HxH7FFeAsQYfjYSySzPmvHPzrIJDnjjWhjttdOWKL0+i8tAzL/3hnjcf9fNLO3450d1z3/iN2V/v/NPaUx2+1dczLp1A+ISDCyJXwMDBBhZEAAEEDjzAwP8ADKAAB/gAB+wvAhbYAAdekAVE4EIc90CezkLXPsxhD3Sf41z6KLc+y1UQfONDn/m2Zx7qdbCEFKze9FJ4Quup8IIaHKH6QsiQdOyiD0eIAQcUIIAe+vCHQAyiEP+HKAAFcCAGR/jDLtIhsAlmUHSDe58Fz3eiJ34wisljIQ1RaEUVTpGEVdxg+V5IRS6KEYNnjKEK9ZEOU5gBBjz0YQEgsIEPhKAEKVBBC/b4gj768Y9+3GMLVJCCEoTgAxuAQAF+mIAYnCEV6dDHRbLYxRausJJbdKElYQhFE2bykmnspBalCELclJKSobyiJ0mJRSem8oXuU8s+0kGLK3zAhxQoAQ148AQtjAENbIgDHfCABz4Y85jIRKYeiEmHOKzhDGPQwhN4QAMUUMCHH9BCL9wxSVfKkIOf5KQqR4nKb45xk2XUZDjTCUpzXuyU3iQjGM3oTjWic57qlA47Kbb/vHcg4woZ6GECLDAENzSiFLgoxjKcYY1rcMMb4RAHOSZK0YpSVBzh8AY3rkENZyyjGLgoRSPcMAQLHKCHIxDEOboJolduMpa6wWc75TlDfcqUnzQFp01rahuZfpGnMQXqz0SJSVauspzVuwYhLrBIBbxAD7fwRjveIY+a3eOq+shqPrbK1a56Nav6uOo98FHVd7TDG7fQQwt4aIJEoIOlhasnUV0aTpgOdZxFReo9hYovvNJVJWDVBzgCS9iTxcNmhQVrPeqRWLDi47CNBetgI/tYxDZ2sZE1rGUbO9nGVjazmKUsZDPb2cR+NrKh9exoI1vawp72sowV7WYT21rC/1YWIu64hRNOmgAeLOIa6ohgwP51D3VcQxJhqIIdkvGOSc62sLUN7GsTm1rTrpazmZ1uYavr2uvSNrveJSx3bRtewkbXseVVbGxV+1zzgre96n1vZgUrX9Su17rwlWx9YbvfrC52sd/4r4D/S4940GPAA6bHgRFMYAMzWMABfnA9CrzgBytYwhN2MIYjbGENW7jCDKYwhuvB4RB7OMQgRrCIN4zhFX+4xSdmcIlVbGCIaCMRI+ihCvJAjeH6mB/84MYuYHGMduxjkilG8IwTHOMEJ1nALn7wkqHcZCg/ucFX/u+UsdziLGfYyySGsZcvLOEoy1jMXUYzi8tcZQKPuf/NWlbzi9mc4nz2lK/e86tc9ZzTc67zpnZlSDDKkIAeXoEWkvSxouXxDuHCVWp/1euf8Uw+NO4Zlj/V6Z01HVTrZNrPO+X0XTENz5Ze+qUY28cqlNBDBQRCG4qOda0kHWpQb9rWncb1qFFd6rj22dK/3tengb1XUfeV1K00dbDnerR1SAIHPWwBJ9Yh62prhNa3JvakjZ1nZB81nsXW9bF5nWzx1Vrb57bntsXdbXJ/W9kd9EYgWtBDJdSiudbO90GwnWt0Z1vd6Wb2svkcbn/3G+D//l65IX3qug4b4QcXeMEhzhBnuOGWAhjDMBytb33ze9cO7zXDB+5tcoJ73Qb/B7lRTT7yiUsc5RQfd8gXbu6EE5yGxxjDNQVAB2ccueOz4sc9wnaOc6xDHn+DyMdlvvK8njzgN4d6yZ0Ob5i/XOqWfPjVbT71SD+d6+5mua87GAwtxDEQ1gD6S/ixj3eEYxm3CIUobuEMcsjj5wZZertn/u6xWz3qYOe72Fv+96433JQ0FyHJw051v2Nd8I0nvE52QQUfHgLWai9JOnShBh2YIAR35EEeetEOhui90jHfe9O9XvXHr/7wp2ef4Rf/Sa0DPuK3V3nsPTh7l+f+ILeQgg8X4Y3MU2Qf17DEE0bggAI4f44p4MIn1oH3fuw+er0vPONZ7/jAv5723/d9//Zd7xbbj9/7158cu1G/ddyfnymyeIIPJREO4z+FH8dVQgR+uMgefuAKr0B9A5F+mdN+uvd17rd9sIeAB9h66MeATFd+IldzCQh53Cd5D+iAFRh+NAQL8tdDlCAO9ocQ9yAOknAEDtBDFIACMlADJaBIAsABXNAM+GZ9EKh6BChO79eA3beBObhPgYaDN8h+HHMkeJInYIKEb6KES8iEcuKEUnKE8cAQr8BqPYQJ5HAR+4AyVdWFXviFYHgPQIYR+nAOnAAEENBqQ0AHjtAIcVAD+1cAFmAJ4jARUQiFd4iHd6KHe8iHTCKFUAiITiiIcfIt6LIp6pIq2vIqhzgqif8YK4t4LY24LZPIiN0SiePyiMCCiedyidOiicjyKeACKbJyEKxghQKgCVlIEeeADLIAC7AYi7I4i7LYC9cwhvwgDpygAxPQaioQCt7AMujQCDpQaAkQB84gXOayJ6MoLntCLqTIicxYib4CitkiitSYidnYievyids4jZ6YLt8IKuGIiOPYjMsIjaZiZz44hLKngOD3g4BmfvDYQafoQ5xgDhCxD+wgCmHAAwAZkAI5kAPpBIFwDfjQD97ACUdAAf3HADLQC83Fds2wBiFQRFSwC9xkgxrIgxjYjh0Zge7Ie/WofRa4gCEphB/pkRTIkoonfiVJfiOJfTGJFatwBD7/5AkrxRD6QA1xgAJEFJQC4ABHIAtuxwlTsH8+dAAfIAnFhxHocAg1IAAHMASwwA6BM5Pql3IimZJEuINd2YMuGUYoKZZh+ZImyYEy6ZXveJLxqJUF+HsGkQo42UOeoI8McQ/OUAYYJ5RClAA9YAre8AlVYAE9xD8nJQBTsArpAGTpkAg2QJVWiZUcaZYqaZlfWZMgiZltqZYZyJkk6ZYwWXsTiJZrCZo0KZppKY+UJhB06UOf8FYMMUuOUAQbcJu4mZu6qZsxgAbFkApOsHMJkAM1sAGHyQW0wA7yQA1ucJEJIAUamZVsGZqeuZkreZYtiZ2m+ZnXeZndmZmkmXhk//mW05ma1TmW9ESeoPmaPRSbKbEP2kALlDCf9Fmf9mmfqaALdJkBi8QAPKAJj/CBArABT7AIu3AIPHBSDOAGySidqLmVqQee56md4zmaE+qd2Ymh22mdFbqacKmDmome7CiiM2Whu8eeAuCeFCEP6iAOLvqiMBqjMToNojAFG7BIFDAEnKAN10AJNrBIBZABNUAFOBBQBxACdGiHHwqE9Kiap/mdncma3CahUrofTXqhVLqk81iaHfqkP5ENvCAgKKqi+kYOqwAGTCUAFqAElOAN+GAP04AINZCCAlAAFMAAiySDybCRlQml1FmlXKmhXcqdGZql5QmhBkihJeqhh/8al2ApqOlpolr6HjuwBMrAMGMqm9bGD+rAClwQUAIQAUfgCOHwc8tJCLYJRGuaCgLooH5qnoAaoVE6qVM6q40Kok5KqJHKqA/qqCGqqCMKrIvqpe0RCwAAAFggDZWTqfnWdrcAUK3GA49QfwahD+qgCUOQmEU0BJTgDtUXq4kKqcEqrsOqq4PKoRtKojglqa+KqHJpqL2Kq1hqq/HKpAKxDyxAAA0AAF6QDTTErNbGDrswBRywSAlQA5KgDYmGEPugCT3wQ0BACeawD0UBru9Kr+3qq7mKrueqrkEIrxkrrxIonrtKrB0rrOvKqyFrrwJxCghwrA1gAGkADlgBsLL/hg61oAUfcFIQYAOSYA3ycBD7sA6sQAV9GbHawHGuWqgYy7R/Sqvr17TpirIfK7Unq6HbkLXbUA1a27Vdmw1eG7bZALZh+7Vl67Vce7ZZS7ZqO7Zqu7Zvm7Vp27Zx67Zvy7ZqO7dni7dla7d0q7a5cAd1cAeEW7h30Alky7eBa7iGi7h9u7iMS7iIO7fZAALHCrMIQAaXehA2yxDvIA4d5QyiK7rRIFV4pw60UAY3Gqo8kAjXELQGsQ/m8ApV8AGLBAE5IAnXoLQCwQyRW7i5ILdhmwm/S7jB67VuS7zFawtqq7yDy7jHC7daq7y/G71iG7dbW7d1y7fXG7d627fb/6u93iu+bcu9yIu939u95Uu+ecu+fWu+Zuu14wqyTgurUBuo9HsQvMAERsAE/vu/TAAJ4bO/ALwES+C/AjwVBAzA/yvAKGEEC3C5AGAAEmAIDNG5CCEPy6AJf2AHxERMeZAHjfALTNQP8hAMzdlDDsADgrC7QnsOsKAFMBgBvsUNvCsQ4MDAAAwMC+EUjFDAO4wUHPHDOuy/uSAXRNy/DMzD3UPEBXzATCyrT3urLNt3K7ulJJuyJluy5srFHOvFHnulySMMBHC5CCABhVAO1eeadZmimhq75BAINHAAz1fHF6AGwQBk4fAH9EaVMkAI13B/7SALXECnCoADh7AO9/9AsUp3v1Jsv1SMxVZcv+76qPl7tZdcrl88v1YLxlQrxo7cSU3wsmc8COqgExgsEPewDFxgmEJUAEdQCkAmCkNQaAWAAocwDUrLD/gQw8bZQzaQCOIwS+1wwxZryZ3MyVNcr5I8eJSssfO6zFNLrlrcxcoMyczcmtJsFMxwrBIACOrQQancD/lwDXhAAxOQAA6wzuucABswBrtQgnGQAnWaAX1Ag0LLDrXABSPQfziwCNNwDgcqCcXApwMYyhfrQaewBxsbxlzqydRctds8zZlczZusyQ6dxRj9yQ+tGVvwzeG8rG2skynRDrgQCFyQBVqw0izNBqkQDu3QC0pwTRf/IAXBUHqxmw64AAYjoKA0gAjOsA7IwAU20AN/EA2mh9DI7EGGwAQNzdEabdEZPckUncwSjc1XrM1Y/cwiWxTgoKzXXMm8lg2A0JgMc48CkACl8MYHsQ7OsAu3gAtyLde3gAzosA/nIAktsEgt4Ah3HRGbVwZp6gAyEAjUIA/pkAow6AS1kNSRrNXu2tRPHdGg/Ni1OtGYbNWVnc2XvdVVvc2SHdbQvHu9oAUREAEoUAvUNlz6oA1rcEsHAATIALsYwQ/v0AtoIJwyoAfikJDn4Ak+dASp4NicHbVM7dTR7NmZjdkQXdEbTdkdfdViPdnOLdVQPcmh/dzVLdHi4Aln/8AFi6ANCTlc7NALQ7B/HzAGEIQQ/NALZ2C7PQQDfbC7C/HbPqQEq0DcWd3ZkY3cx/yr0B3V0j3aSp110W3dAU7Vy73V2Y3g240x+CAOZuMNd+dj4nAJH1BoNtAI3ioQ+rAOt1AGKlBoAhADf7AM8jAR9l1vrKDfXF3FFCTZyT3dM07glm3cyt3cmn3gA97VN46/TdvgPQ7jM0I6Ka5o++AMeWDLGfk37aANw6AJWmAChaYALdAHx1CD/WAOwF1vr+Din53joi1OMv7f1G3VDo7mQ97MkbfgNG7mNe7jxV0fQr7ZIRtr77ALV9BqXPAL4UANuNAIZ9ADMMgALUAHy/+g5VvOCff95ftW4Gd+3JEu5tqt5nb+4mx+gYFDJISohJ2OhJ+eJ6EuJoOwBEgy6nMihUiOMilDM4xsDpYgAwJVBIngCGpwBCigrVYeB0DLEOSACfcNC6YXJageJ8XeJKVuJce+JsuOJs1eJs8uJtF+JYZYjo54jt+ojstIjt0ojtZ+KtlujeUCLYXABJL47c2C7ZeoaOhwDKbwCaLgCabQC+RwZNbQB3SqpipgTQygrQJQA2hnD0whDpYQ7KYnjdyuiN6I7ufe7eZYKOUejdjI8NpI8dyo8N7u8NFi8ZMi7hJ/KeGu7hpPid8+5kSu6WH+5pBuEnXO4xakEbMUCmX/MAQ8AAQ9MARa0AiRNA120H91mgAkLlAycAaaEA1HzhDiQAk+9ATC/ug//sju+tWTrvJPH64P7vLRfekpb+NzDvVcLxAtL+AvfxE96QYjDvQJwAAcMAXTIA/aQAi/rKoy8ARr8Ai/IA60zRDe0AhLTwtg7uZfj+mQHfhbL+f7jeNU3/UKp+A6ztwmn+ll2bIM/fiD/xL6sJccAEQQMASJnthO0HwFoAAZ0AI9wAWCwArRYA43bBDcsAg+NAW38PeNT+lp7viVbvu1T/trXvknH/mAb/iCz9+E//u9r553roXpsAhF8AEc0PwfUANxoPr74A2WoAMj4AEvIAWBgAvX/3B0tfL2PVQAVbALsk/5wg/8hV/87Kr4Ca37Wm/+iD/8s5/4hw/kuN/jHTH9u4AJjSAJANGIEqxr+vjxu5fumChRu6ide3dvH79+FS1evGjtjwABCbQEw9gvHsWQF8eVtMhvJMqK9uyx7KeSJMuTLGXCdAnzJsyaKHeizGlzJU+dQ4G+FDoTZc+SP0sG9Wl0aVGlIaE2lVqSaUinVpFGrWqSKs6vWMNi3IqxK8arXLOGTHtx7cW2at+iHcuyrty7YpOSzUszMEyW+NaRCycucTp5JPnlc3fu3Dp5Ewlj3NcsDkcKZZCF7GsxbsrQ/faSPusXLOC/RFsfHaw1Ntuybv9Ti55Nt7bd2xVHV5xr8TTw0v1+xyw9HPnt48Fb7ubb23hu4dBRE26e3Dpx6dl7K3fum/rz8eJfX7Z58CB69hbxDQvD8UMcZ6C7lwdf3Dvr1a77wz5PtgBpK2+6AXUrcD+9tlsOO/wYdE5BAP+b6sDqEnwQQwvJ29A8Cr3S8MP2RiQxpHdkUYKjFgLxxj4HO8zvPhgh1C/DDg0UEcEbJXyKRhlzvHBHG4HE0Sz+jPQPyQmVrJBI03x80ckYo2QSRCFvLDFLwtbRpAWOcpBkHReTtO3IMsnkzcw00YxOzTbZvG7BEKsk8EopoYSTOzfjFPDOOc9cEtAm6dTRySIFtdL/UB4TJVS1RrWEFCZt/lCAIyVY2WdMwWb8c81APR0U0ToVHfJRD02dMs8G5bQTVTwt0idWfcCRtVZZ8YkHH1ttraeeXWvFVddfZaV1WH2CNVafXpNFNtlih2122GWNjXbYZ3+tdtdpoc012VmZ7dbYbbEN19hrdw2WsHvekSfSSPWhpQqOEhjjl5LKtRZcYaX1lVp8fz3X1mx57dfWUe449t9dAwZW4VrHRdfhWhm+VeJYIRbY4lgpjnXghwsmd998/RVZW5AjLnlhfZPFuOGSe+31G5hnhpmeeOihmWZ6cM655pt7nllmoOuxmWegdx6a6J+TFvropY82uueik66n/2mpn5Y66pynZjpprqH2Guuerd76Zpb2aQcZWXZp0d0sqclDBY5COOSae7XOmWydxdYZ75m/Blrvv/n+2+9BllDa76DDVrxXpIcGfGzGvW48caoF97nyx52uvOrJIdec8MUhF93x0LV2VNRCTT0UVEZVT931UVlfdHZBwZEGL05bhb2fd5DB44oxJNFmnXvcRu8eda5ZhIcEBChACVnaufdHVzt989N+DGFi1U395F321Xs/lfxUv78+/Ox7HK/28cWPff3X4cdtd1LtZ5J73cG/n0h0DimBABQQgz7cwhvuYBc+7HEPBsoqHw+EYAQlKCsG3sMe+JDHO9zhjVvo4f8FlSpABgJhDZTUCH/ka538bFcR/YUnhXxin/pgOD8V7i99/bsh7UrVO/cFCYfme1Wo6Pck7M1whevTX/yM+L4aKlFPKDHHH0YwrwwUIQ6NSIUujtGMaFhDG97whjjEQQ5ymMOMZ0QjOcQIRm1QIxrNOIYuUtEINwzBAs8TgAWqUAx3lNB6QCziE7XXQhPyT4cnHOILBRnDHw7xfEJsIoeI1ENJHtKQKKQkEWW4SBrCMIn1u2QiKemOXmjhAxwRAAVKQAMePEELYUCDG+JgBzzkQQ98wGUudZlLPeQBD3aIgxvQEAYtPIEHNCgBBVDJgSrAIh2Zqh6VALlJ7zHyIoT//KMjg9inHGJyh6L8ZiTLp832hXOJTqxmJzkJF3Ou04bTpNAnxynOR3Kzd/pIRyrKAINKobIAENjAB0JQghSooAUHfUFCFbpQhR60BSpIQQlC8IENQKAAqOxIDM5QCnTogyWF7CY4Ebm97rkwk/Vk50jPCcqQilOR6TziSucpU5SyFJ6WbKlMXxqemqKTp0GU5061E0iYYiQdu+jDEWLAgX5i1KlPhWpUnaoADsTgCH3YRToIA9KbenOk2JQmOan5U6KSdaxDPet3tulTtDaSnmt9p1jdSlOgdo+tai1rcfqBj3DgAhFXgAEHNmCBCEAAAg54AAMUu1jGNtaxD3CA/2EjYIENcOAFWUAELsRxvK1m8615xWtIwKoqs87VnT7EaVdFGkqXnhSuMz1tJb3KWp26FrR7WmRQbZvWy/BDH+8wRzN2EYpG8GENYMjCFJSghCMMwbnPhW50nXuE5U7hCmBYAx8aEYpdNMMc7zDIZbgq19SS1yKjRZ9qW9vOot4Vt+21qXlXm9PY7ta08NXkfUtb3s+eR7fsNWmBUpKPd6wDHd6gBhyH0Ytd6AIXt4BwhCU8YQjjQhe76MUwtkgNb6BjHe/Ih3QsMt7+6retF8EdfoUaWhOzmL90vS2rWvzeCAGYxDDmrYxfHNv85s+u8S3xjlXsk2O9w8jucEc7lP+8ZCY3mclINrI8dCXiaJL2xLOlr4rtK+T9Ylm9tbWxZ3E8yTCHNchelu96VbrIU+whrmeeLwqRN+fOmnnMXL5ynNMM5jVrucxWdjGa4Sy/eBQ6Ht0wdKIVvWhGN9rRjEb0oyU9aUoXOtKVxnSmLa1pTlf60p0GNaQpTWdSl4jSnw51qjetalYfutWsRvWrOR1rWWea1rX2NK4rvQ9e7wMcvQZ2r/URD30EO9guMTawh13sZPf6183ex7KhvQ9kQ1va0352s6/d7Gprm9jT9vW0t53sbid73MnOtrm/De1yG/vcxk63u9fNbXuIe97Njnew3w3sduv73ui2N7PpHXD/cOdb2f8+dr2tjfBgG1zYDO91vw8ucHwTnN0K9zbFAb5wjSfc4tB2OK/3HXGMq7vjDf84uUsub427V8eCvjPMedxTIMdcz4PmM215vGIa33jmr635z2OsvZxnOcB9PrrO/Yz00GxZ5vilOWyhDnSpd/nmNlez0pNudJ9PfejWfLrVs851MQs9x0TfudPpp/axfzntf07vnt/O9LJ7/exgv7rZZ/zyvNt972hfuta7Lvaiux2+bC+83ANPdjvrHc+B7jvh5y74ukt+8YbfOuYHn+e2Kz7znt885COJ+MkzHtA9rzznE4/z0ms+9aJfPdZj7/iwq771oH896hvv98fr/x6Ssr896y+P+91b/vPCPz7wh4/80Ps+7oNu8/KVn3zaR9720q9+55nPHLj/Pvuz533tYR/86Tef79ovf+7PD36xo9f74bf++LEPf/R/n/z2P3z37Un806///vSHoRRzOcCjPgD8P+MzPwJMQLwjqflDQPVTQAhkQPa7vgJ8wOdLv+KrwAVUJwfcQKX4L7rTQPmzwA8cQed7v/YrKQ6MqQM0wf6LwBP0Pw8kwabTv5SiPBmMQRicwNz6sap7QQzEvxKsQQnsQCJ0E/fbv+3TwR6kQRRcwgzkwSO0QRGcwhZ8whlEQi2UihDMwStkIgoswiakQiM8IiXEQdMTQgPMwv8dXMMLBEPUQpRtoMNtqIY6xEM8zIY85MNs2EM+1ENAzMM7FEQ6/MNC9MNCNERFpENCRERGTERFPMRCdERBnERAjMRHxMM7CIJBhERIvMQ+ZEQ7/ERJDMU8PEVPlERQLEVFrERMZMVVZMRXFEVTpENV4IU65ERDZIZKcMVWtMRUrENhrENaRMVY1MRflEVEJMZtaEZSXMZgBEZBNMZAtMVopMMBdMItdMMUDEJvHMPz+kGe40IzDEMXDMc3/MYoNLt0qAAryB39KYc3aABgiEPZij8oTEPXI0Ms5MZtrMIvVMd0BEd9fDMpZKFxJL02BEhzlMN8LMd+LBRAAAAAsAL/ODCCOjAAACACiXzI+mPDfyxDj8RHkIRDdgxJFjxHhhzJe+wxQfFCNSzIiHTJqCPHbkTJ0jqHBiAAAqhIBKhIe6xJqrvJhiTJl4RInNxH/svJdVxKJhzKr2vJhDzIIVTJjxRDg9TGqZzJJQGEBajInyQChyzJrKTJgdTKoEtJskTK0bvBqlzLo7TJhXSKmOTHqLw7rmxKgtzLI9lJnwxLXmDLuXzLrfTHqyxLdExLukTMtjRLpYTLk+yH6DPMlRTJwxxMomTMzMSIPWiAn/yBxiRMK0TLs+xKo8RLMiPN09TLp0RI1sRMudTMwlRLyexL07zNQPnLoKQHzszL2EzN/97DTde0Su5bzdxEzdKEzMrESsUczsh0SujkS+KMy+CsiK9EACMQCd/8u+SETcsUzdk8TuZMTJYETuX0TuRsTelMSyCcTvZ8TvJ0TOf8lHIAS2G4TPDkTuFcztqMTvmkuc2UTak8z+9sTvPUzwH9zQS1zqRkwD1oAgQ90Pyc0PAkUAZFz/V0z/YsSg31z/cEUPEUSAMtTwotUQvFklJT0Tkz0fmU0BPdT/GDwkS7NV2TtBq1UUfD0RwVNR7FtB31URoN0lwb0kkD0ldb0SSls1A70iFt0iB9Uh+NUlkDtpCLNojjNYl7OI9S0i4lES0VOSzlNSsduSxdOX87uSpNOf9jA9MrTVNnW1OP47iCi1N+O9OJo9M5vbiA89I+zRKTy9OMm7Y2LdMxrVOSO1Q41dOBW9SKa1Q2vdMtDbYQFTA/7dPRHFH1LFBNxVASddEWtUlLFdUFrdAYdVAP3dD47NBNHdVRxVSZ5NRSVdDuRNVV7dRWxdULldUGNcn//NDFpM1cVdJXvcuKEMBfVdVU7U9lTU/qtE1hhdbHbFb4XFZb3dUMZVVk7UZ+kId2WAd1ANdwFddxXYd1cId7oDJhJVambEBKJVUYnVX+nNZoFVZQFVFYdVZfZVYPFVCLkIdhSIQ1CIOBJdiCNdgwUANHcIZ3oFcO7VeqdFdazdaIldf/Wm1YS7VXXYVXXpVWfv0zfggHSXACGBiBDzDZk0XZlBUoGsgCTzCHi51XbfVOu2TXWN1YbL3VfAVRmBXVjH3XT0VRic1ZmW1JdEgF55GqpBWACLiCVUBXnr1WT30kmoVKnI1amwVaU3Up4NgHCfLar40gXrsMXgPbspUgy8gSnxXaq9VZh6XNfj0GNVDauf0ANTCHfIDam5XauqLWmN3XiSVawP3boQ0JeRAHb+CGxFXcxWXcxg0HrSKMdAiHxqXcyg2jdknboK1YwbVWvcXaAP2zUsgBVEqAycqA00Xd1EXdCLgojhiCYcBcqF3Xqm3XwCVc22Xbvq3Vh0WJdxgG/0LggioQ3uEl3uI13irQAjfgBHPgrIu4B3PgBDfQguOl3uPlAkIYBoYlEbXd3JXM23jloT/DhBRAJRoYgz5A3/RVX/Udgw1oXR6Ahdjl2dl9Tap9zc+912Ld2/E4iGPAA36a26Q9gA84gk8gB6XgB3IQhSP4gAMIYKkaIDs4hvVoD+6V0Rn8Xo7lpIlZGXE5mYzBh4q4BPLliCtwBW1A4RRWYRVOhRbAIx54BfmF2ZapmJSxFY5JGBuWFRruGHwphCW44Q7mFyEeGW7R4Yv5YJfxFhz2mB1O4hpeYiI2GX2xCX1YhBp44Ll1gCpIBi6tCH1IhitwgCxW2hpIhKdFif+QiWKSYZkn7uEj3hgpJpgMJowiVmMPluLR4RzKYRwRJmEBAINjYI9hiIEXjuHv3Zyr6RzMcZzSIZrTmZnDoRlGthzQ+ZyhoeTI6ZtLDhxO3hpI7hrS0ZzTOZt3KANlImOpKgATkAXtrYgTQYHWTWWoioAycAdoKglFvhxP3mRR3mVfBh06holOBmawKeZeodgzsQQUQCUuAAn0GIYXeOH4/V76Lc6LoEzc9dy2TdbOzVrwpR+0AQMImOWoKgARYAXqsYh2YAURkOVyxigHAIN1wGX0sOBTPSL10Od95ud+9ud/Buj24F3dBc5lbuZnvoxonmYZRgiXcOiHfmiJSFL/a65Oq91mgr7dwc3dZA5ndhhneH6qc07ni2DnEXhnkBYAeabnEbnnXhU9fPDWcZXpmabpmrZpdViHdghh9hhojn4Tg+YIZx5kaeYI+JXhd9CGY1DqpWbqpaYGMVlRin5WjN5obf5mDX7Rqy6JfWCHMCBnf4KAEUCBsSbrskaBFDCBD3jnAxiBkV7nVygBB/anDzCBFDDrux4Bi8IoCAADdqjn3tLcC14ShIgGT+ADNTiDxFbsxWbsxnbsx4bsM1ADPvCEaEBjrK4xKwRqARBqaCZqATBqjNCGRCiC0jbt0zZtKsgDWmiHv3YbqdZXb4btndXoi/bpleJqr8YoBaAB/zfAg98G7uCuJTm4AgbAKLZ264poB7iWa45ggCugA18SbuF2AxkwblTia79m6cDG50Lh1mP4gyPI6wcg7/I27/NG7/RW7/V+gLA+gj84hsYAZ7fUbGYOaoQmDIUuamq+iGhAgwBWgBTgglRoh3Rlj9l22/Gkatu2agRX1dz+ao64gDDYLHB7B1hwX1RCbnVWbub2pwx4hXcAt3sghzDIgL3ua9fWWK3e34rAB22gA/tG6Rl3KhSgA2/YaYtm8QW/6s3u7IT+7NDu7/9+4AyYAmeQYXdx8GrtaR5fcr+VbaCDcIy6gDLoKIDmVlrIcI7YcJL2cI4IIVpoDIDOB3Qog/8Tx+4U326t7dhROQdScGcan+UCoHOoOmdTeFnMDkjT83H8hgn9Bm3+tohoUAM6N/RDN3SM2gBLIAdSe/LdDdYoX/FHB9wpR6ULGANzUPGLkAdauABZLoAQSO5+YOc4B/MLkIUkx4xzOHMU1+4K5m6X5g9qiIMIkHMyTgAUOIIrUIIUGGOnioA4ICE9N84v7POhXmiMoIY52IBmd/Zn34ALcIDWnQA3oAZHz9+a5WYmj/Qmv+3YsnQJz/RNd49bMGkNVwFacGXfqYUWaO4CGIFbyHGU2AdWR3OOyG5y796qru38agYt+PVbV9oCoAE1oARZ6IVbsAQ2sIF3dgAuaIb/+V6pfj12z072i2CHZpCFjef4jpcFUzAljqjlaMD2Sc922sVfk1f5DQl3AcB0TSeMfDgGJbjulH6CYmjevSoGJwh4BlCCY8BbmKj3Vk/zV2ePlm7zQlmGKqh5gY8qB4iBPxiGc5CHe5AHhSAEGWiq514Gia+vP6t4IL94i9gHq5eHs0f7tD8HPCDhCBgDkqczSs9oSf9Zued3uieSln95fa8IcbCEEVCAwB8BShCHkBAHSgB8waeERieMob93Acj3Nff6rIaKpW96p3eqVZ6Da5Dhe7CGQAiB1uX6yc9sY5fxH8/vIBf09mAHPmj7MID7ObN7vT3Wfp/9Hd92KPf2/37Q+3G/jOcVBTfgAjcQBeYNCeAXfjdw2Zynd3t3db7v7ru3L8vH/KiKACdAhneoCn54B2dwAgtw7ivoemLHCCEtUhE+fT9nCUCHYVUnDHbQg9ePfeR5tSlttcNRNPu3Uf3XNf4HiHgCBxIsaPBgvG4IFzJs2O8hRIj72IWBIOCigAtjzO2L6DHiPnPOkjnj+PFhyJHOyHU86XHfuTIZMAqAAIZdy5MNGSrc6fPnwp5AEUJcVoUBzaRKlzJdmsLOupwg1/VpcTHBlWUQEQod6vXgvrD7wIktK1ZfPH1mzdqzt7YsWn0PL6XACKaYy4/DaCS4yOOVvLx52empKyBCmP9oghefbPv2bNrHYslKjit5n+PKkcUWYmKW8mPLkjOH3iwZ9FvRj0mnNv0Y9VrVb1nHdv0WtlnZa2nnTpt3YkWaGk0yLm7cJUyZNG3i/F1b7WXccG2zdasZ+unLuqsXPdr0O/ilNRLt43eSnzxJNa5mlXhbO/WyvKdjDxtxnGB+8cznbZt//0OYGCZADWcIciCCCSZ4BgcF+AVLYMc9RJhhiCkW0T3UJEKIgh0uUooz90TkX1768ZcXfiUC2J89/53YjyFMeJSiSyYKRmKNK6Lo4o0tqvjiSTSep2NjPuYI5EdCfmQjizwiR5FFGA0nlYRVLpbcTBgxR+ViTO74Y4//Tn55ZJgPGYVUeGmCZ8MigsmjiQ3saSWYkh55WaSYSeb5EY5D8lcKDhhFMEILhRp66KEjKIBREcNEKCGFF1nokTy61PACopnWcIQbtKDDX59LEhnknh6FaieRMc5Y6ohG+rlYnRHdyaeroiK5KphN5jrmq7qS+WRwUm7EJT+3WnlesS/FlOVFW0o4q5674iktqdSaauSZamrL1AuC3GMsPqscAUEBDLRHJ6sQnSrrqPel+9C6EDH5CxgObptUBmNwI1eVkR6WGKWs9JWmA1P00g68taJqLESxyttuq3mq6q61EVdM8a8uxfsQtLhmPO3H1YZ87bvARXnRlB/tw++x/4u9446IIC273E1cvvuQwxxDrK7C7DKM8804Znsv0QJ8AMY1+CBHjiVOUMBAFXPyamuZIzccdM8P82eOJRwsWrQCRWCSbL+FSQpwRPLAYoG9aebhTMI395NzPx3zLLGMGPeqcdY6/zw31nLTbXfcF19teD8b171zPyYLN6xE6OBCySOpePNoyxDJo40mfOhBSTNKozSzljU/yzjQiCtOeOpW322md0XfqwAPt7hT4z3l3EKHDFUkA2vghg+O+uor5qPNIi8MfC8PlJhDNqRm/3uh5qu0naYQrxTu+uHcJ9734i9O3P3eIJcv8vkkIw646uCzzr73xTPsuLDE6ZMOJ/9c6GCDE4Q0c3vmHvKOZhACCCH4AA/oQI0IYYlmzTnO+4b3M/kBr33dQZPstEUBKRzjHS9ZRznk0ZF1HGMRh7hGBePnPsZJsGp7k4c3ZEEINpihhma4wnou8gAa2NAMZVDDIXYhDtFZyV+Tigg+kKGGM/SwiWaQwoBewIntpc9jVXzdx8bXuitSkWrosuD6WugrLm7Ri3wrGZQeRxx3FIMHUSqAB/6wDMxZSR7NCIQH2raBS5BjdMop3QONE8HgeQ9+ZBRa7DKYpgPYQBDpUAs7whEObjTjFZj4hTmUJg9xOIMdKTzkChkmxjNKax/tuEYyiqHKYoSiDBjZABdWqUr/ZGjDg5kzItokko5jyLKXqmwaRlBgiS4u7JNmNN8xtWjIY9JKcIQk4zKLOUZmRkuFaAwWyiDXj3A0glkX4QAeqAE9CPKDGnn4QFIiUIZp+NGbzoIg6qLpMxdS04r1xOLQFBmeDJwBGQ9pxzAa0QhBcCEHKpCCKbxhj7+R757EnKdLRolMaQqGGn/ASAjoEECX4JJ6EjoGGII5zO85E4wfO8Ue7EnRiUJ0aittZhif6dAyvlR93KNfNonjjUN4UwAHUIEbqBEzCeGDGm5QwQHSeQZ2No50zTIdPP8mUZgWcqo2zac+v3MEUkSoGGwIQQg4QAEFJAACMMhDMADIGKta/4x7bMUiNPsRjTxg5ANz2OhJOnqsX3ABIynAxEO1ZsyathWabw2s3wbbUpYK9ovWjKlJuYjTjGgzHatAwfUEoIAWxMEZtjTOO5wRhxZ8DSMFCAElxNFOB9oMso+tKiGxmtWlhAAR1+BHSAQhgwJkNgEq4MIlrvEtxTaWlG6VKWE9Mte63hWvHmFHH1RwNo8eh69+BSxJXQvKkr7WsMhdLPpmSkHHbtdwk01ZP+RhDTSUoLcj0AMy1LoYdyBDDyhY3kUKMIIyeHa1gGwtbCM7U3kWF2SynS1NEsCFX8gDPa9wggOasoEi/OEYniSveEPpUvDaNK7LvYhdGbMObkyjxP8mPjGKp3EMNYxAUmOgrnGse5G/IjZ8xE3sNJPbUB1nN8DdHfBhe+xdAev4vGVAR07kUYwylAC/AijABviQjM/mRR7I4MMGeouCMTgqcn98aiCLM0gic1ilZcZnIvNLARTEAAYoyICTtbVZUpgjvdcoQwjAk4AQ9AGFGObxeCGyjUFvoxqEPvShs4HoRWdD0YtO9DYY82GjNVcwyFiEGjKt6U1zWg1lsEEEJKUGauy1rzPGbqMfDWlVE9rQrN6Go1md6lfHmtWulvWrYV3rR+/60bdWda8RPWtc5/rXvM71sIGd60IjG9nBhvRv0ogRC5yBHfooFrabEQcOLOUCnR3/p6z4EY059PQiG4hDM7BdLH2w4wzuhOpJlF3sZtP62YS2d6vpXYln8DobF6RJASgwBDo8QhJ8UMIHMqumEMRBHOUxhyRSoHClKEAJ/nyIqo3NaGfT+9B6y7Dc5EpXEFc6L6lQQgYvQAhulPq6NR7zj3lMYBwbd8gxP/OOcS5kIH+3wC+RdrPElopVpKLoRM9DnJRSABSoIUQuuYcz1IBZ8eRh6EW3uibGxdrTSbXnNI8oj2xRAUUgrK353GwgeuGNdKhDHCXkwcS/YwEpFOMd/FiHLoYQ6vAwgApSAzuZff5xQGt4MZMO8WJW4QTZJaAFu7hwlWQsABrvXOZBDjTg/28ueDNvHq48D/zXw0v4a57MpxzoQRFSr3ol4ACdS/HtGvrrkdCuQQVx/mYOlKB61feAA0n9L9dvbOMc63zmNubHDAiggUnUA81oUoAKENEMa6PEHdNQT4TVVAAdOCIq+2gGHtiWJqj9XfQ6xzznQ9/hAYucuYxJxeKL1oI/pAPAgpE85dFfzfL6mP829//naZ76pd/w1ZxDTVYGndYhaINU7IM2HMII/J4+vZMgxdPlFd6GNVYrAAAANAAIZILSIBKaeAAYRAMdpRc1yMHUpYkIuEEzPATXJN34RY3wsY7+5VznvVw8tR/JMcYrXIEFBGEQUgC5mBYEUIAQWkALaP+BJGjDUEWeqU0edt3g4J0fBmYeAFqe1xUgFoKcdnnhTQGdPiUAD/QCEfUDPvQCD9xe0VCgmFngFsJcr+zDCXAgATTACpwCPWBL7OAAJsyDS7RDLfAABn2HAkzBKjTYPeCCFsTdUpBfDRLPFRKgDU7iSRxeybkENZhCInRiJwrCGuydAEzAGgiCJybCJeyCNwQQ/mHXFiwBE8SiLDLBIHxdK8xiLBpBLNaiqNwiLsriIKyLLzIBLM4iL1ZhDlZe8V0gd2XhMsYh4yBgAoaAK8iXO7hCCDjivbihR1SCIXwjOBrCINhCXkiDIexBOIIjOXKhOYbjIAzCN64jqjxDOob/IznGSjuKYzhuAQJwIAAQwAKwQCv8mwI8wS88YdpQAxdsQJp8QCOoFj+Qgx3kmbZA4p9Z4bsw4/rwIKUxhj7IwzuEZEiiQy94AEb9AjqI5Dvcg/0VRys+xApggEzOpExiwdcxQgXQJAbkJAbYpKjgpE7OJBasC1DupE76JDIOoOdpIehxofklIxXioFLq4PyIoSIlgA6YIYaoIRsSDTdGBBk0gViOZRMsASTkBS8wgS7+4llyYVrO4hIUY1uiylv+IhOcZazUZTHG4g74ox0CABL8GwRcwTEgJETcgzeMget9RwGgwTEoTT5cQg+U1gyW3/6BIRdpZCFxJOJVyTsk/wNFCkAITJlzRcRLKmMyGl8lNiNmBqAzpqZm/l9rFplVys5pEQIDgoQ2EEI2ztZXsubofSFFLUE/AoABAAARAAMfIoUCOMEvnCFIsAMmUMFiLoUD2MAroEM/vMMyXAG3bYtFZuBUouZUxib7YeKxuMMxhGYIdFBpQsRpRiVNYaRw0mf/zeYzNqUc4mcOTtYBfADq7V4RKEEOVCdN/JQaNAOVCVAz1B4bckDuCWgR8MAHSGBNwNsbdp1+wmGuKAMH9mNy9li2OIAUDINhckw+XIMoqAEOiF9SFEAK/IE36MM9aEMgmIA2PiINXiRUWqJUOuX6yRxnZqJxqCd7uud79v/DMITURQgTVUbiBPloUgJpYbkmf46nakoicNqnZIkhBBSBJVydmCLdUhSACaBBM5xoP0Cd1E1cDeCBmF4dJmgd8EUVlNITU/6KFXBgEAADqCxnAtBAHlwDy4SbechDNEgCFEUAb0UAB3xACmSBMzRYOrwCDRSimoRnFwbncW0oQ6GnlRgpRiGpS1ifKZwqqqaqqp5qIACBy5EnlU7patZnj25prdLqeMpnlkYp6dGEBZSBtakbPzjDHHxnUnibM4CbvAxrHFzAUpxbuqkbu7nb1tkpj+aqlP6ojTwDAAQBL1zVUahAIExDeZzEPuCDeeCWO2jIEVgABSgBG/CBI+z/wrfcwzCUQY4yhaY+JbZmJDR+6sh1ZKiu56guqEeIAyfkgMIuLMM2rMK2gLNehAx4wpNea6xWrHheLKzuJ6fKZsda6cfSJjZlxJHlBD4cQxnc14tuAHwZ7Ed8Jpb1VgmUQTE8yj6gw5ddaJgxBsdyKcjOEyN8K1UlwxS0gPTZUjqkAwNpwysswiqIg4jswybhQiMswjFYgzeIwzoUyzUcgnQVzb5eZsiCF0F0xVcMhaQFbGdKiKheRHu6LERwwyEoEhXgwkOc7UGYLd7u7UDoLd/urd/+7dkGruB6BeEWLkFE28iil3qpgcQlRQKMQB4cQ9kxBn3pwQg42dLxly01/1Cd6gTeHi7i+oTo/gRERIMdBMIyeBBiasIiYAIrvMIn/AEV2IASEIIQQcSIaYMIecS9diV4hCdXjO5QlIV0QEZ97IZ1lEahugSoVknbiiapnoQ3JEIGMcAisNz3wEfyrsXxhsV2yMfytkb3fgb3XsZ8IO9ljMX5jsb4Psf6fu/KxIdYpC/40u9ktO9qvG9vNG90Lm5lsQIKWKhmuYALwq1LhNZoUeaToVYfNVXO/iZKwG906O9s8C99xK8FKy9EmMMtTMPtyMM1SIISwIAOKIET8AAKZF8LhIEmRMM6DJdLFIMaPIDshOdrbHB1bLCsaulGPi/bEqzbTu9HcIP1Ev8N9OFBM0SIrppnnr4mljpxfgqgxu4qnuLceWnTTvXUAaSAG0yDmgpGhhwVAUcAGjCV54JZSz7xlVaxZp6redzDNTzCC2BqUiiADLDBLpADdEaEODyCVYDtjmbsrHYqFb/PkKanEEsvAvcDOZiCE0SyJDuBCSxPCgzBJFOBGTTC/yzlFEMxFwrDKVCiD9/n2MLmv94p8fWnGKIXN/UUB9jBNCgrz5YTHhjrdPmXGgefxRayx9ontvUDNSACaYVHAliADFzCKrqEPNxC/BFN2JIyrwpPKhue2hJpcUTv2wrGO1DDK6zCN4fzFFgARmiBI4TzKtwCMkRFlbLxKX+dMkn/MSp7qioboDv7rMiWHnq1Qxu9URzNUQDJwzIEQsK9kiU8cBrr7Bp/chv37K1GxB3ZgB0zRQEoQB8w1Xn8ghbc8CBvKj7jnDxjaSIP7JE2cl7QwWIGgjUwRhNX80PEs0t79EP/8kz/bE3nsxq1hD6ggyZwgQ3UwO128kYNkCD0wAdwgA4oEAM5lULzMiGXMk33K0TgQzP8QQ4wcHiwgWVCRD70QhVw9Fb38DQbMigjMhAfhzYTsXHMwWLqAUavchTHNEzTcy9DtU1LtSl/NCsDMHE0DjrcgiQsQkKdYMuIMCbggR2ADhEltATn9U0zNKfKAzX0QQwAL1NoQS+oaTuU/wIPgHU9M1Z5xrTz6kFdaZSVvMMib7OVsDVG8MFb2zNk6zU854222vU9P/Y8HzKH6nZV8jWX0GiScgw/tEM71ApjYyjP7nZZKzcY7maDFI0NaEI6jFOxWMMfMKQgh3Vtj3VmivYlXvOxoHZJH8u2YYQewBhVRbXGYt5c8/Znp/ddr3e2ziduT2UW9/WyBnfdqJuyRDBydwlzv7MbE1IzZEH2EY0DgAEulKu8tAMnHEG+6mtH86t8+ytdn8c7eAMrMGlGcEEziEODFYc+qEMzYAJ2C8AGaIIzqIP/nscmNYMWMAsYvMLlMExLXziM0DZ947V6+3J8+/ht8/gBtrI26f+3hBz3zgK4hrp3XY/1MkzBRKvJftUCOYiQPrQDN3ACFZw4NE+42Mr2xYZ0rOYDOzTDIkyBSebXCFyBJFDDO9gfP9wDOciCG9RAaSlADcQBLZCDDCPHO1zfFfSm207BIjRDO+QDbOf2couPjlsxXA84jlM4kMd2fV/sfS+0kcuMfye5rQp5kFc47ES5lGvBIrhCL+xCKQSCEuByl2v3joM6WTf0zpCDJwyBBzjA9RSAA2zAFaTCOogxsdbAWN0xBdTAHKSpYKxDKlzBBuA6wDmABwyBJzwwfH/6pBdYey/6ewcppXt6t8N6l/p2cYRENCxDNOA3SJhDuZ/7QiM5psf/daR/+UMf2OyUgBJogRYMQQZE+HdEs1hfsc/pg8DrAzgMvMEPPD7EAz4c/MHXQz0wvMEnfB/3gzUsQg4wqoQpgSSw80fwMxeogKgzgAqAAeWa6zo0ghJw+YtGgA00gp95hMNDPMIrvMwPfMHXvMTXvD7EPM7T/MAXwhIc/M3LfM7XPM8Tvc/X/NBDfNHL/NEzfdLL/NIzfNND/NNTfdRD/NQffNUz/NVzvcIrrj4XeV7cwzmIwhyEwRyIwjkYptmXQtqvfdszhrvnBdQvvM5vfcRnfcM/fM/jvdLrfNf3/b8hmOGHp9QLPt8b/NfvPeALvMM7/DdEPuVHPj3EAz1U/37l00Pma77lY/5HkAMldPazOwB+vWsotAOQyEMyrEGW0YQCQABlFgAHaDUdDbcoHIEoCkACOICz00TznMNHcL7nf37nF389TD7yX/7xez7xLz/mUz4wgELlK3/xMz/y18PzX3/0Z7/1O3/3X3/zaz72e3/2l7/4n3/4F//3k//6k//4bz7oA8vYo/tJkMMlKIoCKMAIWAJAiOs3kCC5SyMUJBxxiRxBhw/3nSuTQUBFARDAsNv30GE9jx/r0YtHD2RJj99MghRJMqVHeixbrmz5EeVMmTbpEVxWhYFFnz+BBhU6lGhFBlWWEWxZM+bImSFhprz50eE4jg75xeN3lf+gPXtcB2bdSpDfvlpVfFqIoQSMFiUvHFjMMMWZvIfcGm0oUDHBBx5XwFzRwUFBxQIbGnl7KM/ZFIoVHazVAkYJDAs+q9zaN3agV7D9xH7uZxVsaLCeS2sVTZqraa6oW6v+zPqq66uwa8sGS5ujbY64e+vmyvuh74fAiwuHyC4MBJ8Xxpjb+DnfMScJLDpwUuyew3vHpMTlq+SYPtERJ/rEqFF0cs7DPxt3iByrco7E67///XXgzp5FAQxQQIuOSmq2+Oybj7/Y9KsKwQYVfNChfdqJIwSLIDgikWXUOacYQmwQT4ANHBGHM7OesCgBFMZ4RZt0uHkFjBIOsEgKzcj/CseRDbLDgZBizlFnmUSKEDGEONqZrrMFc4PQwdScXFLCA6H8jD6yEnySQSuZDC7KgfDD8ssrw8qSoDDLHLNL98DahznnLIJOOtHwuWWEvSo6QAVZ3nHonVpaqNGwEG6x6zP0HqtoPSXbA81MMKd8bc38Vov0tgWb0eKBATntFKgHtGim0ipPm1TM3Szdz1J5jlECTwGukKUdfPbZRx5zbgkRsimW4WydQz6wqIU8ynnnnn3ueYcbOlKw6INE2CErmfAgswEXc+SpFZ92XqHCogLI664rU9McdctSU70v3QhJRbXdS9fVskku4z2z3n7IdDRKN5t7LjpGr5KHlgxe/y0ghFXacagdVkQo2AJZDG1TokQvyghg0eST10t6370KTX057oeaOCLw1OROI3CDGnPnRbdjjdl0+dyB3LnEhjxL4OSch/Qxh5AX8lQBFncImmYN7ARQIIxh8uGMn3t+AaMwARJgYxqC3IEFBUFfIMQc8xwyh5M7K7LBEqLHvXe0e/PN2N6X2Z0ZPrjTpvttuVW1G1K92zaTXzgruqAMdJrmx/DDEbeHFr0sOmAEVhImiFsav82AFnkQz9zwfdBJD0OLGz2VSryPIxfk0VuWlKBzSvng1ZNhF6qAD0Qxh+WNZU5dXb5Nt40dPZoVwAEqkLlYnmKOwNMBTNAhqBctLP8KYZF1rlonEREs0qKX1S0R7wDy8OFoH2SoFUAFPqKtm/SHPnYb394fXZt3tdt/tO8v5V9ffd09Zhv+fd/kL3Icq1YFNKCtYMG4PD0ucgOZnKAEUIAMvOIdB7TgPczhOUWBLnSnc5f+pKS3/PGvdATBhzbiUILYrTAoJYiDNkw3Qtypzm71U5Ol1oGGCwmAAna4xlX2YQ4tTE0AjRDIQGAhBYvYIBRgEUUNLDIFWRBEHI0gkBbQcbF+WGMOFKhICNRAvf3NcG4gfB/9/IfG+YnQhiEjIfvSaLe/+UQBMnBDHvKABz3ucY95sEMWRCQAx0FOYa+gHIGuYIc88pGPeHT/gwz+s0H2dNB9MowZDc1oSUrJjB+s6kMRQuCAB4ySlKU05SlRmUpVPsABIShCH46BudtdEl41jKPc1lEGD1SEAnn4ofjSwQURNSIcBHlFiiqCg1BAiB+hwIGNXkEQbywiO1xYhxavgQcvCiAEZRBjCDPZxtyRsX9rDOct3wizTWIynXdr5xnlGMBvQQAFKbDnPfFpTxRw4HWDbGA/HuiT2dUznwVFAQRet6gOerCM77zfLNdZy7DcwxmcyMMZzJBRjW6Uox316EdBaoYz4IETzrgH/jQpOnaSU50qlaju1jEHFChKC864Cj6a4QQ8KYASthsILq5gkRI8ImJ+asQI/yxyhV0URBKCKsATTHqVTE2gIiagwzfheU5zvjOl5RonLctpxoeijqVx46o4VwrWCbEDDIBbYQFEQEjJsYJsLBQeGK650Eqi9aVlbalX09oPfLAjHecw7GERm1jFLpaxjT1HOtgRw78yNG8g5GtldecOScggTygoRTo40o5E0MAwInhFA5txBos8oAzHuMoxzBBJNNjUgQzDkwwS8c+BpKMUJhCUDCSBNnCeFZ1+dadxs0rcrSK3q5QtIRuLq1aCuKmtdo3gwf65sIZZ1wF41SJ0lyvdybqPPpuz4HnRm171ntdwHbzscy0b3YjK4xfJ4wsYYNG8geiDHLAowmWE5/+E8hAEHYTggEVk0Adq4GMr/MDHNP7A2YpwgBCgHcg9iqEEOFmgCLIgB9j6gQ4ZIe0AR/hFUcf6QYf+zyHCOAUcwxvRsK5YjWJlMVnFO1zj7sMdZSiZXQtQAlj0iSDvkIUJXhe7CITBHd/Vqo1rTOOFTpnKVT5ujpNr3PealYxBVEOwJswFTzTjGtY4hiauIJ4CUFgxBNHHK45gEQXUIBC9mMY1ptGLQNSAiEdwBYj74Q1BKNABWtDEMaxxjWZ8ggsHrsgH1DCnMWK5ueS98UAMwQQYQxm8nH6ylD+N3BT35h6JgKJdHVAFZABaH8moQiBjh9uT6jV+W560jHfnaSv/75rXDRX1pQcSD2HHoxvDNvaxkZ1sZR+bI6FQAgThqgU8zGEKKsxODpJBZIJYgxCBTAAP0IAHNPAAaYoixC+LjAwcBLIEU5gDHrRQV0EqoRQcWfa9k11sfO+b38cexBKOre9+D5zgwhZ4wRGO74MnnOHIXnjD910afhzDDi8ot8kOcwRPkOM9/CDHJ47Az9gl4AV2OEZ7udLwh0Nc5SwXdq9hXmVlr9zl+zYgONSrj3joQ71eyfnOOWKOQ8x0nhSggAMgKIAaWIId+vlOmukYAQpEgIgXyQIywoeVdVDi1HlygNER6hMUJGJnpfs5z9WL8/TqHO3o9fnad27AQjDh/4BqRy/be26Ps6/X7ufFe3rffve4p33vgNc73NuO3r5b8O9uP7zgAX2VdwxDEFmoAhUwn3nNb57zV1gDJ8whLu+IbQ1X4PzpUV+FLAhiGNrmit8Hn97FH7Dx5w087BN/3tkbsPYWzFfMgQ8R3Rfe8cSv1XjtB+yB4MMZgkhB0oOCg0SIIx+9WccuruDooXDgCr1YR4P0IY5EPJMoB0gBIaIKX+XqmoyZ3jSo1w9/5tpax5Smf5YpPRB5hMMb/ff//wEwAPvPwj4jHQTwAA8wHIqK1vDn/kZtxn4tyiKw0+QvxxxQ+QbiHZwhEY7gA6Avgj5AChphZV6vHW5hDWzArf8wxAbW4BaSBCyooRGkwHWA4gA+QAkSoS76yv7ky6XcD/luiAInMNSw7AFzrQJxrTb2IR+YsAmd8AmhMB+O7zyWMAqtEAo3w8r2qgcBy9eKEAPfbwjjTwy1jAud68LMQRTW4AhoYAQ+4ANQQAaOwA1e4YhKYx+O4RC0AAdUIAQ+IARUQAey4BCOoWlEQxxewQ2OQAZQ4A1HgAaOYA1CIfQCy6Ug8Ast5QevLAlvzRKPkAx5MMY8MQwxUYSC7xRRsQsvkRPrjxX3hv1CERZdsdKSr14uUG3MoRcagQ3CYAzmQBKGYR0i7zPcgRpKgQ/OIAzOoA9SgRqEqz30YR2CwRH/4mAMwoANGqEXfOqrZvEW30UTXxEJRxEI3Wj+zHALRVEVU3Ed1xEdZXEcNxEe8a8bz7HW6jFKvDGTbKUd1qEf18EdsgWlpitZ2GEd1GEd2MFYnKw3bMUd/HEd2iFbRMMISdEVRw0caTEIidAiwZAcuVEeM7Ic848dSVIL7TEdz9AjK1EdK1IeKVIld5AV85GrSrIm1c8cUdI2MHImcfIdWRImMasnxfEnbbIoGRCiXLIj45Eo5xEkeTIWhzIlQ/IjmdIoi/Ill1Iqm7ILXawlmRIrwxEU6TEnT9IntdIq0XIjk1ICS1Etv1Ipw7It2+kpZzEtSRIsp3Ilz5IunfIe/5HyLdmSI9XGLglzL/0SxwRTCOVSKMUSHvmyKgszFfHyMQ2TLBvwMFWsMauSMispMtPSHaMSNDWzMs1SNBfTAjHTCxPTLbVyMlNzFddSMVdzDE9zLEszfjwTLU1zNhmzNvvSMv+yNZWSM8syNItzNHczNlnT0gJTOWmTN6ESOXEzN40yOQFTNp2zN6HTNo1TP7bhO7ehGsBzPMczG8jzPLPBPM+zPNeTPMWzPb9TPeEzPeEzPuvzO99zPu+TPutTPuEzP9vTP9eTP/XzPgF0QPdTQNHzPsNzPxPUQQ0UQudTQcmTQt1TQgPUQsFTQ8HzQBe0Pyk0G4TBPiO0Px/URP9LtEAnFEPb00Mr9ERV9D9ZFD05dBtqtEFRdEVzFDyB8iaj0zc38zU/EUhJszuDkzmx8zqXsxaTVDiv4hS+oEil8zKBEzGz80e38zdvEx+F1CudtEmRdEk18jmvlDun9EiZVExF0kxPUx9WAACqYR+Ok0it80vVlCqllE7nNEuJkjipdEvRdEy1s0y11EitVEnJFFEHVVGx9EpHAQEWwAvqNEwT1U4rlVIX1VIzFVNRs0ozU0//1FA/lU/zlFQnNU0vFVU3VVUbVVH14QQIAAAIoBr2lFCD1FNV01ZLVVdPVVA7FVAPVVNbVVjZ1FSFoyt7lMuGlVOLlVdrlVGbVVH/QQEBAAAAGuALnpVYC/VMg5VZtxVUA3VNHbNLk7UTbxVYR9VZ32MnyTUrvfVcRTVXofVbZ/NVY7VaCeAZQpVb03Ve4ZVf5VVb/xVcA/Zdd9VfD1ZgE9ZgdVLTyrUV6VVdwxVPe1VcB3Y2p7Vaq/Va95Vg+1VhK5Zis5VhR5ZVZbJd49JYO1ZlJ1YvG9ZLSXZlJbZbTTZiETZkMQkfYBUAEMAA8DUbWjYmbRZkS9ZXo5VoZfZmzcRPgzYol7VmL3ZmMc1h3RVqF9ZqcVZoo1Zpk9ZOQaFaNaAQGGEGYjUNvoRpadZohzZmm9ZHj5ZtCxZri9Zir1ZttxZpHYJdcRU2/7m2bZX1beW2a5EUH1ZAAyaBHtxvFljAAID2Y+HWcQPXb821buk2a532ZPd2SFk2bSt3bkV2Xak2ZaU2bu2Wcj9XciH2bpE0FyqhHqbWUWxhEjj3dGfXZT3XdgU3cmtXaynL2Giu5gjud4G334R3ePeteI132P4t4JKX4ZC3efMNehHueaXXd6V3eYm3eoNXeweOernXe7UXfIf35ozP9x4P9/iufA/o9hgv9hRPfQ2IfWnPfYcP8fLO+Oau7uC3gOSX9+jXgnavgHpvfc+3fXMPgPe3VvpXgP9Xf+3X8BK4VgK4VgY4fgu4VvK3gsn3gYuPg9/Xg803gvdhgvdBg/8V+IL994AdGPLuF4QR2IUtuHwfditNF3dRl4Yt1219MHTzkndz+G/XVncht3R/+Nbcr4hTt4Z9+HaXOHeJmIkvd1wzF2aFmHQ714mvuMVebIZdc4q5GC57OIpV12SPGIp1eIyfGItpd4izeHfFWCrRlo3X2IrnmG/x1o3PWInfGIlx2IyBGI3XtIzV2Ibx+I/1OI/5uIvRVXNH144fl44JWY4jGZKb+IYVOV4duYoz2WgF2ZLBOI4peY/9eHITeThRNowReZSTuJSbs28LmZRVuY8HuZJfuRU7uZZl2ZNb+Y4lmZZ7WZS51IurNo11GUw1mZFd+ZdTeZaBuZjvNLD/TmEPDtmQWdmYiRmXLxlgqfialZmaYzmbPTaUl9mZU5WbxdmbmXmcsfmTTxmUN7mNuxmWg3mR37mOkZmXz1meyXlVzbmeJ9mffTmfV/mb2VmYRTeZBTqX19kW27mhDRqV0Xmfn7af7/mRAbqZF9qa4TmhwXlz43mg0zmiObqg6bmij3mbN/qi1fmjFZqlO7qRTZqiUdqeZ/qfYzqlb5qmvzhV9KGn9QEcfDqofRof4gEfhFqoPeKog5qojVqpfRqonVofmDqq9SGpo3qqqRqqnRqrndqqt7qoqfqnqZqrldqrlZqslVqrzxqso9qsjxqtj1qt35qtu7oexpqunVqu/4UaroParfcar9P6rpu6rgU7rPV6qQEbqe36qhNbqA97qBvbp/0asQc7rwu7rRf7qys7sBl7sxX7sqP6sXuaryU7s9fasx0btMvatOd6s0GCKaTCKXDiKaZiKWhbtmMiKkyitlMCtncbt6VCt0uCt03Ct4cbuHdbuFUCuIEBFErCuJdbuT/iJW5bummiumnbukMCuYsbu2fbJrj7ub07t8fbtsFbu6n7vJ+iHqB7usN7utH7va9bvb+7KbSbvcs7ufO7u+mbvPvbvO07u/N7pzVap4cZp2s6oPW2pBMco12apDE5p226wVd6pHfZoiU8oFVapDdcnzP6mTU8wx28H/8WPMIpnMMtvMAnnMBBfMQ7HKQlGnBlmsXn0qEZnMb5eaNLXJtFvMJfvKVTvMV9vMdR/MdfGqGNHMJ5/MAN/KDxOckvvIp3PJyhXMVD/MQ9/MGvAhykYZqzPMjLGcFxfKLFHKK/vMqFvMiJ/Mun3KPBPMeb3Mxh/MPzVtOqOc3PfM3nXMut3MXHXMbL3MkxHMv3nMR52J31HMjRPMzjnC5vmc/xvNAXHc5XnMkrHdEJXdET/cjxuc1hOtM5fdD/PIg52c4JOspn3NKvfNQB2cAxndW9XNI3Hdg8HclnHdUDXc41HdQn5dHfnMwb3cZNHNbd5tVV3c95HdfnuNaf/Nb/+3zIk/3Z/9bXJx3YK13QT5rYT92WHtrYsT3Vv32jkfXYoV3bQzrPoz3S55HanV3dQz3byV3N073Gu13Yl9zcY5zUc93bdf3dSz3Wdx3f6ZzSVz3ez9x6uZffxFd6Fx56G755Hz55I954J354Kx54L17ZsFfhE57jO17hPh7kQ37ZMh7hNpiFIRiGTx59Ux7lZS+CF5iCG3jlDbiFXf6Dbz6EVb6ASNiE9yHmS3jmeR7mUZiBVZjm5/foT1iEe17ofx6FM9jpR5jomZ7qd16CrT7nX1jrY/jqp/7qgb73BB7SGf3a+13Jqbzdy77gwz3YYyyaAd7f993e037ey7De//H+xg1e1u3e2tn+7JXd7Pl98Onezasd0F298D997H8d8QVf8W297x3/7wk/74d97wMe87Gy8vW+7R/f8u9d89He8NWe4JGd8Q9f392+8wGf21mf8y/f8ykf8ptd8lX/81+f9kVd9AN/9oUZ9kNf9k+f96Ud3VG/9P1++IW/3Inf3Ud/8Zt/7Ycf+Ov++G2fK7c4+k2f+Zdf3q3/+7U/+bm/9Z2/96df9+G9+40//COK2Xdf/fke/OE/8+df7lc/9slf+sff2Kmf9AGin0CB4wYaHMgvHr+DB+3ZY2gw4UKIAwtS7CfxYj+HGjMONMTkoEWKHilyvFiS4kiIKRmeJP+pUGO/lQxbNnyIMqZGmgdtGnzJUudFnhGFQgRa0yhEogiV3uzoVCTUiSZxwqSqcqpGpD2jGmQq0OdArkWxLtV6kWxTs1/RVnWbNSfbn1aDzm0rd2vdpHcrwnW5tytWkFLzpg1cViZYjF4Fqg3bmODfp4aHTqZ7Ge9VvZn9Vj6KeK3izhtDQ+4r+TNg0jNJP2aMurVqypvj1n47u/Bt0KwXi3VsGvbo3GODpySs2S5n4p53r2ae2jlt5TtdG48sWzpmhuCkCa8O/fXv6NRxa0/Od/n55uV5Q8/e/rnzbfS3VauPH3+2/Pyz7eevH4D53Scgff8V6F+BBipIH4EIMpj/oIIHFuiggBMCGOGD+N0RxIAQQnhhfwza96GEIeZ3oocSgliighViyOKKDL4oookAcrjgjC1amGJ9PdZHI4oxaujijhj+uA2SJMqIIJJKBhmgjUzWh55g6sXHkG+RiYedlqhxGZuXV6b3UUhVJnZYb6zJxGabbr4J3nqlqRkeYoSNBx+Z5mGpG5/F0SknmMMFel2Y1nUmZprvJbqnnrb5CRygkM75GXLsOSrfpHlaCWennn76JqPuybkpmo0KdGeXhy66KqmiZopplq1q+up0sV7K6ammPnrrn6zWKWmvkVZqJq67wporr8mCymyzn9a6nauzlvmdZcD+Smiwy9q6/22fwlIq7bXrQetruNliO6mgcaZbqEGWkvetutaS6my99hormqLmsgtRqoaKS+u03Z6Zr64FK3sstwl7O/Cw4wq8MMGnjdkwvBXLi/DByO4qzCkMR+xwwO/dS3Kz5Ib8bakaK+zvoPyiG2+768asLcjginzuwwCnfPLNPEO88sdBl4vzy/umXHLSnvaM8Vk7oxoSnkzLPK/RRdMM88VUZzyxvpBOXfPQKFesctcGm811taNerXXYaN/Lzz3rkKMNNc0c88suuuCiyy7BHNMMNdqQs849sZkM9NuyPt1PyzO3nbXNTS+eM9uSb+105cKCHbnYPpPN+dGQi36522qDuv/PO+ZQE8wrnDwiiB1sjAGGFllUMYUUU1SRhRZgjLGGHYI8wskrwVBjzjv7kBy65Z6T5XjVWJP+POaUW/0z456XfbrCYjefveagJ9690IpH6/z5RIevKUrykDPNL6kskkcYT+DQQggUKCBA//7/7z8FUCAELcDBE8KQh0Wk4hfTIIc8Duey6aWvfOsTyCn2QEF8qW9sNuPeeCZnvgx+roPgG5/2NlhCEpJPaitU1QlF6MEtWS+EeKrJPdghjmNwYg5OaEECAAjEIArRfwlogRPmwIljiIMdhgNVCrf3xA1arHSdkyIIJSbCK2owizPE4ge7GMMvgXGK1TPdF80oQzT/ilGNndqHN0JRhhdE4AAFGKId7+i/AhwgAi8oQyi8sbxntfBf4lPhC1l4SBcWEoqDjODo4hOPSMajG5KspCUviclMahKTlNykJz8Jykh2MpSkLKUoTYnKUI4ylazkJCjfxI9mOEILMfgAA+qIx1zesQAM+EAMtNCIZkBQIJJcZSuPeUpkKnOSy1SmMZuJymdCs5TSnKYqrRnKfWhzH+DYpje3qY946OOb33QIOb0ZznGec5vdXOc+0unOfZjTnfCMZzvXWc91zhOf4ownN+OZz3Pu85wBPec9CdpPdw6UnAUl50EZKs423UMcpRgDDjKgSyAWYKMbzSgAM2CDMYgi/xz3aBM7AZpQfdoDpep050O/2VBvLhSmKV3nS9FZU3LOFKcttSlL47lTcObUoT9V6ErpOdRv3lSoPdXpUfnZVKIiNaoyfSpCm+rFNFaRi2z0Gvsk+NVHhrWD/ZCHMxwhhAjsMgEZMAENcjAEJTyBClfQAhfuqoUrUOEJShhCDmhgggwkAJdDjMAQGuEMeYSqkY+jIvWsOMYwUsyQi5SiZL1qwspmMIow5CwiNftZ7CWrYzTU6mNheI9oCEIFQywABT6gAhsUQQtzIAQlQgGLXQwDGc2IxjSi0QxkFGMXsAgFJQgxBy0UwQYq+AAFDjDEFAgiGiVtk2cVKVrKZpeRif8k5HYte13vgrVh4XWkYyd4xq2mdzfvuuzZOtsZfvADHX0IgRA3uoEjxMESv/BGO/YxzIi0wxu/sEQcjsCBjgYxBHxAh3zZVN7GllG9pkVvhcc64dOu18JrZE6EpSfWzH4Xvt11V7HICNmusoQflOgB/wBYABFc4RC3oIY41OEOfAA4wAjZBz7coQ5xUOMWibjCCAhLRB5Q4sHmzTCHJ8td0GJ3vNqlcpRHHForo5CxID4vhlNM4Q6z98TuXduXM3gPb2TBAgBkQAvKgIlgaIMd+uBxm/ihD3ZoIxiXOEMLGABAC2SBG9WVMJg1fGERa5nEUhZviKv86Csv+jcfTtv/hs98aUVHGm3trXTmINUOWcjgo0pARDHUoQ+lQUQf6ijGIZSwAQDSABbtgDCXLZ3ofnSH0Vie8qZ5PWlfe1nTwwaZp68XbEcXW9K/Pg6Zj13avqCDECb4XwGUwIlzqJpN5uCEEpCMAkGgw9YlNjRXGRI9XIv5yZiF9LLBe+tPJ7vLTsZ0rpn9bmA32yidjjeyG0YON9jXfw54xLi3zaZ0SMIB//uAG8hB7kY3+dAm1ne+s7xvZdeb2Bt3d8e/5+9oQxne5aY3xR3V75Kr+yIBH3j/DhCHZiCcTc2IA3T99wE2QHzi50b0uqmF8YsL++Mkl7i5M+3xk5M35Fn9OceV/570nrcn5UY3eQZbbu0XxKEXypv5QVLXizi8AMkO3/nR71307KZb3hnnOdLxTXSLxz3oc1eKPu6uD3Dgfe94x0c88MF3vtejHoHfu98BX3i86z3x+jg84/Ux+Mc7/vGLT/zkEx95xl8+8ZUv/OYDn3nL/33vhVgC3zsf+M8LnvCaHz3lJf93lgsciCkAAyaOYQ58eB0f5jgGJsCQAiQLwAM6v4jiYY94zLNe9MnnPPIfH3rSm171p38+46OfetczHvV8pz7esd997Tu/9c0H/fI9L/7Cc9/w6V+99bf//sKDn/3lH/zgv2H//NufHvGgh/71Tw/+93/7138DmH/4Z/+A9cB/AmiAAZiACliAD4iADRiBDciAA7iAD1gPE4iBFYiBF/h/GWh/wAAK+seBIeiBIQiCAJiC/3eCLEgPsudy/+MAL4AGmDAM13AO71Bn9oJn73AO1xAMmKAGL8BwQER8ZscQ9veC+SeCFviAT2iATUiAK+iEVjgISwCBVniAUdiCV+iFXMiEYRiFYriFGkiFgyeFKkiGEtiGUJiAa+iCb/iBdFgPTTdycgd1cLeHaTdvZ+d0UfcbWDdEF9ADceAJySAO6/AO8oAP97BjTNYT8sUP72QP8vAO6yAOyeAJcdADF2BHSRhxvaZxULd2/yZ0pSh19haIfLiKT/eKxsb/dFv0dn7YdoCYh3TXh3p4dbPXWgxAARwQA1LgBotgCsFgDefgDvLQgzWhD/LgDudgDcNgCosQB1MQAxxAAbcUisXndmjHi0h3iiLXbq5Yi+EIjroYi+aYjo0BbXhYjraYit/YivJYd6o4iL6IRwlgASMQAzgwBFPABWhAB4FwCIvgCJKgkI6wCIfwB3SgBlwwBUOAAzGAAhbwQ7kkivSYi0NnilHjketoj7uojudYku2IjyhpdSYZkiyZkvWIjjB5kjLZko1BiB71cg6QASGgAjFQAzaAAzmAAzZQAzGgAiGQAQ5wczg5fN6Ii/EYk5N1QVEJlTPZkS95lRxZlTVJ/5N98Y60qJJP+V5WuZVYWZZaCRE3KQAQ8AIxEGtMCZcAtAEx8AIQ8D8bKZZmBosuiZZ6KYhhuZKAuXJnmZcbA3Iqx3bzWJjeM5IiSZVjyZUy+D8owAeJkAUjkJRLGZd4dAA6GQJXkAh+wFr+g5eB2ZV9aZiNyZeLiT6smJWsWUF/eZqDCZlmWZuoyZiP6ZfsOJumKZn+gwKp0A7icAt94AQz2D/C51HKGQJO0Ae3IA7usAopcJdO6ZuEeZ23CZscxJuvmZ27qZqCmZj3+J2pqZvmSZbaWZ65mZ7geZ4GoZYoYArwIDfekAyw0Ahu8AQ2EAIZuZkJEAI28ARssAiwkP8M3lA48pAK1Ema1kmb7tme6BmZ2PmgEmqbEDqh6lmh7OmOs4hijhmhHHqhFoqbrbmXNqmPAoACpfAOA6EPA7YMulAKjvAHbhAGVXAEPFCUKVACIhACPyoCJZACPqkDR1AFYeAGf+AIpaALy+ANdDYQ71AKDNo/pbmhJiqb3nmlsdmdFDqeJJmhGDqiIrqeWNqlGvqlIBqmJDoQpAWPaIqKYhOfLEoR9TkNw1ALpWAJjYAIgvAHfJAHgcoHfyAIiNAIllAKtTAM04CghXYQUkqlTamEW8qd4dmblDpCZyqmJcqllqqlabqaoCqecQqmY2qmnkqhVEeKnNoPc9qibYT/D+/gDu3gDu+gY54CqdU5qaJ6qbz6qaSqpqbaqe95qsQ6rCFarC1RSdWETZ7ErM2qSc8Kra40rZmUhZYkrdW6rPFQDbGwSb/ZPyv6qnBCieUqiW+Sqw26qwNRTNp6Te76SdkKr/LqrvSqrfZarfgKTd60VNoUU9sUVP6aVPxaVCpVsD41VUBlVRBFVQSbsEZ1sIXABEp1sE5VsVIVBD6QCzSVahThql6nEelapQ5qECf1sAZ7sggLVQp7sRSbshb7slK1shAbsy47syh7syp7VSxbsw6bszD7s2+6qduZqagKp+Sooar6h9bCCwAAADuQC3KaouIKshfxDqFQbTi3/wbmMIpLi6lksWvIeqxrSqZEq0UfGqpfC0ZfibajirRDW6ZjOxjP5qHZsQMAsAAEsAOz0IszaAKhMK5V+6imEKkh4AZcy6pFa6wcNI5Cy6ZxW6mLq7hiG7mUO7kdipjAmra+6qWaK5hKe4vzwgsE4LQIgABQi6IzWAJ0KrgMgQ+0kAP/UwLi1rWhq7b9ApLCWrlkm6y8K7eJe7Zl9rie26vE+6tvO7ycm7QsUAgeAy/gYAjRG72DIL3OexPQK73ZawinEBXYawh7kL0gYABOCwCmOwO2AK4CsAGc4A6tCxHNsAaEZQO/ELgHoQ7RC77a6x1mYwvaawiDQL37WxOt4P+/0ru/PNG/0ku9BrwaCSy9TJC7wBtZbCu8ZQu5l6u7GHzBwUvBHXxrpwDBGAQv0gDBJbwEJSzCN0HCJczCTLAHUbHCTGAELFwB4+u0BKABPgAMd6GWB8AFuOCo7tsP7pAMbsADOAAGpOAOgQQR5XDCM9zCO2w2jNDCTLAEJyzFNaEIVVzCUswTVGzCLJzFfwLGLIxBlsvBdevBmYu8Fmy8ndvGvZvBaczGjuvGmTO65GsAPwAM9NAXaikAI8AFouANQSy4++AOzXALtYB7brLGVXe7YXa8dizHEqxicPvGR0vJv2u2E6zGnywQPjC+BKDDfQtEHHAEglBj65APQiz/EPcwTotVx2BZvHHMyRvsybPctrW8ybvrlaAMycqLycKcvJk8zIvTtE+bxfmInAR3BH3ACs7gDengDk3kytYFzKvayZdczLbsy5YsyXC8y5NMy+Q8zuJczuh8zprsGT+wA7wAcCkaRB9wBHhgCsfgQPcAy9tkruUqxI+szbjMzXdszN3cyxq8zR6WzV5LzATtzQgt0KySDfAsLIAMRAcAARxQAjbgBGXwB5cgC8PgDNcgDuagDuzQDu+Q0obsdQDN0AXt0AdNx8EM05Wc0DpD0w890wEdyT5nzhU8EBY9RAkwQC0AV05ABVpQBmsQB3aQB3rw1IuAC/LAxC290Lbb/9A2HdE+rc5Afcs9HR/4ASU+MiQWMiJjnSNNYiQAgtZJUtYwoiNTciRrzR9t7SROctYfkr4HoACauVYRkAEc8AE/GgIjIANgcAvtMEzy4A29tQ4dyyZAQtf6gddxTSQ8MtlindkGUtlFItf90dkUstlJEtoCYtdvXSOefdlz/dkyncs57doDrdVg7Zoem6IWgAM8YAIOoJw4yQFcwA2tLBOpMwyNMAd6kArioHuyDNvpzM7rfMw6/do8ndVfXd3fTNsnysvOHd2xHc7P7dWtmqIq8AiwoAc6wAEQoAC9nUsKkALHoFgyIQ/RUAVslgAf4AnkEGAujdU1bd3+jd1bzf9u4P2V/K2YAl7bBH7VIKOWJpAK7IAO00AKdnAEH8Ded8QAMbAM8a0R6SAILYBLBaAFw7DfC06eNz3g3c3dBr3iMd3isy3dsv3fMf7dKg7dLH7j8Dm1pqA89oAO1lAMq3AIyQUEKmAB3HhHI2AH4lDVFGEOY/AB/8MDt9DkKJ7gNh7eEJ3dWdrVBn7i163lYL7TL03jXK3gzPGxA4HI3rAMu5AKx2UHZ8AFV+AERzAEPKADQZkDPOAEeIAMHK4R5KAFb9k/NiALVY7g2v3TXl6q4GzmWF7gJt7oVq7oXS7ppgycrAsRPrYO3uAMxYALrmAKnGAJlKCQkkAJrxANk5j/DtpgDeFA1fqwDsWgBGzmPy1ACeLwQPqADq6u3GzB6MHq6CmO41k+5v1d5l9z6ZsL4GHe7Md+4JSa5klTiewAC4EwB4vgDOkgDrjABh/gnwLgAE5ACdTQDuGQCn0wB45wDQ+U7Fde7MHO7O9e6Wfe3PLutt796PG+7Kk7mZpeMvzgDo6gAxQQARswBIHgBjgAAcrJACVABY/ABS1g8BxQBs3Q5Pi+3TkO488+3WSu78Tu4hq/6P2+8cb+8fE8g1SrNPJADUNglwJQABGgAiMQ80HEVtn4YgUQApigbSEP7y7O8TMO9PUO6SZPziRv6bqM8jIe4NI+tQBPMu5QDCWw/5kARAjaQO9cbu/U7fFO7+xbr6ksrvRdD/IvTvRo//TX3eCkUL/38g7LkAMvdvUU4AjiIPZGe/RMX/Z739xDv/bbCq/OOviEX/jReviIn/jU6knpOwJSfy/7gA5u4ENClAAcMAIhEAG97VpFsAvx3a6Lf0n6Cq2k36ymj02ob02qP02s30o+u7M0+7MyG/s4W/s6y7A8O/s2e/tA2/u0n/uy//u8z7AsFwczaAGScHDUrg/awAcxIEQ40AehcAlXgFFAlAFSoAvqMBEmu/sAu7Ac60/9+k4Dq00BW/4N6/3DD/4tC/vBb/vwj/viL/zyb1Duf/7hz1Pjj//yBBD29v8NJFhQXzx9Bff1Y9hvXEOIDfnF4xcxoj17FiFOrKix4UOP/TiG7IeR5EiSID2i9GgyJEuPKjXCtOhyJUWSDk/iDGlzJs+QMi3ShIiOkAkBSQUcUOIJXU6oK+VxE1VFaVIGNlJpS2du2pkRVwXU+ONsnT6LQiMShehzKNCYOzu2zPgSrka1G+9erHtzbly7f2v2/Sk4rVySbtfujZhXIuOGivUaboy4J+G3lBk6Zsg2MubFmj9apksasN/EoCfn5CwSMkPJj0VvNj249uHAIdvBkiF2g5JEx9bli1pcYrQ8Yjn84baQH79URcQ6kbWPcmvPsFXLZn277fbOr2nnvuz/HSJ28bHDz9ZJvrT704VTmx8N37b98/RLgnfNHv1s9frrDr/v9GsPtfIIzE9B7Qz8LyR8vLnCArEciAENT4bxph3rjIPqGkLEQiGVdCBaRguxruglKP0CzG48BN+LMb7M5mMQRvkSnBGvFvl78cAcZQySxtBs3HHBIwu8EcgadRySxxtdFI/JIp1sksUofZzywZX4kYSHBMQSoAATtFhkl2vIWeedezr0MCJrAhErBE7OgWgYKsSaYhcsk/zMwR4BzVJQPxtckkshryRyNSur7PNJvuhDVCMp/Qv00EsLxVHR+zSlktFEHV2Uuy7NyeMDMZMq4IAPlMCDk2LEeYe9/5yaiUOsCK6gBqJEervqiFQe5TRSTActVtNKB0RWS0uN9XTSTiGtzFlpNxU12mGnXZbQag19NtNurQWVUmaVDbefe5wJBIVUk0qAghBasEEJMPA4xJJUbvnlmGaioeaadfDRaJ91TOEirKsKyECNVJL5ZREbHBCLAh4EoUYe3LY9NtxkUwI3WyQ5LtdjakGuT+NvS742ZJP347bljoVdWcmUUT4XWmJrPrefd5pZBAgI2lWqgAQ2SKEGHoRQQoostOACjDDykIWciPZpB5MpPigg1RKKuGKKGiQW0wEa7GjmHm1FfnnmPzeGeWSZx8WW7ZPVdptul++WO+ducab55v+P8f6U1FD3TvvttQ1vW+eWI/PGkzFsoFBoyldNgAMtXnkHInyueWJyykMvoIRPSmQZ75hHXc9IwFVWvG7E9Sac3MRnn/t1cW3n22S/F2/d5sZ79/Z3uxlHHW7VBSyOn2UWuSIGDhLYOvR2HXAjHIjcKYZd6rsnRJvDj6999UZxH5z8wnUPH/fUoQRecOHzNp595NdX3/fgAzc//vYzLp742M3vfiG5hzY4AQYVQOAA0+veVbSADIi8AxncGxoDhVYACxYAEeA7Hf3Gp7z0oS95L+qf/UR4uwHm7oS7g5/+Ung+ENLOPvqgoT7AUUMc1hAf8cBHDnNYj3r4EIc77KH/EGt4QyPqg4hJ1AcQmbhEJiLRiFA0ohOTSEUjSlGIWPShFafIQyba8IlgTKIXt0jGJGrRh0R8Ez/wsY5wFOMSbjgCCg7QQKWM4RoQ2Qc61oCwAnBgCkPYgNAY0IIxyCACSTkAD3CBsX4ccYxFrGIQr4jGLE6SiWZcIyaFqMYccvGHlvwiJTN5SVN2kZRnTKUPQTlET45Sk1GcZSVrecpSbnKVnUwlEIH4DV8G05f0iAc9hClMehjzmMMs5jKDCUxn1oOYynRmMqMpzWZeE5rVzGY1qbnMaV6zHtsEZzfB+c1jhlOb11SnN9lpzmWSM53FfJNE3iEOZ/QiFImwAxiO/2ADFXxAge3igSXasRF8HOMPTxgCFyTRi1oI4ggRsKACaFAGTyxjFXZwwhDAkApxLKQfvpQnMuGJTHSaNKXCLGkw23nOd670mTFlp0yB+NJ40jSa1tzpSVmqU3f21Ka/BCpMhSrOljJzqDzlJjo7mMISPnWFf8uf617Iv/r5L4AAFFxU9NEOfPaCFZpoxB/igIYwcEELVZCCFKYABktYQzD8SBcsTNELc9zjHdbghA2CppQQ4GEY6eCHO5ph116cRavik91U8ddCqzoWdowVoGTlx1UPNjaGKJQsVj9IwqyacLMs3J8LLQtD0H52SvUUyTzUIY5rRCMZwdgFLmpxi/9mqONN5NBCIZVSA1rQarKZrexoqQrZ95U2ssaVKnOHV9XkXtW0zvWsZlNr3fSEtrnXLS53MftC1oY3J7z1bVJsUB3jVLe72VUtgLQ7XKi+V4XOvSx0/2ffrfJuuj9S73ctG1X4/le+qGUvdoUrXgRH5BxrCMFVhKCLAxPYve1lHX4p61/6Ani+3rUwcTHMYbr1t8PxpXD5pLtc/u53SwZKcIsb4o5X8EABY1JAIKgRYREj9746zi+PLzxiAZc4hPSVcIVDrOJmRfe0OVaukonM5BN7ysUuvgc5HMGFIjzBDcc4aHqRbK4eN3nHYg5zlMds5jIv+csjLPB6J2xgI5P/+cc+9jCQiTzlKZtDn6ywBiS9jOIVAzrJZ1azoME8ZznXmc4kZhCUC+3kFBuaZJAONKUH3Tg8Zzq8jn7ymuPGaDfHGc2IHrWiEw3qvnmazW8OtYkfTehOS/rTQYazq2Nt6UObutSotjOIT03rVg850rhetahfneZbw3rYyq40sy9N6mNDO9nIXja1m23tZ+s62tqetrSr7e3XcPrb3B43rxcN7A+3Od2sXrexu03ua4M72+b+dYYHLO54w3ve6OZUPPwdj278W+ADJ3jBDX7wggcc4QtneMP9rXCHR1ziD594xR0OcYtnPOEa5zjBMd5xjn8c5BkX+cgrXnKTSxzl/ym/OMs1vnKXLxzmMf93QcChEIUcJCE4JwhGeE4Qnf+cIDcXetCF7vOiI0ToAyH6z43+c6Q7XelLbzrPn87zqFt96kKvOs6vjvOse33rP+96zscOdoEkfedcX/rXFRJ2s6+d7G0/+9vTLnW587zsBql7QeDO97zjfO9A73vP7671wCtk8ANxu98PL/bE25zukR/I3wlPeaZPfumWZ3zhh675oz8+7grZrrp7bfpz21vIMgw269tt63LzO/W+3rXs6037bdO79qqvtbDzrfvOqtp9zs418N9t/NjzvvWcPb7td4/75iv/9b7ft/RPz+7ruzv50M8OvqvP/d87P/fij/8++L+P+tuj//nqH7/1Z8/+8sN/+/IPv/vTj/0jy7rYsK+/+YtP/vnDv/vTvv6jv/MTwPVDwPbzv0kjvgbEtv+zvwQkQNHwvghkwFmTwAU0wAvkwAeUtw5UwPgTwQCkwBA0wQ/UtxPkvwNEwQzEwMVSwRREvgIkwRp0wf2jvhXUwRkEwBtkwR10vewDwh7UwBHEweGDwCKEQdFiwhikwRYkwhf0wCm0wSjkwSpEwif0wSsUwvezwiBkvhKUwhz0wgEkwyakwjIUwx/EwjUkrQlEwy00wjF0wyQEwSVUwzuUwSyUwzQEwzwExD60w9ITxDc8rjMkxD/UwkX0w0JkxEf/dMQAo8M2NMM4VMRIxMRJdMJG1MQN08NMtMQNNMQ9hMIwhMNRhMRNBMVOFMUjlMRPJMU55MRQZMMutMVTRMRLdMXuE75ZZMVaRMVX9MQig8ViJEYLDERVjMVlPEZerERcVEZjTMZBfEbB2AZs3IZqyEZu5MZs6EZwzIZvBEdvJMdu3EZzxMZxTEdxTEd1dEdsREd2hMd2dMd1TEd5NMd7JMd6nEd4zEd+pMd9DEd41EZ6FMiD/MeEZMeB7MaGPMeF1MeHzMaJzEaAJEh7rMht0EiDtEeE9EiFBEmGjEhzvEiH/Eh/dEeTLMeMJElyXEmKREl9BMdg1MVUnEZfbMVo/6zGnTzEx0pEa8zFn9zFnixFLhTK5/rCZqRGn0zK12FKo6TEWxTGOgxKaUTGnKzJobxJrNS/qKTFVZRFnaRKaCTLqbRJ6srKsFxKtWRGnPTKXxRLrXRKojRLpKwvpXxLYuNJu7xKq+RLtOxFuBzLwCzLwjzLrRzGv2xKvATKooxLthzMuWzMujzMu9QwZ3xMwkxMwdxLxsRMqIRMvXRAwORMwzRNxKRLrlzMrwTGtRxNJSxN1VRMzXTLrvTM1pTL17xN0vzMe2vLzOxL2aTM1azN3WRN0eTN2PRNSQHO0NzM2axK47RN5IRO4qRN4WTO3qvOyQRN5/xOyTxO43zO7v/8zfCkzukMTsv0y/QkT/HMztyMTNxMTu58z/UcTu8MT/dET/ikz/YEz/m0zvwM0PJcvf88T/VEzcs0TwK1TwXVzuXrTwFl0N6MT9jEQ/yk0OW0UOXEUAidvvrkz/v8UP1C0P1M0Og8zRRNzeuUTgkt0O080AYV0QfNUAN9UQdd0QWtDYGbOZrbuB9VuSAV0iFtuSJtOB89UoBTUoZL0iN10iKF0iGV0iCl0h+1UprDUpCTPLXbPNEDvKXbh8Xbh8YzPNBjuy4NvTOduzSFui+9vDAd0zKtvDftPMwT0zVFuzwVvD11vD7lUrzz0j/9vDbFujolU8/LvELV00Xl00Y+9dNHBVTEE9RIJdRAVdNKVdRLddM8hdEIHVEODVEUbVEVJVUWHdAK9U8cpVEdZc9VHVVU3VBVBdVZrVGGCAgAIfkEBQYA/wAsgAArALwB9AAACP8A/wkcSLCgwYMIEypciJAbN2uDDN6ZCM2gQ24RC068U7HgxYwEJ9bpyLCkyZMoS2rjRjLkHZAEHbYcOBHmQJkHax7EKfHlTpY5faYcSrSo0aNIkyo96s8fOTEGmUg1Z7CpP6gFpTKhWrBfU6wEpRrhurSsWYHy+plbEpUJmYNN17Z9W9Wf3IJL3MK1S2Tu3rth9Z4dTLiw4cOIEytezLix48eQI0ueTLmy5cuYM2vefBLVHs6gQ4tm2HS06dNHDTFBzbq15dKuY8seqHq27duEw03Dzbu379/AgwsfTry48ePIkytfzry58+fQo0ufTr269evYs2vfzr279+8pdYP/H2+0NvnnsM+rL2l+/fL07uMb9Cy/vv37+PPr38+/v///AAYo4IAEFmjggQgmqOCCDJJHyh0NVrfPPhGaNghbFUpnjz0ZitZeh86JB+KIJJZo4okopqjiiiy26OKLMMYo44w01mijYSLeaNuHOg4GX4+u8QhkWT8OiRp9Riap5JJMNunkk1BGKeWUVFZp5ZVYZmkaklpOVmSXBQkJZmNfjimQmGYqlmOabLbp5ptwxinnnHTWaeedeOapp2xr7unnSWX+KehegxZq6KGIJqrooow26uijkEYqaaJcTponmpbOiWmmnHbq6aeghirqqKSWauqpqMoJVKppbshqmoG+/yrrrLTWauutuOaq66689ipqpb42uWmwQA5L7LHIJqvsssw26+yz0EYr7WN9ThtjrNauiG223Hbr7bfghivuuOSWa26CwJ4r3D33dNEWE+TU5Y+7WUkVb1dN0RvWEkvcS5BV+g7EwgzhNkWJQYYkzE5d5BwcZsLryOswQQkbsjC+/kxMmyF7XPyvwQV1we4KBmFgsjXyklyQyRigjLHKBLHs8sf+wDxQAycUfJVWUv2jFVkDNfXUu0ALZBVYA/1skFdXtTWWvFA1IXUTtxmr7tVYZ6311lx37fXXYH+7bdgAjk22f2afrfbabLft9ttwxy333AleSPd/Vt+9Xt569//t99+ABy744IQXDnjahmOHeOLWySMP45BHLvnklFdu+eWYD8p35sxtzrlynn8u+uikl2766ainrrpwi6/uW+uu8wZ77G8bQADtzFlxA+689+7778BbG3rwrA1P/GnGH1rt8b3Nzrxozj8v/fTUV289m65ef1v02lfG/aDpdl/8auLLlnz56Kev/vrsI3h++4y9D79idoOaTTPzj8YPP/lD70//AAygAAdIwOp8r4BE+h8CX6PAT4VvgY+RHwSTIsEJWvCCGMygBhlSwQ2epIMeZA/5PrW8EBbmgCYsCQpTyMIWuvCFwVshDAsiwxkGrYGeeqANUzPCHS4FhD4MohCih0jEudWviOXpIRKHAsQ8lXCJKsQhFFFSwyla8YpYzOKyqmhDLs7QcaHyRB20aJJCKJGMCGkiGtcop4qFQ16oQFjC3kjDpsQxTIMwBB1pdsfpNCVicrTEXgD5MEEaJC2EpJghDFnHRG6MkR9zZJ20sps6+uMz9WJCJWmGyX1pUl6dlE5c+lIvutQRMEkTTEHSgkqBSMWUH2ulz1QZSwwdKCAAACH5BAUHAP8ALIIAKwC3AfQAAAj/AP8JHEiwoMGDCBMqXJiQG7dpB+/cAXTQIUSDEikatBhxIsOPIEOKDOmQmy6Mde5o2ujwZEGJKlmaxChxZUFu1ma+lGhJpkuCMG2OHEq0qNGjSJMqRYhqj0F//tIdZLLEy0GoUg0yYWL1adSpXJeKHUsQqr9gWo0wadSvINR+PwduXdu2LFS0BeeydUvurNathbz6zbt1L9nDiBMrXozQEBPGkCNLnky5suXLmC07zsy5s+fPoEOL/rx5tOnTqFOrXs26tevXsGPLnk27tm2EUG/r3s27t+7cvoMLH06cM/DiyJMrX1403EXm0KNLn069+kLn1rNr375anjzu4MOL/7/Mj9/48+jTiz2uvr379/Djy59Pv/7Q0vbz64eOf7///8H1B+CABM7WVIEIJqjgggYdyOCDEHImYIQUVqjYhBZmqCFShSyx4YcghijiiCQyyF6JKIp4YoosarhiizBGiF2MNNZoo1Iz3qhjgS/u6KN9Pf4oZHxBDmnkkUgmqWSCGC7ppHaDePjklNwV8hiVWFrnYJZcdjnfll6GWVyTYpapG5lmpjkbmmq26eabcMJZZJx0ijZnnXh2dmeefFqWY5+ABhran4IWStmehia6nj+KNgoZoo5GKumklFZq6aWYZqrpppx2uiGYnoYaZaikCmRlqaSyieqqrLbq6quwxv8q66y01mrrgITemiikutLJa69w7rMPsMQWa+yxyCar7LLMNutslqA+66aq0npJbbVcXovtttx26+234IYr7rjkIptruU/+iu6O6q57Y7vuxivvvPTWa++9+OarL3LR7nujtv6WCHDAIw5MMG9QmSMlQVRtcZU/Cv/lsFcREzZxQf3II87BDEHVzkGGGCLJwx8bZMggI3tVckEhp+yWPysT1PJBGbezCFTcHIRBBSc8nLNBGGDQs1c/FxT00BjLUzTHuPmDThN/dfXy01pV9TA6VzIclldUEyY1QRmjw/SrBo+dYdlmV4h22my37fbbcMct99x01223XXeDCG/e/u3/zfffgAcu+OCEF2744YgLnHXiBa7NuHqOPy755JRXbvnlmGeu+eb/lMd5fX5/Tl3oopdu+umop6766qy3zmfkrg8He+zB3REE7bjnrvvuvPfu++/Aa0d68LINTzxsxh+v/PLMN7/pMKg4n1zy0p9GffWjXe/k7Nifxn33o30P/vjkl2++kcGQcv5uo65/m/juXwa/k9rHfyij9tNWf/789+///++BHgBfs78BHqaABhyLdwp1qgSuZn4OJAsEI0jBClrwgqoRIAZFM8ENFqWDHrzP4vqEwBCKpIQmBIlDUsjCFrrwhZPRIAwrg8IZesWGNMRfoECIQ5ONsIeL4SEQy4dIxCJiT4ZGRIwQibjEITbxRzUcYhSBOMUkWvGKWGRd+rJIFnvYg4tjqSIOxaijJ/bQjDhEIxjXyMY2Gg6JbiSKGmc4Rxi2L1Cei6NRyDhDPurxjybbgyEe1o/AsCxkD/PHIkyGyKf0ZZHC64s1DDmQkBnCFYKZ5CENQYtMUlIghhBkJ1/WD2h88h+WHKVd/GGNhTWKCWohJBT+8sN/mAUKUNNaLf3RF1xGcjC6PKUt70JLwwzELHhhmFqMKZC3xEUgeqnLMYkJoYAAACH5BAUHAP8ALIQAKwC4AfQAAAj/AP8JHEiwoMGDCBMqVLjqzh1LBrlJ7GXQ4cOI2rRRLGgRYkGJ3DYSvFNHwsKTKFOqXPlRYqiKDmkZ1OYS5h1ZEWtyjJmT28udd2S21PZz5J1ILJMqXcq0qdOnUBMawsCkkEF/WIc1Kcikq9WC/u7d08rV69WsWwl2rYAgqtu3BLH686i2q1CC8vrNNdh1CU6wWOkO7Mrk7kC5ggUusXv2HqW0g1ksgUu5suXLmDNr3sy5s+enw1B9Hk26tOnTqFOrXs26tevXsGPLnk27tu3buHPr3s27t+/fwIMLH068uPHjyGeHTs68ufPnb7FCn85bOvXrTa1j3y5bO/fvJ72D/x+PWjz58+jTo+7lSb379/Djy59Pv779+/jz69/Pv7///wAGeN9yAhZo4HCGMHFgfwkuiKCCDurXYITATUjhfRZeqOGGqRHI4YcghijiiCSWaOKJKKao4oostujiZR6+KGOJ5s3YXI02eoZjjsftyKNmPv44XJBCFulfjEYmqeSSTDbp5JNQRinllFRWOd8wpFipJXkZbmlbl14qBWaYso1Jpkpmnulammq2GRySbsYp55x01mnnnXjmqeeeUsLJ55/l+QNoaUTaKdGgpB2K6D+FLhqdoI5G6lkoiUlq6aWYZqrpppx26umnJfoJ6qgIsUnqqf+Yiuqoqq7q6quwxv8q66y01mrrrbjm6qaoulraaK+A/gosn8IOa+yxyCar7LLMNuvss9COymu0dbZKrZvWXqtmttp26+234IYr7rjklmvuuTBmia6axa7LZLvuKglvvPTWa++9+Oar77789mvgtP4KyW3AL94RBMFODozwwgw37PDDgPmjC19d7XEWOROXxYTFEWdc18YG6SUxxAnJZY1BhqTsyln+ZPPVQCkbsjJYYrlcUMwzx4WVzQThHPLOW8iliUEYFA2hzuQMXVDRVLGsNEFMHz2QyE+THPEwFFfFMtYav3yYWFx/7LVAcoU9mFkFiTyMD1a37fbbcMdNn8JybzjIZHW3SModeff/7fffgAcu+OCEF244uPMe3l/iiu8XzjSNRy755JRXbvnlmGeuuX10bx5f556/hwrHoZdu+umop6766qy3Xjfjrl8He+zTPU777bjnrvvuvPfu++9bgg68ccIPT9zoxiev/PLMN+/889BH79rspyK/qDzyLIu9o95Asyw//Eg/HfXil2/++einr/7pxaNq+6Ltnxr/ltYnO//6rRWCN/789+///wAMINzIN6r6DYqAoEJgld6XLAUK8DMOfKAEJ0jBClrwgpm6H6gYOCgNfsqDVDLgsUCIQcuQsIQoTKEKV8jCFroogpwS4Z9guCkaQomDx7KhC5eiwx368IdADKIQ14dInRNuCod/utuylLiovS2rEFIj4miMKMUqWvGKWMyiFi/Tw0vJkFiQamAYB4XEYXVxi//Yxz7QyMY2uvGNcIyjQqiYqTLuiY6YwmOTvggsPaLRj3IMpCAHSchC9u6MkuKjnvxhjoOkrD0GyYs5xpYqQ1TtMIyk5CMPgpVGnkcuIhnIIFLWjMZ4DGakZFkoBRKzUhYkL/5YZSUHsYx+RMxR/tDGQboCh4PkRZcUewMnc7lLJvTyLMAkD2IMspjCNOYxGjMM2QKTNWn+A5aV6stfdDZGDQUEACH5BAUGAP8ALIAAKwC9ASsBAAj/AP8JHEiwoMGDCBMqXGjwjsNmBrlJXNTwYcSJFe9ALCiRG0WGIEOKHEnyoERrBx0CMskNZcWVF6elvAOTY8uZNQlqu1myp8+fQIMKHUo0JJOj4Az6W9rG4FEmSQsu9de0IJMlUJUyLcq160B1B5e2O3h0S1h/Yw1iNau0nzmyTNhKRQtXLsF7dL3q3cu3r9+/gAMLHkw4qCEmhRMrXsy4sePHkLsejky5suXLmDNrPjh5s+fPoEOLHk26tGmGS0+rXs26teuQqV/Lnk27dubYtnPr3s27t+/fwIMLH068uPHjyJMrX868+VB58pxLn069Kz9+1bNr3w4SN/fv4MOL/+/debz588XLo1/Pfrf69vDjy59Pv779+/jz69/Pv7/x9/4FKGBRAA5o4IEkFbIEggw26KBr3j0o4YMRTmjhgRVeqOGGHHbo4YcghijiiCRS6E+JKKKXYYosZrdiizDGOGCBMtaY3CAL2qjjcoUgtuOPQAYp5JBEFmnkkUhuRmOSTJK2ZJNQfvZklFRWudqLVmYZGZZadskYl16GKeaYZJZp5plopskQNObAgQABasbpFZxy1mnnnXg2NmWefHLmY5+AMrRnoIQWauihiCaq6KKMNuroo5BGaiaYkpZJaaVjXorpppx26umnoIYq6qiklmrqqVYOiiqSqq5qZKuuxv8q66y01mrrrbjmquuuvD6qaa8tQgdskdcNa+yxyCar7LLMNuvss9BG6xis0l5IbbUTXovtttx26+234IYr7riZLkWGU0e5RNBU51qFlboDTSUGukzAK9BS2hp7j0H9yNOPJgYZIvBbc/kDcEECG0LwuksdTJAhgyislcEBD6xUKAssHO9SMxiEwcfDTNxxQRhUgEHIBY9M0Mcna4XKHt9GV1C//VRF0FNRMUwVvTlvvLO7WRVs80A4K4UyuUgnrfTSTDft9NPN9Qi1g/lOLV/VVsMXjkxZd+3112CHLfbYZJd924lm57fPPmnnZ489beP3ctx012333XjnrffesmL/zbdyfv+NXOCCG7d14YgnrvjijDfu+OMM/go5cZJPLlzllgM3d+acd+7556CHLvrofRFO+mqmn35a6qqXdnjrsMcue4uFNDJ7cJjfflruujdbbO+98Q68aMIPD9rmxiev/PLzIc+8bKw/D1n00tNKffWMKYj9azhu79rr3ocv/vi9gU8+acWfv1j66q/KfvuEvQ+/YPLPD5jz9uev//6J4c+/Zdf7H4H+JEBdBbCAQjkgAoGiwAX6xHwOjKAEJzgQCFJQMRK5oGPqp8FFcbCDJPkgCEUiwhGCxH8mTKEKmYfCFfKlgS58GAFjCCqp0fAvMLxhDmlowRv68Ieg6yEQ/4lSwiEWcYhpOuIP14ZEvbytiV5pIRSnSMW8SbGKJNlhDLWIxVTNsIs94eIKxahCIYLxjGjsmhnTuBAl+tCNMZqKKypmCG1MbI4FGUTE7DiXfqCCjnxc1w6WsxSZIcwQkTgIXgz5MEM0AjtzYeRABJZIrUhSIBGrpJ2mMgh6LWNinSzIErDyyT7mRCBPKeW6jIAA4VzyH2KpiyLzYhUmYOEsaamlXTaWS4KshY3ADKYwh0nMYhrzmMhMpjKXycxmOvOZ0IymNKdJzWpa85rYzKY2t8nNbvKKBMvQRzRJEIVlDGNfziTBP6IQhY00U53sdCcz1SmQdqaTIPacZ0Ha2boMeCiTnviMwjDQdkyADoSdA02mQeOVz4KGJR8NLeZC7+WPdfDTmBOF5VLMEU+JTuWjU+GoQOtBTBKA9KTkIEcUJEoQePQDluyM6UpLOhB4VEAXMMUpMtUJD5sWYwf98Ac5gLrTf8CjHRVoxg74IVSiFtSmAVhGP7YwjF9MVafGjEIFltGMlzbjBjfoRzYGecx+vJQgW9jCM/7xg2ea4xs3aEM0zrrMfpBDHHE1BiSZ2Q9+zIMfdI1MQAAAIfkEBQcA/wAsgAArALYBKwEACP8A/wkcSLCgwYMIEypcmPBOnT0HuUk8eOcORIMSuVG0GNGaRoYgQ4ocGbJZRUoYJeoyWPEOyoIZg7E8aVCbRJkFW0ZKyQ0nwZYvCcYkSbSo0aNIkypdSpKJESsH/fmTd5AJE6gGpVI1aBVrQX/ktjIdS1ZgOKuAskq9xRWtv69Sl7VlkragvH7+5Ba0yqSO2rxz6xKUCris4cOIEytezLix48eQI0ueTLkywnDTLGvezLmz58+gIUsNTbq06dOoUzcerbq1a8+GmLyeTbu27duNY+Pezbu379//UF0ETry48ePIkytfzry58+fQo0ufTr269evYs2vfzl05qTvdw4v/H49UN/nz6NMXNK++vUjW7uPLtw5/vv37zDHj38+/v///AAYo4IAEFmjggQgmqOCC6enH4IMQKrXPPhFWaOFI9thz4XWDLLHhhyASxF6IJFYoXIkopqjiiiy26OKLMMYo44w01qjaiTbmiN6IOvbIHY8+0lZfkETS91aRSFaXTTNJNunkk1BGKeWUVFZp5ZVY8uZglly6NmSXYJb2ZZiTAUnmmZyZieaalOHI5ptwxinnnHTWaeedeL7pZp58lidbn4AapWaghBZq6KGIJqrooow26uijkEYqqWHeQDNpoWNeememmnbq6aeghirqqKSWauqpqKY66Z6qnlmIh62u/9lhrLTWauutuOaq66689urrr8AmtGWwUHJKLJHGHqvsssw26+yz0EYr7bTUVqsZq9bKOGi2LW7L7bfghivuuOSWa+656KYL4bDqhphsu7dtsYRXg/nTT1VXRTVmVwfdc8+Re+ULF7qWGNKIvvccZMgejdwLl4YGGWKww/UmHPHEWZFj8XoGr4ABCBQPJJU6GBiEwcchCzTyQSeDbJC/6rD8sVroktEEFvqKRZBT9Io8Fb49q/xzW0H/A5bOA/Fr27vwMsh001BHLfXUVFdt9dVYZ/2rt1oHyHXX/30N9thkl2322WinrfbabLv3dNvpvQ33eXLPbffdeOet99589//td9Ri/43drIKnV8ifhSeu+OKMN+7445BHnmXdkidHeeXHXY755px37vnnoIcu+uibBU46b6afjlvqjyJggOrMUeIK7LTXbvvtuOeOueaMDoMKnLwvyrqUwSs6vO6nHY/88sw37/zz0Der/KK+wzm9osU3eX2i2UdfWffehy/++OSXb76d4Bta/ZvyIC0q4Wzyw8+ph5+v2vb256///vz37z+J+DvU+tgUQEOlj0gFxBTA/teZAzLwgRCMoAQnSEHnODBQA1zTBQGVwCBtsE8drOBIQijCEprwhChMoQrLQsI+ZRBNLeTTB3MUwzzNcIX1wqEOd8jDHvrwhz471Qv/z3RDPNWwRkW80xF1uEQgOvGJUIyiFBnXxDoNkUzwI1X74FQ/U8lviklJIhjHqEB/DKIQHDOE+wizkzS67y7+aKOIJKaN66xDYpb4Sx3T6IqUEWaPBBmExPoIF38M42KGcMX86uUPQA5EYolMmZwIYwVYJc0q7PjLFuaSSbvgZZMBY4I1rmOOJfTlL3rZGVpQaRBT0uUvbAklIBZotLgEhoy4zKUud8nLXvryl8AMpjCHScxiGvOYyEymMpfJzGY685nQjKY0z0UCJimTBFFohjWPSYJ/RCGbyCSBP76ZyqJMiEJAFKdUorCMeRglQ/D8YTcHAs6ivIUw8ixINrf5/55a0lKH8yTIN/kJEoCJ0XsBpWc9+xlEHiZUoARdCC2l0g/3nfChA8lHFIbxT4T80153wSFGB7KOfRY0KxWVpAlHqjJzDJQhHU2pSBPiD5culKYHSWlHRcjSWpKDHFGAaU7heFDdJRQeDvumUoMq0aHiBZ8XJQw8KqCLdd4CHiJpn1a3ytUtrtQf8JjqMnaAF3LcwJ0hkZ9a1boPeexjrSjsJjzaEYBmkPUf5NgBVkOywNHoFKornWoFmrGPLQzjF/3YQixPKrS3yHSFUahAMZoxv2bc4Ab9yMYN+kkYwuh0hf0ILcW2sIVn/MMHnO0sSPHyQ3N84wZvWMYiYapaiinC0Yf9EIc5btAGX6CTtvi0LWtxG1qSDAmkRkPmaosqQuEyt7mftUxAAAAh+QQFBwD/ACyCACsAuAEoAQAI/wD/CRxIsKDBgwgTKlz4j9swg3ciSjqozSFEiQe5WSwY8c5EgxqDMRxJsqTJkh1dGbSmcdXFOyoLauTmkmPEmARn1iRY5yZIbtp2Dkz5k+bJo0iTKl3KtKlThf6gGWRCFVC/gv3k9ZNakCqTPQb9ieVK0KvVgmKjPl3LtixVoQLJiQ01lckSuP/S0u36Nuxcg0b6os261y0TvGkHMWnLuLHjx5ATio1MubLly5gza97MefPkzqBDix5NurTp06hTq17NurXr17Bjy55Nu7bt27hz697Nu7fv14YW/x5OvLhxzcGPK1/OvPnR5M6jLx2GSrr11tSvay8Jfbv37+BZD/9aEr68+fOcCwlHz769+/fw48ufT7++/fv48+vfz9/p5/4ABujbfwIWaCBtBB54W3YK1sdgg7clCOGEFIImYYUYZkjZhRp26OGHIIYo4ogklmjiiSim2FR3KrYIIosuxpghjDJm9mCNx92II2Y07uhjgD3+KKR+QQ5p5JFIJqnkkkw26eSTUJokjzxRVvkdP/xYqeV1HG5Zko5ergZmmCV1SeaZupmJ5pq1qcnmm3DGKeecdNZp550CFonnnpzpyeefl/k55yqRAKoZoYb+I2iijLa1aKOQrrhepJRWaumlmGaq6aacdurpp6D6OGaooLpJqqZTnqrqP1iu6uqrsMb/KuustNZq66245iriqLoa+mivdv4KLJ3CDmvsscgmq+yyzDbr7LPQKslrtGuaSq2X1l6rZbbaduvtt+CGK+645JZrLrTTnstkseoKyW67Pr4L77z01mvvvfjmq+++/EqHaL9HcgvwiQIPXGLBBifcq1dwHKTVQ3wx0bBfEBs2MVr+VDyQXRIrrJAhICMmljcGgWwIXln1Q3JBJpPilz8rE2SyyDCXPMjJ/2CgcxAGpYyXzhjwjLE/P+/88s8VBO1xQk00fRZBaZG1cVVXEZSy1AJ5BdbQWP9jVtUDRT3VEkw8vfTZaG+HcNoZrs12heFM8/bcdNdt991456333nzn/y1v3/39Dfh+qGw9+OGIJ6744ow37vjjkLvoduTvTU55e3FfrvnmnHfu+eeghy766AkJTvp1pp8uXeGqt+7667DHLvvstNdOqeW2D6dR7udlzvvvwAcv/PDEF2/88celjvxsyi8fG+vORy/9a950Pf1wzV+/Wvbap8Z99+DTjnv4qY1P/mm+n6/++oxBz75u++zz/m722DN/mv7cr7/w3+/P46T+k437AkhAAqavgLDpHwIho8AFOqaBDozg3cwnQchQsIKOOSAGNyi9AXLQNBf84FpCKEL/5K+EKFwcBFN4lDsIjYWi8SAMZzg7DdIQOQC8YWZWqMOF8LCHQPwWCf+DyJAhElEhNjyiEjVHijss0TJGfCLGpLihE1Lxivb6oRS1+EQZYvGLg0siGJtSCPKMsS3jOaOjcqjGNmoriliE4xXF6MY6os2LdjyJHKm4Ryn2MY+A3BQXlzhIJeIxkEmRizoOAjJKHEQsiyyZISzxSH9EsiB7mGR4MmkIjQnEH1kRCctANox8DE2UMiOlQeTiD1QOBGSD8GRexOJKgZhMlo2SCzmaUBcyVHKXdUnDL3lZkMAIEzyBOUxYCFMXZQ6tMFNzJkFYCc2s2YVm1fSaYBDJzW5685vgDKc4x0nOcprznOhMpzrXyc79NKMZUWgGO+EZhX/EU53wJEgUllH/CnTmcyDxXMY5/6nPe5aznghBKDmjMIABRKGeDG2oQs35UHu2s6ITDScOWMCCf+ABoBAtSABG2oFAdqADAejHAP7xgX+wYh4YLcgA8kGPAJQ0Rn+EFUoDIJaVFtSiBBmAWOBhU5ymZVwoTYs/RjpSEiQhCRBNghGYylOxtMOmN01R/o4arqSmhaosgCpEo5CEGTA1LVc9aYvix1ZxVVWpYumHPvoBNlD2A65iWQcJApAAFdXvr/UDlxBYoFQScLQDRnjoWB+KhA7s4K7+WEcS4pCBCajIirP8ljm2kQojJEEf/lhpMthxlZj+g64qFQg74okOyQ0NXM1YRj0HADZ7x4Y0qOtYrTzPwYUWYfaTOQXVO2dbENMOZADs0K2MfjtL5l6LnsW9LUgNilOEgFJdxh2Sc/OSsnFFFKMNdaiQtntarZA3WlEwZUFym9EakTdlwQ1VeoGbP3aso73LTQh8z/sseMKjuaul7o7ea17+9jcK7YBHP3Qrz/FC7YSgLPC4lgHV1Q6jHkaakoY3rOFzvTMJDTYSlkZMYn7sg0rmGm6Itdvco0a4nHhValZgrNQWz5icNabvP1CszrR0N50y1so6uTqcgAAAIfkEBQYA/wAsKAArABUCKwEACP8A/wkcSLCgwYMIEypcyLChw4cQIxbkRnGZwTsYG2mbWPFixo0EKXIb5vGOxoLaQEhcybJlQox3UBkU6aqkzInatNUsCPNmSIo7CfacCdQmUZdIkypdyrSp06dQmfqbms0gk6twDE71V7XgkiVMshac2m+aVaxajSyIyrblVSaetE4NOvBt3LH37tEVaFeuv73/+hbsN9fq17sEp7ZdzLix48eQI0ueTLmy5YWKL2vezLmz58+gQ4t+OMzn6NOoU6tezbq169ewY8ueTbu27du4c+vezbu379+9SwMfTry48eMSDTFBzry58+e5lUOfTr269c7Sr2t3nH279+/gwzv/7C6+vPnz1gctQc++vXviw0i9n0+/vv37+PPr38+/v///AOImXIAEFmggQpkdqOCC/yXI4IMQ1udghNNNSOGFGH5nYYYcdvjchh6GKCJwA45o4okopqjiiiy26OKLMLZVYow01igZeTbmqGNUOO7o448u9QjkakIOaeSRCBWJ5JJIKsnkkz/OCOWUVFZp5ZVYZqnllqr1ghiXYJ7IDz9hlmkiiGamCSGaai7GZptwEvhmnHT2N2edeOInZZ589unnn4AGKuigkO1J6KHgOYnootQpyuijzd0RBKQuSUrppY0uh+mmzcFhRB0GAMDpqMWJSuqpqKaq6qqstqqboa7G/6ranbLW2hmttuZqGa669urrr8AGK+ywxBZr7LHIJqssaLAu62xymj4rLUuOTmutQdVeq+223Hbr7bfghivuuOSWa25DzZ6bLK/qBstuu7++C++89NZr77345qvvvvz26+9pXv4rbCHRCuxrtgarinDCDDfs8MMQRyzxxBRXbDGL6V58qbwaC8pxx4BSBPLIJJds8skop7zfW2n4BY1VRjDR8lj+9GNRQSy7fJbMCRvisyZ+kYOtz18KtJXQBQ0yiCFF/0MWN0MzHXTUaTTwHAZY3+BXLwZhUAEGWtPczy1dZ7112WAn3MTab/jVFUFviZUYVQZ9FZZcZe0s90Bbvf9d11VbqCz44IQXbvjhtH2MOJjyyLP4oGM+Lmg4Zklu+eWYZ6755px37vnn5y0MOpWijw5l6aYzScodqbfu+uuwxy777LTXrrHitseIe+4v7s57i5T/LvzwxBdv/PHIJ698kwUvryPqzpsIffQiorIH9dhnr/323Hfv/ffgU+Z7+AaOT76c/py/YvDqt+/++/DHL//89BuU8b3TU5o/uer12r/BBOtVAA1mvfoZ8IAITKACF8jAw93PXuY7VAS9NcFBVZBbFwxUBrXFjZc18IMgDKEIR0jCEkrrgfXa36NUKC4WLsqF4ILhoWTorQKa8IY4zKEOd8jDHpYJhfTa4J//hGgtIvbJiNJCYp6U6Cz2+fCJUIyiFKdIxSr6ZxWR6FnzZEXDbnVRUF/cVhgBNcZr2dCKaEyjGtfIxja6cTVAnBcT6zRHZTWuV3c0WOR0tUeBOfGNgAykIAdJyEIOMo7wKqOfFDktRvLJkc+CJJ4kuazVGfKSmMykJjfJyfkhsl11jFMokTXKNpXSWKdMUyqJ9cdOuvKVsIylLGfJuU+qi5J0wmWyDMECSfjFcUnzmS9pdg91RG2Yc/MHMAniM0OcgACN8lkwDEIYfyyjEAUxhNKmSTN/kCSb0vTLNcFpCG4mJi/jhNsW+YUKJnTBL+uo21XeSUxzNAFn84TnzjRg/wDqCIYg1QQMEw7jF4FepWlbMShctJIXgV6PlhCNqEQnStGKWvSiGM2oRjfK0Y569KMgDalIU7eV9I00NVtxGplOOhoH9WMf22BpaBxUs3nI9DMWIstNb5UQk+5UMyVNX1B/6hnF+JSoRRUqUi2jBS6A4R954JtSCVIAAVh1qW2xqgAKcIB/cOAfsICHUQui1ati9SllNatUnUbWtJ61KWlNqxaSYVR4JAMFaS1AVdXqKxIMAx/aimtZx4ANo/IjHWsYgVULwIEpDGEDfO0VCaKwjGHcw1oHEKwAeHAJd/i0H/lAxh+eMAQuTMIXthDEESJQAGCRwB9RiEIzrIWGMP9wQQtVkIIUpgCGS1yjmk6rGT6eEYtT+OIc+IDHNTphAwi4FrayndY4sCENZQiDF7mwxT+csQ6hTrWkRptKOYT12vRFt4hGPepYk6mYcmghWOUVyHmTuN61HjW4KR1WfOXbjNlOK7/27eZ9n3vU2Pq3W/Vd1n7lO99rDXWoyVrwQBr83wED+FgSFkg+KPyszPRDHv3Ar7IyLJB1yPbAHVbMh6u5Sj+RWCDmiC3ZKlwzEF8Yw0ENaoyjQItrNe7HeRxxjoNKDnIkYR/X4sc+5IHkZ+0XHiH+R2ynnISV/nfF0oovPCqgC/l2+R/9CMdbH/NaeGy5GDsIMTnSPObIlLlcHRVoxg7ItOYot9kxJNhyAJbRjy0M4xd9/vKdGxOFCiyjGSFuxg1u0I9s7GDQjuEHPAqyhS08ox8/gDRlzPGNG7zBGFbWtGP6IQ5z3KAN0Qi1qBvTj1a3etVtCQgAIfkEBQcA/wAsKAArABUCKwEACP8A/wkcSLCgwYMIEypcyLChw4cQIyLkRjGSwTsYgxmkyI3SxYwGtVH0WBDjHV0SU6pciVDkno93DnJ8WRKjTIo0CZq8yS3nwJ0bccJkSbSo0aNIkypdyrQpQX9Q6ywpyKRqM4NQ/QEyWJXJ1YLy+mnlWvWW07Mpw1ohy+Rg1rVUq7qFCpcgkyVtsdJlO9df3YFd0QoeTLiw4cOIEytezLix48eQI0ueTLmy5csMoWLezLmz58+gQxfWLLq06dMqDeVFzbo1UdKuY8surXq27du4c+vmXHu379/AgwsfTry48ePIkytfzry58+fQo0ufTr269evYs2vfzr279+CFVn//H0++PObe5tM7hq2eO/r28A+zj0+/vv2V8+/r38+/v///AAYo4IAEFmjggQgmqOCCDDbo4IMQbpZfhBRW+Nk++1j43yBTaZibPfZ42N97IpZoYmMknqjiiiy26OKLMMYo44w01mjjjTjmqOOOPP6TYo9AlvhjkM9NSCRjQx7JnJFKNsmgPPI4KeWUVFZp5ZVYZqnlllx26eWXYIYpHJNilokdmWa6lmSaKqHJJmprvilnc3HOaeedeOap55589unnn4AGKuighBZq6KFOuYnoopQpyuijjzkK6aSUVmrppZhmqummnHbq6aeghirqc3WOaipDpZ6q6kGprurqq7DG/yrrrLTWauutuOaq6668QgRir65KCiymwg5r7LHIJqvsssw26+yz0EYr7bQQtUqtoNZeCyiH2nbr7bfghivuuOSWa+656KbrW7Hqmsluu2K+C++89NZr77345qvvvvz26+9x98DBlkYFZVXHwAaF5c/BcS3Ri14Lc8XCDM76s4pBgxhiiDYQW2KQxhtDfHFBIHMMllgjEwTyMBC7UkhBXSAw3D1EGITBzaRAbITNOCcs1s4F3YyBJzrb3MAJFQPSVVd4eQWxVHE5XTBUW0X9FUEKV21XWRAD0sQ/TYTdxA4ehjPNv2inrfbabLft9ttwx32gvHLrSHfdON6Nt42o+P+099+ABy744IQXbvjhcBfSIeJBcst4kNk+7qLZkldu+eWYZ6755px3DqbenjsIeugMjk66gp4wfPrqrLfu+uuwxy777K1FTruBtt9OYO66C0h578AHL/zwxBdv/PFsm468esovb17zzpPXd/TOG0AA9QhacQP2B/LO/ffgh9+u9+J/R3753Z2P/na/r6879O5TB3/80s1P//34578qhvrb92v/9LEfAJMzvQG2Tn0GdA4CE8icBTLwgRCMYJ8cKMHiULCCw7kgBoOTjattEHP84McHuyPAEeamhCZMoQpXWCMUstA1Lnwha2Iow9MUsIaG0yAO1SSeHTrnDkHwoRD/h0jEF+mwiKI5IhJBo8QleqZ9TpQbDaNomSlSsVH+uKIWt8hF+1ixi+vJIhiD88UxLuaGZkRbE9P4mDWyEUU9fKMc50hH3yiujrdxHB5l48Y9FgaKfqxXGQPZlEEScimGPKQiF8nIp4ixkaJJJCRZIslJqiR1lkxXeDLJxDhy8jJ9/GS/CqExDwokKyghWSkNcg+opFJlhhiEKf+BSoOAwADFgUojPqaxvjTiZbA0xEH6EZZfqlKYEDNmMH0JzG91xSxT8wclvrY1JkCTIK2UJjUBc5drDiQr0yxIBYyzl6j15S8CCYxBiNkPdP5DndF0Jzwd6RdR2vOe+MynPvfJzc9++vOfAA2oQAdK0IIa9KAITahCF8rQhjr0oRCNqEQnStGKGicf8siHRZFSD3nU438bZQk7KwnQkT4ypCphJy1PitKIqHSlLU3JS1fK0pguZKY0talDcJoVnTYEp6esqU8LAtScDhUhRaWpUIeaVJqS46hggZJUpzpVb0CVIPuQxz5CyNWuhjAcIrzqP15KmqxAhRxLtalKewpTWj5VrGNVmFmNCleBmLSnbK1rXMVi1rnqda+a6WtamRolepL0n4L9K8T8qljDDtanAQEAIfkEBQcA/wAsgQArALYB9AAACP8A/wkcSLCgwYMIEypcmNAat2UH79xZdJDbw4h3GmkzaBGiwToZNzIcSbKkSZIWXUWsg6oiN5UGJbbk+BLjzILcrMEsKNPlToI9TwodSrSo0aNIk5ok5y/bQSZM3hz01/QpEzhTqxo0clWp168Fqf4cyMSIp6xjBUI9a1CsVbZhyaX9txbtW7B48+rdy1fhsJt9AwseTLiw4cOIEw82xESx48eQI0ueTBky48qYM2vezLmz58+gQ4seTbq06dOos6Zezbq169RUX8ueTbu247+2c+vezbu379/AgwsfTry48ePFe8FFzry5c8L8+D2fTr260tjWs2vfzr279+/gwwv/vSy+vHnf5M+rXy8bN/v38OPLn0+/vv37+OG7z8+/f9/0/gUoYFKFLDHggQgmqOCCDNKHXYMQLvhghBQOuF+FGGao4YYcdujhh/ddCOKI4k1I4onemYjiiiy26OKL7wEI44zGDWIgjTgWNwwpOfbo449ABinkkNmJSOSRqMmI5JKkKcnkk1BGKaWQKk5p5WRVXqnlbYBt6eWXYIYp5pj9GUnmmWBlieaaR6nJ5ptwxinnnHTWaeedeOap55589smdcn7qWUhjgeLpZKGIJqrooow26uijkEYq6aSUVuqZmZZq6WamUu6zD6eghirqqKSWauqpqKaq6qqsjoZpqz8e/wqrj7LOauutuOaq66689urrr8AG69yrwo64abEeHovsssw26+yz0EYr7bTUVssksdYyWGu2C27LLWv3+AONVWT405a4VqWR1bgGLcGEum3149G3YflDzkGGGLLcQEzda1C+mmTlb0H57isQVQMTtIe+U/XDTbi9HIQBBjdkFbFBE1d87sUFZdzwLfSe65RBUGFlEFMjFwSVVCJbZXK9KRPE1csE+dPPNKZ5G7KAOu/sHyp7+Cz00EQXbfTRSCet9NLCKss0fE4/zV44OEtt9dVYZ6311lx37fXX8fUMNndij60d0GanrfbabLft9ttwx621PPLI7V10dndHdd589//t99+ABy744IRHWXbhuh2OuG1oL+7445BHLvnklFduOWlRX75a5pqjtnfnoIcu+uikl246WNiejrm5XyruJ+dDuq76Zo3PbvvtuOeu++5pBxMK7zkT6iXsfsoOJPHAQ/Z58sw37/zz0EffaurSP4Y8kDZmSjeYg1bPWe3ehy/++OSXb/6U1J8vmPE/Xr8n+z66r75Xy89v//3456///vOlz79X8usR/PIUwBwN8H8mAR8CF8jABjrwgRAEjf8ieJID4qiAd7IgjTBIwYLUr4MgDKEIR0hCEvquhEjh4Iw0WCcVwoiFIVQgCmdIwxra8Ia8myAO/wHDF23PUtn7Et5edliSDxLxiEh0TL4GkZW6/csQkmgivqCYlZgVx17LKMQTg5GVLG6xi1ok2B64eK5hTJGM9fIimqBihayswypdcCMcs2IN5thrLnU5Fx6ZYLB/uIVkZrELyfgoSPsEBAAh+QQFBgD/ACyDACsAtwH0AAAI/wD/CRxIsKDBgwgTKly46k4wg9wiUjJ4p+LDghG1SaJoEaJEjnUWihxJsqRJjBH3cLxzkJs2bioLVmTpEebKlilv1oxJcObJn0CDCh1KtKjRhIYwNDPorykgg0uYMFlasOk9QEsKSp3K1KnBrTsMHB1LdmBTf1a+Sj3YT16/tFrXdkWrlsnBs3AJMol6t2negVvLCh5MuLBhpHYPK17MuLHjx5AjS55MubLly5gza97MubPnz6BDix5NurTp06hTq17NurXr17Bjy55Nu7bt27hLN83Nu7fv3yJ3Ax8OVDjx452NI1+eUDnz59CjZ5YnT7r169iza9/Ovbv37+DDi/8fT768+fPo06tfz759e0OJ3cufXxo+/db274fPrz81//4ABijZfwIWaOCBCCao4IIMNujggxBGKOGEFFZo4YWMOYfhhvdpyOFiHn4oW4giFkZiiSiSd2KKLLbo4oswxijjjDTWaOONOOao445EFRIfj0DeRmCQJA1J5GZGHqlQkko2iRqTTkYp5ZRUVmnllVhmqeWWXHbp5UgrfilmWWFKGdGYjJ3ZZZlotikUm27GKeecdNZp55145qnnnnz26eef+kEJaJ2CDjrnIFkZquiijDbq6KOQRirppJRWaumlw8GJ6ZSabhplp56GKuqopJZq6qmopqrqqqy2ylqhrub/CGusN85K66245qrrrrz26uuvwAYr7HmgDothscZaiGyyzDbr7LPQRivttNRWa22XdwRxrYi2bstgt96GK+64z50VUkFRMXERQWelUde6ZjV1rl5SwSuQW/7MS+4/Z61ikCEAazOXvwUNEnBX96Dy78FVNUUwQQAbInBB+LpylhEGVYABBqTM5YNBG3M8F8YFhdwxxf34Q/K+/HoVF1cN+/MUulJRxa4/VyUKWM1zzUwvzATh6zPLRBeN349GNwhu0vctzfR82dj89NRUV2311VhnrfXWry3LtXhefw1e2GJ7hwpPZaet9tpst+3223Dz6nTc2M1Nt3V23x1dONPo/+3334AHLvjghBf+IdmG84Z44rgtzrhtZz8u+eSUV2755ZhnXlnemsOWbefPcQ56a3yPbvrpqKeu+uqsF+1466C9Drtnss/OmSf62k43P/zoflvtvmMGfPDEF2/8ZKIfn1nyyl/GfPOVlQ792s9PL1khOlufGqLad+/994oND76J/oxvmvjmCxZ5+lijz/5Y7r9vVPzy12+/5tXfT1b++h/Ff/9FkR4Ai/a/AQqlgAYECgITyMAGxo1+DlSImiIoGQhS8CDru+C2LKjBm3UQMhz8oAhH6K0FkhBiSDshYUyown9ErYXR8hEMDcNCFdZwhjjMoa9C+EEedtCHGsygDp2HBcQL7mMfQyyLPeyRxCY6MVw3JGEURzhFEQrwib6q4ge12EEuYvGLYIxUESk4xgiW0YGo6IIhCLIHgElNIP5oiy4WZog3tswfcyxIxOxIjqbksVxNaUQh9GiwvvhjEXQ0pCD1CDC2uGWREGtkV9YYJyNI5RZMactEXobJmFGiCZw0SB/98Uno4OUrfJnLXwQSGFXWxZFveWXPAhQQACH5BAUHAP8ALAYAKwA2AjsBAAj/AP8JHEiwoMGDCBMqXMiwocOHECNKnDjwjkVrBrlpBGTQ4h2MBbVt7Hgx48iCEiiqXMlSoMZlBy0uOvgy5p2ZJmGSxFmw5s6D2rTpLBippdGjSJMqXcq0qdOnB5lIddevoL+rWwxKZUK14D2sWpksaWfwqr+sBSsggMoW4lVvUZm0Ofj24JIlc8v64xY3r1V/cMP6JXjvXmCCLJa0Xcy4sePHkCNLnky5suWChphc3sy5s+fPoEOLHj0R1R7SqFOrXs26tevXsGPLnk27tu3buHPr3s27t+/fwINvDjdNuPHjyJMrR3p1ufPn0KMfby69uvXr2LNr3869u/fv4CNS/w9Pvrx58vLknV/Pvr10b9Dcy59Pv779+/jz69/Pv7////6ZBuCABBa4UmYGJqjgggYhyOCDEEYo4YQUVmjhZw5eqOGG3GXI4YcgQidgiCSWaOKJKKao4oostuiibMS9KOOMno1H4404PmZjjjz26OOPQAYp345CFmmkQkQeqeSSMS7p5JNQRinllFRWaSV3ntRx5ZYvFqIZl2Cq6GGYZJZp5ploRjhmmmxCuGabcCY4Ypx01mnnnXjmqeeewDXJ55/zJQnooOQJSuihiCaq6KIDGcroo85BYw4cCBAA6aXRWYrpppx26umnoIY635yilnrbm6am+hqqqrbq6quwxv8q66y01mrrrbjmquuuvILpZ6/APuVosMSyNGyxyCar7LLMNuvss9BGK+201FZrbX2kXhstq9ouy2234IYr7rjklmvuueimq+667LZLYDbNuAssP/zI2+ux9uar77789uvvvwAHLPDABBdcZbYGl/ptwpwuzPDDEEcs8cQUV2zxxc6ZhUVYTLBjEDlXbVyQVEuso5c/IhO0lcd/+XNDuf70I08jDRpiSD0nF4WZzTh7dZXOBNk8iHotAz2QzTfrFYp+ZoFgEAZQm/PxVU4XBHUF5lRFUNNPR31yBTDLjJbKU2ndKFgjl+3zWWGNdfLYA23V1db+DIPx3XjnrffefPf/7bdTgyj2N6JeDo6ow4YnrvjijDfu+OOQRy755JQnhW/lXF6O+ZX77LP556CHLvropJdu+umop04n4qobyXrrQr4O++y012777bjnrvvuvPduuT++G6l58C4OT/zxyCev/PLMN+/889DPKnv0HE5PvYbWX6/99tx37/334Iff0q/ig2h8v+l5mv7E9JZf4vnuxy///PTXb//9iSOMv5tfSpy9nv/LVwD3l59CCI6ACEygAhfIwAY6EFrke+CA4LcvCurJgvnCoATZo8ENevCDIAyhCEdIwhzpr4T1GaC8VGgnFrbLhSjMDgxjSMMa2vCGOMyhDpMzDF3scEjAm1gH/+00xHYV8YfLOSISl8jEJjrxiVCM4kJOKEXszFBdgfNUFidWuCp654peDKMYx0jGMpoRehE843OUqC42tsmN6IKjGmHTuTna8Y54zKMe9yg6KvLRN2BEVyDTNEhzFfKPojkkIhfJyEY68pGQ3FUaI3kbOZrLLJ6omSGyVpB+XCWTmBnEIDhJN3+AMmg2I+XZdiCdq0itZp4w20AK88qdaYIu/qglKmOpF10ORJS8pBvFzPIGjvGlk1cp5sjucsxSKpNsTGjm2YywFujURTAHKcxhyDaYs20zbnLB5TcFcpduCiSIlEynOtfJzna6853wjKc850nPetrznvjMpz73yabPfvrznwANqEAHStCCGvSgCE2oQhfK0IY69KEQjahEJ0rRilr0ohjNqEY3ytGOevSjIA2pSEdK0pKatDYkiNdJJUKCKDRDpSt1CAn+EQWXxlSmNLXpTRkyU4HodKcJ6alPYQpUgwh1qEQtqkCO6tOfKvUfTM1pUosaVZ8OA51URUg+nApUEpjlq1dZRxSGsQx4UBWsYDVHFJIw1ZNW9R+urGlbTRoQACH5BAUHAP8ALAYAKwA3AjsBAAj/AP8JHEiwoMGDCBMqXMiwocOHECNKnGjwzp060Axy2zioosWMBTdy61jQ4h2QBDdaI0mxpUuKze6wHCgS5UCTMwXW9ChTozZuNgXi1Lgx6L+hIYu+XMq0qdOnUKNKnUrVKRMmRswZ9MdVjMGrTLQW5OrPa0GwYglyJWe2qluH4ZiQ2crVHJGzV+eOrbsEr1yD/eT1M9eXIFi9avn6RTyQLOG3kCNLnky5suXLmDNr3sy5s+fPoEOLHk26tGhDTEyrXs26NcVw01zLnm0ZNe3buHN75qq7t2+Xtn8LH07cJe/iyJOj2pO8uXPnx59Ln069uvXr2LNr3869u/fv4MOL/x9Pvrz58+jTq1/Pvr379/Djy59PnyI/fvXzU1+uf370/gASF1yA7v1H4IG5DYigerAt6OBtCj4o4YQUVmjhhRhmqOGGHHbo4YcghijiiCSWaOKJKKZIXYQqtpgQUC42V0hhMdZokD322FjcIDTqqKOBPurGX5A/+kPkkUgmqeSSTDbp5JNQRinllFRWaeWVWGbJJJBaWjhkl7sZCWaGLI6JGZdmPlhmmpU1yGaFPL4p55x01mnnnXjmqeeefPbp55+ABiooZ2sOymBshjpVaKLnocmoRIs+Sp6jkj70ZaXpUYrpppx26umnoIYq6qiklmrqqaimqiqJl67qKneRvv8q63OxzmprcbXequuuvPbq66/ABivssMQWa+yxyCrkZrLMfqZps9BK9my01FY1bbXYZqvtttx26+234IYr7rjkDkrKHeWm61Cc6rabUK7uigtvvPTWa++9+Oar77789uvvv64uC/C31w7cbMEGJyuPPAk37PDDEEcs8cQUV2zxxRhT1mrGxc7L8a0efzxryCKXbPLJKKes8sost+zyyxoKDLOSWyxBDl3+dPHVVTfvlfPOTPSs1j336OyX0I2JWa8lhrADGFeUGGSIIXs47XPUBU3dNM5YE6S11YmR0/VAWq9j0AL9rYCBNTivYBAGcLPts9sFwb32VkTTTZDdcif/di8ZTaQ1UD9d7ZwVzm0NhBbiQAsu0FqJC7T4nQjPbPnlmGeu+eacd+7556CHXinJogtKeumAno766qy37vrrsMcu++y01277QzjezmjlutPJe+/ABy/88MQXb/zxyCevPJuqLy9l885DyW701Fdv/fXYZ6/99tx3731kv39/ZPjiB0l++einr/767Lfv/vvwx/8r9PKLSH/9IN6Pf/kIGLC/kpRwxf+SdL4BGvCACEygAn1UwAViqIEOtBAEH7WxCJ5IfxZUU2oyqCIMcvCDIAyhCEeInemRMEQePGF9UigomamwQxN8YX5iKEP60LCGOMyhDnfIw6XcsIfr+SEQ/9OzMFt5og5DvFAhNphECrGwieV5IhSnSMUqWvF9Urxid7Koxe1wsU8u7OIMlSbG/gixjNvZCBrXyMY2uvF6Z3wjdeIoR+nQ0U8VrON6vqhH5PCxjwJiIiAHSchCGpJlfzxkggSpyCgyclVhbGR47ijJ3FCykre5JCY3yclOelJWufvkdzQpStOQMk95LKV1EqnK0bCylaF5JSxnScta2hJLsrxlZnKpy8uY0FXZaEYvqXOfYU7nlMa8DDKTaT2yoEJqUwsHzp6ZtWgCRjDU9Jo1vbMOQ1gCZ2arpjfBKbVBjNNn4dTmORPjj3SSbWrf5BxZmOMXRLGTnoa5ij0HJ9cYfCpOn98hDGMep5h8/sVnjzHMEg7KTrssBmcJ/SdDmUnRilr0ohjNqEY3ytGOevSjIA2pSEdK0pKa9KQoTalKV8rSlrr0pTCNqUxnStOa2vSmOM2pTnfK05769KdADapQh0rUohr1qEhNqlKXytSmOvWpUI2qb5a5U7KQUaoNMRJZsPoQrVL1pkr7ak3JKNaZXnWrXE3IVf/BlX6kFSFrbetbD7JWgQTGrXNtDELumleCDKMeCwusYAPb1yg0Yxn9uM999iGPfSi2r/+IgmEJcle0vjUgAAAh+QQFBgD/ACwCACsANgI7AQAI/wD/CRxIsKDBgwgTKlzIsKHDhxAjSpzY8M4dT9oMctOm66BFT9k0cuto8GPGgtxGUlzJkqXFOyQJcrPGTVNJi7dE1rwJU6fNgnfq9ESZ8ifBlzEHptzZsqnTp1CjSp1KtarViKiYGGTCJNLBfvJ6HeTq1aA/f2K3dj14Nu3Vtw65MgnWr6A/cv4aqWWSVODZvHvp2j2rtyATI3PrEjzbb1FgxQP/FoZLubLly5gza0Z4drPnz6BDix5NurTp0047o17NurXr17Bjy66qerbt27hz697Nu7fv38CDCx9OvLhx2Ya0Hl/OvLnz56uTQ59Ovbr16yulY9/Ovbv35eGmff8fT768+fPo0+8Or769+/fwJw5aEr++/fvvCynHz7+/f+va/SfggAQWaOCBCCaoIIG1LejggxC+1WCEFFZooUQTXqjhhhz+g8oeHYYo4ogkltjShyamqCJ/Ga7o4ovltQjjjDRat88+Neao44489ujjj84FCOSQRCK3X5FIJnmakEo26eRm7D0p5ZRUVplQlFZmqSVLTG7p5ZcKdQnmmGSKSeaZaKap5ppsWiVjm3ASKY88cdapJD/82KknkSju6eefgC7XZ6CEvvhmoYh2eGiijFq4aKOQRirppJQyZ2almBJ4aaac9rdpp6DWh2WopJaa6aimpurep6q26h2rrsb/eh2sstZq66245qrrrrz26uuvwAYr7LAODkrssbfNieyytuHJ7LOwPQrttNRWa+212Gar7bbcduvtt+CGhmq45HJ5ZLnoTkRruuwWVAh97cYr77z01mvvvfjmq+++/PZblbH+pittwNsOTHC2Bh+s8MIMN+zwwxBHLPHEFFfM3LgWT7tuxsFuzPGvHn8s8sgkl2zyySinrPLKLLMJcMu9JgxzqzLPnGrNNtfI1SBfyePKWEzwbJY/P6sl9GBFG7bE0QEbYkhOQ4tnkNNQFwQWNAdRzZY/UhekddRZD1K1gRhggEXPjVRgUNlnD5322mZv/XZBGFTQNsFNNFHWYG4R/0RWz30P9PfQgQs0ON9jLTFZzozDh3PjnT4OeabDoDL55ZhnrvnmnHfu+eeghy56nSGPXmjppgdaeeqst+7667DHLvvstNdu++1++YM7o5LvTubqvgcv/PDEF2/88cgnr/zyUurHPJyoP/8k8NJXb/312Gev/fbcd+/990ODr2Xv4ue4yt7lp6/++uy37/778Mcvv63Rz19i/faPSH3+/Pfv//8A5A7GAvgi/BGwQgY8YIQSGDHyKTBCDnzgg/YnwQpa8IIYzKBUSHEHDabIHvbwoIkiKMIBkRBiDCzhf1Kowv5QsIUwjKEMZ6i+AdLQQSy84XtyqMP2zIdxzuohhf9OKMT2vLCISEyiEpf4uZcxkUG6eyKCiCjF71CxYTysIneyqEXsnK+LYAyjGMeoMBuScYfnOmN9uKjG5rDxYFdso3PiKEfmHLGOeMyjHveIKyfyMUZR/GN66ChI4BDyYG8sZG8Sqcjd3LGRkIykJCf5JW5gjZLe+SEmu8PITcKmk/06pCdjI8pRvuaRpkylKlfJSgj5sZXGKSUsSyPLWY5GWTlzni3dmMZdEgeVvgwmkO4SjqwZwnJDK+bUjrk1ZXptD8jcjiH2YIiuRcYf/UjaQJxWzaH5Y2wC4aY1/YIXcP6Dm83wpjnFubm7jNNwTAAR2NQiz8G88x+HqSd2DpOamME05jGDAYxhuCKYxeBlcfDkizcRik+CQkaYEI2oRCdK0Ypa9KIYzahGN8rRjnr0oyANqUhHStKSmvSkKE2pSlfK0pa69KUwjalMZ0rTmtr0pjjNqU53ytOe+vSnQA2qUIdK1KIa9ahITapSl8rUpjr1qVCNqlSnStWqWvWqWF3WnOiUVYGQIJ3/wJNYu0qCKNyiGbr7S1cDAgAh+QQFBwD/ACwCACsAOwI7AQAI/wD/CRxIsKDBgwgTKlzIsKHDhxAjSpxYkJvFQQbvaIRm0CI3jAU13uFY8WLGjR21gaDIsqVLjSBLkgx5JyZBi9DqnLQ5EOdBmAe1cZtJEGhHiy6TKl3KtKnTp1CjSmXpr6oYg0yymjPYzyrWJUu2Fqzq72rBrEzEEqxqZMHUtxCzkjlY1dwSg0uYzDVYldxBuXT92cWq96C8foPPMjE7Ntw0uJAjS55MubLly5gza97MubPnz6BDix5NurTp06hTq17NurXr17Bjy55Nu7bt27hz697Nu7fv38CDCx9OvLjx48iTK1/OvLlzg6j2PJ8O2RAT6tizU7SuvTtT7t7Di/8nCH68+YfRz6tfz769+/fw48ufT7++/fv48+vfz7+///8ABijggAQWaOCBCCZInWMKIldVgxDC9WCExE1I4YVNWYjhbwxu6OGHIIYo4ogklmjiiSimqOKKLLbo4oswxijjjDTWaONm6d1oWnk6Qshjj6H9CCSCQg7ZWY5GJqnkkkw26eSTUEYp5ZRUVmnllVhmqeWWXHbpWodeQqVhmPCNSeZSZp7JXppqtgRmm3DGKeecdNZp55145qnnnnz26eefgAZ6IpKCGlRkocfdEQSiPy3K6HKHFkroo5RWaumlmGaq6aacdurpp6CGKuqofr5J6qmrsYnqqqOpyuqrsMb/KuustNZq66245qrrrrz26it2k/4qLEuRDmtsQ8Ueq+yyzDbr7LPQRivttNRWa+212MJlarbDusrtrt5+K+645JZr7rnopqvuuuy26+67ogUL76vJzjtqvfbmq+++/Pbr778AByzwwAQXTN+2BmeKVMKdhsvwwxBHLPHElKLlV0Fd+dMFYUZcvFZVGyvGhMcDkRUyQRZna8jK6/BVFSWGrswOVy8bOsggM49Vc0ErG5Lzx/7AzLPM/WFgtDU0+7OCQUZXgLTOSjN9tMtRF2Q0Bk9f28TWapXslchdC5QxYwMxAVbY/5BFtkBooa02YWn9QwDFdNdt992YOow3nnrv/22nPPL4LfjghBdu+OGIJ6744ow3zhu+jncJeeRbTk755ZhnrvnmnHfu+eegh35p36I3SXrpS56O+uqst+7667DHLvvstNfumuW2y4h77jDuzvvvwAcv/PDEF2/88chnu3DyM6rOvIjOPy/99NRXb/312Gev/fY+Xsf9ib5/j+Agd13qiU7il1iI9+mPGH778Mcv//z019+tP/ZvGH3+/O1vJ8L8Q5D/AoiffeyDgAhMoAIXyMAG1ul9DowPBCP4ngnSSV4U7I8FM7ieDXLwgyAMoQhHSML1DLCE3jkhCrWjQjkBcIXxaSEMpyPDGdrwhjjMoQ53+BZF8RA+Hvzhcf+CCCcMClE8RDzicJKoxCY68YlQjGL9aihF3lCxiroBHKay0Qwseocf/PBid64oxjKa8YxoTOPlmKhG2LCxjbdjX6WMCMclyrGOxylE+fDIxz768Y+ALBgZA1maQRKyVfi71AsPmRtDMhI0jnykJCdJyUpaElFvvKRmMqlJzAiJLKiwmSHCQbVQxGyUVAvl0FAJKUNYwjD9aFnMhKYzWQ7tlS6zJUEG4crAoO0fhkiDdCCGisdAbZgoy4sxgXYHuC3Ta/5AZtmy8kzkAMYgh0kMyhbjyz1Ocy860+ZA8gLOj5FsmtLspDrXyc52uvOd8IynPOdJz3ra8574zKc+98lXz376858ADahAB0rQghr0oAhNqEIXytCGOvShEI2oRCdK0Ypa9KIYzahGN8rRjnr0oyANqUhHStKSmvSkKE2pSlfK0pa69KUwjalMAwjGmXqNHImUaUAAACH5BAUHAP8ALIAAKwC9AfQAAAj/AP8JHEiwoMGDCBMqXGiQm8NFBu9IbNbwYcSJDbVxg1hQ4h2KDEOKHEmS5LSLdwBV5GYNpcqC2jS27CgRkLaCDlm6XDmToMeXJYMKHUq0qNGjSIv6W9rGIJOn4Awu9de04FMmUQv2k9evKsGrWZOKHUvQnNOnW6QubXeWSdqC9+75Y2v1KRa1c9u+JTiVLsElS9wWXEq2sOHDiBMrXsy4sePHZAlDnky5suXLmDNrZix5s+fPoEOLHk06ZOfSqFOrXs26tevXsIcaYhK7tu3buHPLpq27t+/fwFfPDk68uPHjjYcjX868ufPn0KNLn069Omjl1rNr3+550BLu4MOL/2dciPf48+jTC8Wuvr379/Crn45Pv372+fbz62+Of7///7/1B+CABBZo4IEIJpifgAo26OBkDD4o4YSHRUjhhRgWtc8+GXbo4YfMsQfiiCQeJGKJKJJ4YoosdrhiizDGKOOMNNa42Ys25ugfjjr2WB+PPgbpHpBCFmkkiRYeqeR28siz5JPo8cMPlFSGl2SVWGap5ZZc1nZll2Dm9mWYZMY2ZplosnZmmmy2+RuRbsY5Gpxy1ukZnXbmeRmeevbp55+AYshnoIQWBocRdRgAQKGMPrZoo5BGKumkuK1J6aULWYrppmpx6ulQmn4q6qiklmrqqaimquqqrLbqKlGDvv9KaKyyAkprrX7eiuuuvPbq66/ABivssMQWayxSoR4bZrLKdslss1s+C+201FZr7bXYZqvtttx2i5uu3hbpXbhplkcumuCeq+667Lbr7rvwxivvvEZKSy+K9t6LpD/6PplvvwAHLPDABBds8MGridFWTwNNRcbCBm3Vz8N1MXHSYEtR/NVTmiDccUGGDGKIWRj78zFBhqRMMl9LnTxQyiNHzJXLAsG8csMtG2RIFwjMYBAGQA+Dl88FAY2B0FpxRTRBRgeTT8lLD2S0Fwi3cdXVgYWFM1VtaS3QVF4NBJbMXXWNVxtNNPFP2mnv8CjCcMct99x012333SRKiXeL/+7/DWDffvuHyh6BF2744YgnrvjijDeuXrqO01fId5FPOG7lEoZzMeacd+7556CHLvroewNOunWmn05d6qpLN3jrsMcu++y012777XFCjvtzuu/eXO++L6d58MQXb/zxyCev/PLEsc68l/w+v53z0r/2evXYZ699m2Tctf10wH//Wvjit3Y5o+aWDx356qvGfvuoDQ///PTXX6L89htHff6a7c8/Zv5TUgD/V5kNEZA49rDHAYNzvQU68IEQPE8DI3ib91FwMha84GMyCCUOapAxHvygYkIoQsTgr4QoTKEKW3PCFaZmgC5EVvRi+MIZFgqGNFSKDXM4GhzyUCgT/KEQ/4dIRKMEsYiauUMQkHgd8zBRMyQ8UhSfGJIpUnEhVrxiQlqoxS560YVc/KJjfChGnJWRMk2ClN7OCBkyntGNZTwiG+dIx/rJsY6GySIb9XhGPvbIj2KcHB4Zc75BmnBzhkykIp8XxkXK0JGGgaMYJZkjSnrRkl3EpBbvCMlOejJ2nPxkUAD5RVLmiAWFMMRNSuYKnaVslQSJiz9aCbKUIfJrS6ElykAQHSfV0hCRwIsvCTIIkQUTY/1QhyuBKcxlHjOWchmmQJ4SqassAy+DaMs14SKXbFYMaSzzhze/UgEDQKcdTvzHVfayNb8MBDCCQaY51LaxeIbTndNEi0FkiQRPCgUEACH5BAUGAP8ALIAAKwC2AfQAAAj/AP8JHEiwoMGDCBMqXJiQm7VeB+/csXSQGzeIBiVSNGgRY8E7dTYyHEmypMmR2iyGyijRFUeVLO/Qeslt5UeJMwta5OYpZk6CO20SlCjzpNGjSJMqXcq06Ul/5IY1MciESaGD/vxJpWoVq9apBZkYueq0rNmB8vr5EzmwKpOeBbOu5crk50C5bAUuqWpXoNxFdPv+wxv4rOHDiBMrXsy4sePHkCNLnky5csJhqCxr3sy5s+fPoCEbYhK6tOnTqFOrbjx6tevXn7PCnk27tu3bjWXj3s27t+/fmH8LH068uPHjyJMrX868ufPn0KNLn069uvXr2LNr365wGCnu4MOL/1eqe7z58+gJlk/PnmTr9vDjW38vv7595sHv69/Pv7///wAGKOCABBZo4IEIJqjgefkt6OCDSxWyBIQUVmjSIBNaWJ099mjo4Yfq+QPiiBo2SOKJKKao4oostujiizDGKOOMNKJmYo04irdejjxut2OPtNEH5JDzkUbkkdT1AheSTDbp5JNQRinllFRWaeWVuN2I5ZaqCcnll6d5CSZlP45pJmdlnqkmZVqu6eabcMYp55x01mnnnWa2ieeeRqXJ558j+QnooIQWauihiCaq6KKMNuroo5BGepZ3khIqZqV3Xorpppx26umnoIYq6qiklmrqqZXqiSqX++yz6pocvv8q66y01mrrrbjmquuuvPbq62WZ/RqlpsISSWyxyCar7LLMNuvss9BGK+20m6lKbYuCXrtittp26+234IYr7rjklmvuuQ5aiy6Fx66L2z336HJQVXt4JS9X9RqU1b0FLbFEvnH5w+9ALMxgblbZkEWQIYa4pC85CRvEsMMBR1zQxF5ZvPAeFIdoDbyaHIQBBkYGHLJBI5cc4skFpewVywM1cMLBWs3b1cPD2KxwiDlztfNdNVM1llc919auuw6iAjDSTDft9NNQRy311FRX3Sy3Vv+Hddb9hTMN12CHLfbYZJdt9tlopw3g0Wqzx3bb6CkN99x012333XjnrffeZG//zfd18sjzd3reQDP44YgnrvjijDfu+ONcvg35cpJPnpzclmeu+eacd+7556CHTpvfovNGeum4eV2qAQSgvpwVN7gu++y012777ZZX/ijma+ru6OlS8i4q8LinRnzxyCev/PLMN8/s8Yuq7ib0ivoepfSjWu98Z9pv7/334Icv/vh8dq+o8GdiWGrgb5JyR6n88EP+atTPb//9+Oev//4n1o8o9mry36HM1yQAhoqA/DMMAhPIwAY68IEQjGB0Fmgo9JmJgoUS4JEs+CkNSvAoHvygCEdIwhKa8ISICeGgDGgmFQIKg0Ni4adgiMKE0LCGOMyhDnfIw/zd8E8cBNMPl/nkQh4FsVNF5GESe8jEJjrxiVDU3BLxJEMwsY9U6nNT4UpVCJVFESlD/KIYq2eIJYXIHD/7B8PMCDQ0GmQQZfSKOa4jl2AtjGHN0FdWPDIQhhkijwVJiz/4KBA/6qIfARukxPCoR0XaqSpw8Io2bBZJPU7SIHupZMAuWZ2/FCaRefmHWwQjyFC6hY2DyYop+dLIUAIoIAAAIfkEBQcA/wAsggArALcB9AAACP8A/wkcSLCgwYMIEypc+G9VM4PcIi4yeKfiw4IRuRmiaBGiRI53ljEcSbKkyZIRrR2scwfQwYjTDlZ06VElR5oFrXGzWXCmtpoyW54cSrSo0aNIkypVaOiNQX9Q2xhksoQJuKdQ0zApyKTr1YJQ/Unl6nWp2bMEobY7aITJloP++pk72PUt1rVT3R4k5w8vWSxw+9LVi7aw4cOIEyc0tFWx48eQI0ueTLmy5cmML2vezLmz58+gQ4seTbq06dOoU6tezbq169ewY8ueTbu27du4TUPNzbu379+UdwMfTry4cZPCjytfzry58+dp/UGfTr36aHnyrGvfzj0yP37dw4v/H0++vPnz6NOrX8++vfv38OMXzCy/vv3a9O/r3786P///AAZ4n38CFmigZAQeqOCChSXI4IMQRijhhBRWaOGFGGaoIYXJbejhgh1+KKKAIY5o4okojlRiiiy6t2KLMKb3Yow01mjjjTjmqOOOPPYI4yBL+Cikc4U0NuSRxjmI5JJMWqdkk1DK9mSUVLY2ZZVYZqnlllx26eWXYJ43Y5hkTjZmmWg6dmaabLZp2JpuxpkUnHLWSRSdduap55589unnn4AGKuighBZq6KHqXYmonkAuSmiRjkYq6aSUVmrppZhmqummnHbq6W14fpplqKJWSWqpqKaq6qqsturqq7DG/yrrrLSSpmitPt6KK4+67urrr8AGK+ywxBZr7LHIJhveqcp+yGyzGz4L7bTUVmvttdhmq+223HaLZa/eSghuuBCOS+65kYZFxlRV8TSQunkx4a5A8JIlr0H9yNPPuuhG548mBhki8FxgQQXwfIMYQrC/lgQ8MFb/OqwwvvpqEtYMBmFQAQbDQIxxQRiE3HHB/nxMUMgcU9yPyf3+E9ZYBHVlFcQwD0TVzCRrZe9X/tYskMw8D5RvPz63HKi5RguIdNIALs00f+HE9PTUVFdt9dVYZ6311uNJyzV7Xn+tXthio4fKHmWnrfbabLft9ttwJ+103N3NTfd2dt9tXdR69//t99+ABy744IRT+V3hMkqHuJiKL17e2Y5HLvnklFdu+eWY25Z35rdtznltdwTxeXV8j2766ainrvrqrMdNduusvQ67arLPjhrktueu++4Sls57b7X/HlrwwsvqefGgHY+8Z8ovz5nvzkcv/fTWkXIH9bM1in1szW9fKvHeRwZ++I+NT75iuJ+v/vrsnwZ9+6WZD/9Z8s8/KaT2l9Z9/mbtz79S7/ufAAdIQJOkr4Cc8R8Ch6LABQ6qfg4kCQQjyJCIUFAzB7ygBjd4vgByUE2N+yBkJijCOjWwhPMxEgoVc8IVCsSDLoyhDE2XwRmepYUuxKENyUTCFfYQhT8sYQ2md0jEIi6OG9Aw4lnsYQ8lmiWITsySDlE4xRJWUYQwjKIWt7i2IXKxJFf8YBi/yKTDkfFOITxjSaD4QS+q0SSG2IMhflKwfqBCYnT0lyvw+BS+7JE6fMmOwxoBnoIJcj6GiERgDkkQOSryKf1Qx0EE9khD5okJbRFJHXFis65o0l+DiNcn38WXUAJSMHkBzF0GY5eC+YUgbWllWuTShLzI8l2oFFBAAAAh+QQFBwD/ACyFACsAtwH0AAAI/wD/CRxIsKDBgwgTKlR4546lg9y49TrY8KFBbdomGqwIUeLBOhIWihxJsqTJghG5hdrYkNbFiCsLNrwjy2DKmARnukQJk+WdnQQjasM5sGGkk0iTKl3KtKnTpwkxMCl00J+/YU0MMpl68N49rFq5GrQKtiCTCgigql1L0Ko/iwS3MgE6UF6/t2GX1CzoFu5AuXQF9jW4ZGvgf1bvUcoal8UStpAjS55MubLly5gza246DNXmz6BDix5NurTp06hTq17NurXr17Bjy55Nu7bt27hz697Nu7fv38CDCx9OPHXn4siTK1+u1irz59CjSxfsb7p1186va9/OfXb27uDDi/8X3cvT+PPo06tfz769+/fw48ufT7++/fv48+tPfny///+7GcIEgAQWOJuABsaHYIIMNmjagg5GKGFm/U1o4YUYZqjhhhx26OGHIIYo4ogkFlhhiShK+F2KLDK4YovFvQjjjPvJSOON9p2I44489ujjj0AGKeSQRBZp5JG8DUMKkkxOB2GTUCr3ZJSuTUnllcBZieWWu+nI5ZdghinmmGSWaeaZaKaJoZdqtvmZjW7GeVlEcmpGZ514XgZnnnxCFYpffQYq6KCEFmrooYgmquh4bC7q6D9aPrpopJJWaumlmGaq6aacdurpp6CGKmqHjY4a556mtolqqqy26uqrsMb/KuustNZq6624SlhqrlhSyuuVvv4q7LDEFmvsscgmq+yyzDZ7pJLOMrlqtD1OS+212Gar7bbcduvtt+CGO+yu4pYYbLkj3hEEuuy26+678MYLo1W6HLTVHlWRU29Y+I7lz75mMdEvX//K6681BxliiCtV+ZMNVQUpzLBBXj1skMQNWxzxwhlvYZUmB2EgVb4gGyTygP6WXNDJDatsMHXD2CsWwTGHBXFBXtUc8M1tXSUzzwOR5cPLRBdt9NFIC3du0g4O8hjTHJJyB9RUV2311VhnrfXWXHddp7Ve3wd22PWFMw3ZaKet9tpst+3223DH3drScqtHd93ooTIw3nz3/+3334AHLvjghM86duHTHY54dGYv7vjjkEcu+eSUV245gXdfPlzmmgend+eghy766KSXbvrpqBP86uduyiPPq67H6Q00r/LDT+rIKY777rz37vvvwCfNOaaNuzn8pcdTyXqryQevWiFPOy/99NRXb/31xOp+6fJqam+p91EW3yr42IdGfvnop6/++uy3H2XzkoqvJvyP0s8k96na7/5k+u/v//8ADKAAB4if8zkKf2gy4KIUeCT5pYqBBGwKBCNIwQpa8IIYzGBs+pcoB6LJaa8CoZuk9qpCoEyDmeEgClfIwha68IUw7Nnq9pamCR7KhkPy4KhwGMOB7GMfPQyiEJmHSMQiClCFh9KhmZBoKCYKCYGjcmIQpWjEKlrxiljMItx4SCgomskf5kiYIcxjELuYA2iQMoTLggZGNCqMjAQLY3fcohGCDEJhzfDXPQA2EIUZIo8E80cd+4jHMt5lkAJR2CCW0Y9AnkobMoPDQewCybC8oWGVDJgk/ZXJ7QymIIWZix4XEzBRBhJQ/wCMIfESML34qzoRCggAIfkEBQYA/wAsgAArAL0B9AAACP8A/wkcSLCgwYMIEypcaPCOQ0kGuUkc1vBhxIkV70AsKJEbRYYgQ4ocObKZq4vcVmU8yVGiyoIO77AkKFHbS4IxZw7seHNgToPaXJIcSrSo0aNIkypFyqQpoHAF/UmFZrApE0D9ok6tuuRqVoJS/VFdSrZswXA9BYYNVbVp2n9rDXZl8tZfP3lsC1qtKzUvwb0G7/U1S7iw4cOIEytezLix48SGmDyeTLmy5cuYM2tmHHmz58+gQ4seTVpk59KoUysdhkq169efWcOeTRuh1Nq4c+vezXvp7d7AgwsfXvs38ePIkytfzry58+fQo0ufTr269evYs2vfnluePO7gw4v/X8yP3/jz6NMbNa6euuz28Ie+jy/9NP37+MPbz8+/P/X9/gUo4IAEFmjggQgmqOCCDDbo4IMGAQjhhBQeJmGFGGaIVCFLaPhaMH55aB2IIqrGXokopnjQiSq2mCKLLsYo44w01mjjjTjmqOOOPCoEY49A3vdjkESqN2SRZs2HZG5KLmnYhU5Gud0gHUppJXiFSHblllx26eWXYIYp5phk6gZlmWjidmaabL62ZpsGNQmnZXLOaZs/dubp2pF69pkZn34GKuighBZq6KGIJnoUNObAgQABikZqGKSSVmrpUnVeqilJb27qaUKdfioqQaGOauqpqKaq6qqsturqq7DG/xprprJWCmitiN6Kq6G67urrr8AGK+ywxBZr7LHIJjsUicoSWmqzaD4LLZnSTmvttdhmq+223Hbr7bfg1kZruF32Sq6T3p1LZnnqtuvuu/DGK++89NZrr5fj3stjtfrSyG+/Mv4L8MAEF2zwwQgnrPDCqg5iUFgf/dUUHA9LFfFATHRFsVb+BNMWExuD5U++9+pi0F39eBOhIYbw5Y/KBbHccsUvRzjIzBzDTCrLdYWyABY0v4XB0EEEbRAGFWBQNMetFTS00hWHM43CGxGE8lgSXwWVyGJ9jBXHWGPc1ddchy2QVWQPNDLDbLft9ttwxy333AxmSbeLAt+dYN56H/+Iyh59By744IQXbvjhiCcOnbmKB7jPPo1DaI89kT8odeWYZ6755px37vnnBPMNOniij75d6aZn93fqrLfu+uuwxy777FIyTrt1tt9OXe66S3d578AHL/zwxBdv/PGqoY48cMovz1vzzuu2evTUV78cAtZbR4lO2S+OZ/fS8Q5+v+yO773556Pv3O/qt+/+Z+y/jxz08odGf/2f3Y9/t/rvnxmH/iMOlQI4nOkR8IAIPIoBE6gb8THQMw58oGYiKEFtUbCClrkgBimjwQ0+Jn4eDCECvWE2EaKmfyYsDApTaJYVstBXLnyhUmIoQ6TQsIZGWSAOd5g9HfJwMx38IVnzJCJE0ASxiLU6IhKPosQlFqWJThwKCKNIRdpNsYqOuSEWD6LFLcZMS16Elt3C+JgukvEfZiSjD8/Ixs2tsY2FgSIctTJHxcixjrb6Hh4N87g9HmZyfjTMFQNJyLsNspBGSWMYFelFRiJyTo7EYiSrOEkqvvGRmGQbKe6QSaXcEY+frGMonRQWdazMEJagmSkLMoibpVIr/RDHKV8Jlh1MZx0XU4tUPBYzluXyH4Lp2MoG8cuw8HJnhijmLg1ys2RqKizkaIJempIGmkWzIEvoSjVhqTOMUfNhRsBedMzhshCdzS2BGcw0l1DOj7UTm+jMUEAAACH5BAUHAP8ALIAAKwC3AfQAAAj/AP8JHEiwoMGDCBMqXJjwTp07w7wV5EaxkcE7GCNOrHgxo0SC3Kxxs8iwpMmTKE1i3HOQorWDK1tShHmHpUGK3GjekZmzo82NPVMKHUq0qNGjSJOiZGKEycuC/vz1g2OQidWnBKP621nQqlOD/shtVUq2LEGrUA5GJXcQrT+wUdsySWuwX9yqTJaovdt17t63ZgMLHky4sOHDiBMrXsy4sePHkBXyjUy5suXLmDNrTjx5s+fPoEOLHl24M+nTqCkbYpK6tevXsGMnXi27tu3buHMLpK27t+/fwIMLH068uPHjyJMrX868ufPn0KNLn069uvJCrK1r387dKO/u4MOL/y/4fbx5k6bPq1/PPD379/CFu49Pv779+/jz69/Pv7///wAGKOCABII3X4EIJpjSPvso6OCDKdljD4TQDaIXhRhmSFB5GnboIIcehijiiCSWaOKJKKao4oostujiaSC+KON2Mc5o43Q13ojagTr2qByPPgZZnDzyCGnkkUgmqeSSTDbp5JNQRukbkFJWuRmVVmZpGZZaGpZjl2Cqll2YZF72ZZlopqnmmmy26eabcMZJ5ply1nkSnXbmqRCeevbp55+ABirooIQWauihiCaq6KKE8cMPo39yCWmakk5q6aWYZqrpppx26umnoIYqKqN8jvpkIReaSqaFqrbq6quwxv8q66y01mrrrbjmmlKlur7Ia68t/grssMQWa+yxyCar7LLMNutsZKU+K2K00npIbbXYZqvtttx26+234IYrroLCjgtgueaOtsUSTDQDVz9p4NUuXP60Ia+7Bd1zT73yDgOYQOgWa4khhrAFVVSkGGTIHgW/60kh5BFscFYIKywxWGIlHLEh2qyAAQa69HNwPzdoUNDHIItMsT87GIRyyPnu2/LJH8tycLhkNNEEVgNpxdVZTfEMsFRU9fXVwWMZLfQ/YSV9llXQxBZwuvtNTXV+qPx09dZcd+3112CHLfbY+F1LNn1mnw1f2mqzF840bcct99x012333XjXbXXe1O3/zbd0fv8NXdaCF2744YgnrvjijLfJduPMsQq5edhNbt7blmeu+eacd+7556C392/ogI9OOnSBn14b4aq37vrrsMcu++ybP047bLbf7lrughqgJua6By/88MQXb/zxs6auJ+toKp8n70I6byf0QTKP/PXYZ6/99tx3HyX1fgKPJvh9Sj8j+XqaL6P43rfv/vvwxy///PWpH6f1ZBIJquRoOgpq5WnCH/0GSMACGvCACEzgZtCXJ/bNaUydsp+LGGgnCbbIgQrMoAY3yMEOevCAFnSTAMEUQsdBkEwlZBMFZzTCD7rwhTCMoQxnaLkVygmDYLJhnFKYIh3CiYcowiENn4dIxCIa8YhI3BYQA6g1FJpuUz4M1hM1FUUWtTCJWMyiFrfIxS5aqoptEqKW+Ncp/aUJgJ7yX5rE6MU2uhE4WvGExQxhjUetjBZztIbKBiIPu+BxY8HYY3MIBghBDm2KBFvEXw6SyL1MbEOGUCS9GBlJOWkFEKkSiFeCQa9GZPIfmzRIH/3hSaO5Ijrs+uQh5UIXpLHSkax8olZeCaCAAAAh+QQFBwD/ACyDACsAtwH0AAAI/wD/CRxIsKDBgwgTKlzIbdjBO3ckHdTW8GHEg9wqGoQo0WDGYAtDihxJsiRBiHdcYeS2aiNElR5Zuky5smXBOi8xarN5MmdMniaDCh1KtKjRo0gN+oN2kAkTQP0MyuvH1KDTPQf9LW36NGpBrVWTih0r0CkToAO1hrLKZAlagWrZns3qb21BI07f/usnzy5Bs3q1DmJCtrDhw4gTI9SquLHjx5AjS55MubLly5gza97MubPnz6BDix5NurTp06hTq17NurXr17Bjy55Nu7bt27hz696d2hBh3sCDCx++0Dfx40OHoULOXLTy5tBDGo9Ovbr1z4OWXN/Ovbv37+DDi/8fT768+fPo06tfz769+/fw48uXz3i+/fup6+N3/Xy/+f7+saZfgAQWWNmABiao4IIMNujggxBGKOGEFFZo4YUYZqjhho9Nx+GHBHoIYmQAjphbiSY6JmKKLLq3YoswxijjjDTWaOONOOao44489ujjj2Pxww+QRAKHYJEjoYjkZ0ouudCRTkbZGpRSVmnllVhmqeWWXHbp5ZdghikmSS+OaWZiZW65SiRnPrammGm2KWdScc5p55145qnnnnz26eefgAYq6KCEJthkoX1Sieie8siz6KOQRirppJRWaumlmGaq6aacIndop17WCeqWoo5q6qmopqrqqqy26uqrsMb/Kmttn84KpKK2/ohrrrz26uuvwAYr7LDEFmvssfDViiyMpS6bYrPORivttNRWa+212Gar7bZzvsntiLt+S2G44pZr7rnbOQXHQVM5xNa6SvnjbkHq0jUvQUswAS+6AxliSGD+eHOQv3pNJbBB/pJC18EFEbzwQYP8+w8GGATBbj96UWxxvBlXTJdeFXjM70BNNAFVvGH91ZVUVHGFFcpcnfzVVgblK/PIOOccG7k6G8hzzwSGMw3QRBdt9NFIJ6300kw3vSi0Trv4W9QBovIy1VhnrfXWXHft9ddgh13bz2KDR3bZ3gmN9tpst+3223DHLffcxkJNd3N2342c1Xr3/+3334AHLvjghBde4dmG35ZR4tGpzfjjkEcu+eSUV2755Ufljflqmm+eGt+ehy56Zd6kPPpsnZ8+Wuqqh8Z667DPjXjsoM1Ou2eO36777iKBzvtq++zzO2v22DP8arYfr7zWry8vWfPOQ+Z79NSfnnv1rk+NPWjQb49Y996Hj27y4iNGfvmGXY/++oVPz/5l57+fVPzyH0V//fg7C37+Qt2xMf+TcR8AB8g29RGwMfs7oEgSqMDiaK+BEJzW/SKokAlSECEGvKAGmUaKO2zwMBb8YFr8IcLChLCEKLQUA0u4QhEKMIUwHFkGYxiUQmiHhkbJDg6N0sId+vBPJxRhEI0/OMMfGpFaLzzik0ioxJIMcYNPbKIUzdTDDVZRg0mcokjI4Q91DMwQlKCLFxFmCEuI8SB7KKN10miIew2ELyBpmL+GkY94xZEg/mojXe7YL0MMwo1w8QcfBZJHQJqJi+RoAlvIQJdEsiUNjVTkXZgAyergZS4G4YtfBgIYumyyLHnxJFvcIkp6hbJAAQEAIfkEBQYA/wAshQArALgB9AAACP8A/wkcSLCgwYMIEypUyK3hMoN3IjbSVrAht4cFI96ZWLHhMIgSKRLUBmKhyZMoU6oEeQeVQYuuWLqsqE1bzIwRZxKEKfNlw5sENeoc2HCl0aNIkypdyrSpQn9QsxlkQrVOv4JQ/UktuGQJE6tY/fWbNrXqVYL+jCxwyrZtQapMPBnMCnQgXLlY792rK/DuXKh8//kt2A/w1K540fpzy7ix48eQI0ueTLmyZaZQL2vezLmz58+gQz8eNlS06dOoU6tezbq169ewY8ueTbu27du4c+vezZsy6d7Agwsf3toQE+LIkytf/tg48+fQo0tH6Hy69eLHr2vfzt129e7gw4v/Fz1oyfjz6NNLHkZKvfv38OPLn0+/vv37+POj/62/v3/omf0n4IDCBUjggQjaZmCC9C3I4IMQouZghBRWuNmEFmao4WilbejhhyCGKOKIJJZoon/8najiid+t6KKILb4o44YxzqhcjTbm+CCOOvZIII8+BtlfikIWaeSRSCap5JJMstZLYk1GeR4//Ehp5XgYXqmldFluyVqXXoaJHJhilgkcmWammRuRarbp5ptwxinnnJ6xSeedqwGJ556g6cnnn5vdEQSgnAlK6KGf+Ynooo7BYUQdBgDA6KSTSUrppZhmqummnE5nZ6egpoRmqKSGVeqpJ42K6qqsturqq7DG/yrrrLTWaqumn96aqaK6Lsprr4f+CuywxBZr7LHIJqvsssw2q2yuztKparRtTkttmtZeq+223Hbr7bfghivuuOSu9mS5bRaSHbpmCsuuku6+K++89NZr77345qvvvitCy6+Q2f77YsACr1hUwQgnrPDCDDcMKFxp/OUPNFMZwUTEYfWDEUEQS0zxW1Rh7DB1hhiiicTkGFSyIaGgbNAgg7D8Vz/cqFxyy2H5k3JBK6fRAAZA3yBxLwZhUAEGQmd8S9FBD8000iMn1MTUb0icjXkcm5Xz1Vx5BZZi/Xyc9VdnDZQV12N3EfXabLft9tv2EQw3hfLIM7eLVN69Yjhk6f/t99+ABy744IQXbrh98R7+X+KK98d44/mRcgfklFdu+eWYZ6755oLLzbl7nn+eXuiin8d36ainrvrqrLfu+ut3Pg67drLPbl3ttkuHyh659+7778AHL/zwxCdHevEFLoa8eMcv39vpzkcv/fTUV2/99QP6Syfuq3LvZXnKgo+ousqSj+ju2Kev/vrst+/++61pP2fzp9Kvpf2k4m+l/qDyHyU3YoOfAAdIwAIa8IDuk5+cvHcqBmrJgaSCoJUkCCoKRgl9CMygBjfIwQ560HIKjJP/ODVCJpVQUydUUgoxtUIkQe+DMIyhDGdIwxqiaxWR8NW6jmXBJvVwUz9cUhDsd7VDQGHQhkhMohKXyMQmgiqEcGohpaRopLopy4qIyluytHioFzrxi2AMoxjHSMYiQfFNQ8RUGpG0Rkq10UhvZFQchSS5MtrxjnjMox73eJ8zuomKjAIkwJSHLEEGyZCHQmSPvMjHRjrykZCMpCRf48c2zRFRl/SRIVggCYnZrSAxM0Qnw3IPddhMlJ485QkIAJ6VBcMghfHHMgrBM5i9Mmcf4VnJbqkYWdKSIK6ci15mCbJFoYIJXpDYOgziFWT+5R7maALInJmzZU5TAwYAz2AIEsvAMAExEvMmVaAkELqUJS7C3MtUeJehgAAAIfkEBQcA/wAsgAArAL0B9AAACP8A/wkcSLCgwYMIEypceJCbw0gG70gMZtAhN0oRJxrU5hBjQYl3ejEcSbKkSZMc92S809Chyo8SW3J7SRCkTJoDbVZ0ufKkz59AgwodSrQoUX9I6ywpyKRpM4NI/QEy2JTJ04Ly+kml2lRXP6NgwxLMaoUrk4NRyzJtihapWoJMlpyF6tZsW39vB1YVy7ev37+AAwseTLiw4cOIEytezLix48eQiyKNTLmy5cuYM2tuu7mz56GG5n4eTbrx5NKoUxMMrbq169ewYwNlLbu27du4c+vezbu379/AgwsfTry48ePIkytfzry58+fQo0ufnriQaOrYs2tXSHt78dPew4//7C4+OPjy6NMnP6++vfv38OPLn0+/vv37+PPr38+/v///AAbYHHsCFmigT/vsc6Bngyy1IHL22PPgZuRNaOGF/1SI4YYcdujhhyCGKOKIJJZo4okopqjiisBpyOKL0rkIY1gEzjiajDZK5k+OPDonjzw9BinkkEQWaeSRSCap5JJMNunkk0DVCOWUmUlJ5WrXXYmYlVpmmGWXYD6GY5hklmnmmWimqeaabLbp5ptwxinnnLtxSeeddOGpJ0N27unnn4AGKuighBZq6KGIJqrook6OySiajj5qZqSSVmrppZhmqummnHbq6aeghmpkhKKC2WepSZ6K6qqsturqq7DG/yrrrLTWauuelN76Yq66rthgr8AGK+ywxBZr7LHIJqvssoGpymyHzj67YbTSVmvttdhmq+223Hbr7beN3QOHWcHsSFBUdZBrUFb+pLvWEsF8dW5SVLEwA7b+rGLQIIYYwg1d/lhiUL/+AqxvQQT/i5VWB6/W7zAAu1JIQV0gcA8RBmGgMSoAG5Hxxutq5XFBGmMQSscZN3ACvoBUVZVcVgE87loxFxTVVDRfNZZWOMPVlbwD3dzEP00U3cQOroUzDbhMN+3001BHLfXUVGNIbdXzXY11fFpv/R4qOHkt9thkl2322WinrTZJhTi4dn2/vl0fr3J7p3TdeOet99589//t9994dg24coIPjlzhhhvnibuJN+7445BHLvnklE9Hd+XCXY55i19urtzdnocu+uikl2766aYjjrprqq+uWuuuowZ27IkbQADtw1lxA+6Zd87778AH/5zmwpdGfPE3+o58bKAvXzfszlcGffSRTU/99dhnb1iC2sdGavevWQ8+YrOPX/bx5oupfPoUrs/++/DH7xP68iNGf/2G3Y8/YdnovD/U/ODH/zYjvgHSyFwGTKAC01fABQ6lgQ4MCgQj+JPyUbBb+rugUTKoQaLcIQgdDKEIUcfBEf6khCY8CQpTWJLmsfBZE3whZ2RYmBjS8IY45JYNc7hDHPbwhhbM4bG2VijEgbmviKA5IhKXyESmta2JfIkbFMFCxCa6cIq6+iENtShDLmLxi2AElRdZOMYUltGEiwujrqyjxiS2UShVfCOZCtEvaABNIFHRxcDqeMd/3AMpekSYIQbhPzwC0iAgMABxkNKIPRriLo2YmMMeaZB+ZCWSgqSkzRgpyYEQDJKdbFNVvLJJf1BiaD5jAikJ8kdTolIvcbkFwE5ZkAp8By92AVheBLKXSpIll6Xc5T96GUwBBQQAIfkEBQcA/wAsgQArALYB9AAACP8A/wkcSLCgwYMIEypcmNAat2UH79xppM0gt4cRJ1YseBGiwToaGYocSbIkyYuuItZBdRBlRpYWuaU0KBEmR2szC9ZsKfOlyZ9AgwodSrSoUZPk/GU7yITJm4P+lDJlUqefwahLDRqhavWo168Do+YkyMSIJ6j+xg5sevZq2qltC/ojp1YgW7R1/90Fy7ev37+AEw6zGbiw4cOIEytezLjxYUNMHEueTLmy5cuYKUPOzLmz58+gQ4seTbq06dOoU6tezRpt69ewY8tuHXW27du4c0serLu379/AgwsfTry48ePIkytfnrxXXObQo0tHzI/f9OvYsx+trb279+/gw4v/H0++/M/N5tOrF45+vfv3tnnDn0+/vv37+PPr38+fvvz+AAYYWHsCFmigUYUsceCCDDbo4IMQ4sddhBQ+OGGFGB74X4YcdujhhyCGKOKI+21I4onmXYjiiuKpyOKLMMYo44zzEUjjjcoNoiCOPCY3DCk9BinkkEQWaeSR3ZmI5JKs2cjkk6g5CeWUVFZppZEuXqnlZVlu6eVuhH0p5phklmnmmQEqieaaYHXJ5ptEuQnnnHTWaeedeOap55589unnn4AGCp5zgvpZSGSF8illoow26uijkEYq6aSUVmrppZhmKpqamnopZ6dW7rMPqKSWauqpqKaq6qqsturqq7Ce/8ZprEMuSquQtt6q66689urrr8AGK+ywxBYr3azGnvhpsiIuy+yz0EYr7bTUVmvttdhmCyWy2kKYa7cPfgsubPf4A81UaaB1rkFNpevWugUtwYS7cvXj0bhyzXWQIYaEclBS5OxriCZoBWwQv/66ZXBBe/QLVT/clNvLQRhgcANaExtU8cVuZVzQxg/fgq9b2exIFlcGJVUyu06htXJBTVVFsskDbSVzvdOoJu7IBu7Ms4Co7PHz0EQXbfTRSCet9NJMG+ts0/Q9DTV84eQ89dVYZ6311lx37fXXYNfnc9jgjU22d0GfrfbabLft9ttwxy331vLIM7d41d0dXtV69//t99+ABy744IQXXqXZhvuGeOK6pc3445BHLvnklFdu+eWoSY35a5pvzhrfnocu+uikl2766WBxi3rm/pC5uKCdH/n66p85TvvtuOeu++68qx1Mwr1HiaiYsQs6O5HFB08Z6Mo37/zz0EcvfayqTz9Z8kTq2GndZB5qPWi2fy/++OSXb/75V1aPvmHHD4n9n+0L+f76XjFP//3456///vzfp37/XplfkOLXJwH2iIAALEn4EsjABjrwgRCMIGn+J0GTIJBHBtzTBXGUwQoWxH4eDKEIR0jCEpbwdyYsSgdvtME8rZBGLRThAlNIwxra8IY47B0Fc/iPGM6Ie5rS3phe8sZDkoCwiEhMomT4NQi02O1ghpCEEwUmRZJBZy7LKAQUg4GWLG6xi1osiCH2wEW3DENgZcyXF9nUFCugZR1T8cIb44gWa1yRLnDBSx7dkpeyPCcsb2HZHwUiFv4EBAAh+QQFBgD/ACyDACsAtwH0AAAI/wD/CRxIsKDBgwgTKly46k4wg9wiUjJ4p+LDghG1SaJoEaJEjnUWihxJsqRJjBH3cLxzkJs2bioLVmTpEebKlilv1oxJcObJn0CDCh1KtKjRhIYwNDPorykgg0uYMFlasOk9QEsKSp3K1KnBrTsQHB1LdmBTf1a+Sj3YT16/tFrXdkWrlsnBs3AJMol6t2negVvLCh5MuLBhpHYPK17MuLHjx5AjS55MubLly5gza97MubPnz6BDix5NurTp06hTq17NurXr17Bjy55Nu7bt27hLN83Nu7fv3yJ3Ax8OVDjx452NI1+eUDnz59CjZ5YnT7r169iza9/Ovbv37+DDi/8fT768+fPo06tfz759e0OJ3cufXxo+/db274fPrz81//4ABijZfwIWaOCBCCao4IIMNujggxBGKOGEFFZo4YWMOYfhhvdpyOFiHn4oW4giFkZiiSiSd2KKLLbo4oswxijjjDTWaOONOOao445EFRIfj0DeRmCQJA1J5GZGHqlQkko2iRqTTkYp5ZRUVmnllVhmqeWWXHbp5UgrfilmWWFKGdGYjJ3ZZZlotikUm27GKeecdNZp55145qnnnnz26eef+kEJaJ2CDjrnIFkZquiijDbq6KOQRirppJRWaumlw8GJ6ZSabhplp56GKuqopJZq6qmopqrqqqy2ylqhrub/CGusN85K66245qrrrrz26uuvwAYr7HmgDothscZaiGyyzDbr7LPQRivttNRWa22XdwRxrYi2bstgt96GK+64z50VUkFRMXERQWelUVcw/lTV1Ll6SbXuQG75Qy+5/5y1ikGGBMzNXP8WNIjAXd2DCsAIy+tPwQQFbMjABeXryllGGFQBBhgs7LAPBnHc8VwZFySyxwTlWzK//XoVF1cOP4WuVFSx689ViQJG81wy1wtzyv340zPLRBeN349GNwhu0vctzfR82dT89NRUV2311VhnrfXWry3LtXhefw1e2GJ7hwpPZaet9tpst+3223Dz6nTc2M1Nt3V23x1dONPo/+3334AHLvjghBf+IdmG84Z44rgtzrhtZz8u+eSUV2755ZhnXlnemsOWbefPcQ56a3yPbvrpqKeu+uqsF+1466C9Drtnss/OmSf72k43P/zoflvtvmMGfPDEF2/8ZKIfn1nyyl/GfPOVlQ792s9PL1khOVufGqLad+/994oND76J8Y6vW/nmjxZ5+liLzz5Z7r9/VPzy129/59XfT1b++h/Ff/9FkR4Ai/a/AQqlgAYECgITyMAGxo1+DlyImiIoGQhSECHru+C2LKhBeXUQMhz8oAhHGK4FkjBiSDshYUyown9ErYXR8hEMDcNCFdZwhjjMoa9CKEIeftCHHcygDquHBUQN7mMfQyyLPeyRxCY6sYQpfKICoyjFk9yQhAKsotyoqMUicbGLIrkiGMdIRkMV8YJnpGAaI4iKLhiCIHsIGDT6UZW26IJhhoAGE23mjzsWRGJzLAg5muLHcjWlEYX448H64o9F4JGRiPxjwNjilkhGbJJdeWOcjCAVXdCRXW2ZyMt0sUezNIUSTRjlJwcySH+gEjp4+Qpf5vIXgQSGlnWh5FtyybMABQQAIfkEBQcA/wAshgArALYB9AAACP8A/wkcSLCgwYMIEypUeOdOI20GuXFbdrDhQ4PaJlZ0CLGgRIoGJSwcSbKkyZMHJbraiColt5UGG7aM+JKlS5gFZR7Upg0nwUgogwodSrSo0aNIEzJhUqefQX/+sh1c2tTgvahTmbw5CFWqwQpJw4rl6s/nwKWeyJoVuGRJ2qdls74tCHXtP7QH791by2LJ2L+AAwseTLiw4cOIExc1xESx48eQI0ueTLky4GEzLWvezLmz58+gQ4seTbq06dOoU6tezbq169ewA2OOTbu27dufoeLezbu3b8C6fwsfTry48ePIkytfzhxx8ObQo0uHLE/e9OvYs/8dRkq79+/gw4v/H0++vPnz6NPvnq2+vXvejN/Lnw87Pv37+PPr38+//3X7/gUo4GEADmjggWKxh+CCDDbo4IMQRijhhMopSOGFCz6H4YYDasjhhyCGKOKIJAbmYYkonndiiiyKZ2GLMMYo44w01mjjjSP1MheOPB5XSGM9BllcgUIWaeSRSCYZGZFKNrkak05GadqLUlZp5ZVYZqklllRu6WVkK34pZmJhjmnmmWimmV6ZarZ5FDTmwIEAAW7WGRadduap55589uknZ13+KShBUA5qaKGGJqrooow26uijkEYq6aSUVmppjIFeeiabmorJaaeghirqqKSWauqpqKaq6qqsfphpq0oi/wprkrLOauutuOaq66689urrr8AGm6WOwgrJDz/FBvlpssw26+yz0EYr7bTUVmsttK9ey2Gt2mLIbbfghivuuOSWa+65RUEFTVZpHESOP+satFS7cMVb0Lxk2YvuQP70w81BhhgSClnkACxwXv4UbFDAmhBs8MBwSQJVLwdhgMEN7vpDsUEWYwzXxgV1TBbI+wrUr75nMeUUXVH5da/KVrUsr1ZkZeMyQVStTBBUmZXs889ABy300IIOcjPRC/6IdIOo7LH001BHLfXUVFdt9dVYJ7ls1uhtzbV53KD89dhkl2322WinrfbabAf2bdvYvQ33dE3PbffdeOet99589//tN6Ve/11c4IIPF840hSeu+OKMN+7445BHDp7cktdGeeWx1Y355px37vnnoIdOWrait0Y4ktWVmrqYx5a+2+Guxy777LTXbnvlpN8+2uVI8t6o70YCr7tmpNwx/PHIJ6/88syXm3vzlp1+pPSMUl+k9dArBnv23Hfv/ffgh8/o8+InJryQ5yeafo/rlz+W5u7HL//89Ndvv4irAHU/ZNgr60+p/etRAPc3lO0R8IAITKACF8jA5JCvgURpH46MVioKiklpEBwM/DLIwQ568IMgDGGCeiZCowwQRyf8UwpttMIQhq2EMIyhDGdIw/s9sIaEAtKXJPgnHtrIhyHcIA54h0jEIhrxiJK7IRFbSCOoWGdhhpDEQfrhjycWxBCD0B/LrEioKJLlBgiADlSWUQgoBiMv9yCjGcmixisa4oxwaSNBBjEIOO7sf57yxzqy4oUp6nEqS+gCWfY4sz7ChQjRqYtc0GgXvMClkUzYEb/iYpC2SNJkAgoIACH5BAUHAP8ALIAAKwC9AfQAAAj/AP8JHEiwoMGDCBMqXHjwjsM60Apym8htUEGHDiMSpFjxIkaNAylas8iwpMmTKE02u0Ny40SQAzG2DPnSoEyD3LRxgynwpsSaHlniBJqyqNGjSJMqXcoUKZOnRswV9EfVn5iCT59KJVjVasElWbcOrEruatOzaAeGY0LGYFVzRLA+bTuVqrklctka7Cev3928dLnaxUswa+Cxg9MqXsy4sePHkCNLnky5suXLmDNr3sy5s2elhph8Hk16c7hppVOrXo0yNOvXsJtSjU279mjXtnPrPjh7t+/fjVHtAU6cdu/iyJMrX868ufPn0KNLn069uvXr2LNr3869u/fv4MOL/x9Pvrz58wL58UMfXjj790yPw9+Oe779lPLvX6+vv7/C0/5hx1+ABBZo4IEIJqjgggw26OCDEEYo4YQUVmjhhRhmaNCAGsK2U4fiFUIYiLHZYw+J4A0yIoqs5cdidu692KI/MtZo44045qjjjjz26OOPQAYp5JBEFimji0Y6FmOSxSHJ5GIcPqmbk1KiFWWVtQGIZWMqbunll2CGKeaYZJZp5plopqnmmmz6dmWbCWkJZ2dvzukWjXZyVmeeiPG52ZJ+IkRloIQWauihiCaq6KKMNuroo5BGeh6gklaa1J6WZroQppp2uqFonoYq6qiklmrqqaimquqqrLbKlJyuav86aKyOzkoro7bequuuvPbq66/ABivssMQWexQpdxibaJfKHspps2s+C+201FZr7bXYZqvtttx2+xus3p6Za7hbjktulfLIc+667Lbr7rvwxivvvPSOSWm9TEqLb4/67rtjv/4GLPDABBds8MEIJ6xwQeAuHN0WS5BTF1Vd5MWExIJR/FVWGCN2zz0VF8bxxAhbYgg7BfVFFSUFGeLyHihn7A/LBLnscsyIrVzQIDbjLBBZNA9ksyHrFBTKAitgYM3E/qxQEAZQK8200wRVEPXSgn1M9UBRS50xwmQ0IZZAKnslMhNRMW3WQFkxMfY/Xa0tEFhaTVyWxW8PA5y5Dvf/7fffgAcu+OCEFw4mwIY/iHjiDS7O+IKOPy755JRXbvnlmGeueWT77LM5hSZ+PiHfovtHeumop6766qy37vrrvEYOe3iyz/5d7bZ3x2zuvPfu++/ABy/88CSeTnx2xh9/XfLKV8d889BHL/301Fdv/fUm4Y49cdpv/1v33u8GfviVI2AA+dtR4gr62j3P/vvwxx+e+/LXRn/9sd2P/2v6a3rv/swZHwBJI8ABfqaABkygAhfYGRExcDm7e2BxEChBy1DwUQ2r4G76p8HMcLCDl/kgCEdIwhIuRIQmhAwKU+iYFbKQMekClifq8MLaFAJUNYTNBXN4lh3y8IdAJJ8P/4OIlCES0ShGPGJKkpioDCpxMy584lGiKMWiTKSKWMwi/qioxZJwsYsnxBMYMfPFRf1vjJJhIhprhsM1UkaNboyjHP8GRzfWcY13RGMeA+XEOS6mjH4E5BwF6cdCGpJgnTvkY0KnyMYQMo6PNNQZG8mUPYLRkl3EJCU3yclsaTKLn8RiKKsYQV5loxmdTIt6UomWSK7RlazMU1dQ0TKbhYNptCQIz1x2S67wpR+5FJotC7KD82FnHYawxJ38UbRaJnOZzawZz5Q5sWgK85nV3JDLqCmprgznbExAjcy+ORC6hXMqvySnQNomzoEYAQHZucthfpaYs80TbvVkG1ju+QuWuNhzmX/5p4YCAgAh+QQFBgD/ACyCACsAtgH0AAAI/wD/CRxIsKDBgwgTKlyY8M4dT9oMctOm66BDT9kkcqto8GLEgtw2MhxJsqTJkg7vcCTIzRo3TR0d3tL4MqZKmjAL3qlzE2TInARTrhwYsubJo0iTKl3KtKlThKiYGGTCJNLBfvJ6HaRq1aA/f1qnVj34NezTs2gFUmUSrF9Bf+T8NRLLZKjAr3Lptn37dW5BJkbYuiX4td8ivYMH4vWbtrHjx5Ajk/UnubLly5gza97MubPmr55Dix5NurTp06NBo17NurXr17Bjy55Nu7bt27hz695t0JBU3sCDCx++2zfx48iTKw9tfLnz59CjJw03Tbr169iza9++kDr37+DDv/8etES8+fPoNxf6nb69+/dNm8OfT7++/fv48+vff1I1//8ASudfgAQWSNyABiao4G2o7LHggxBGKCFBDU5o4YWhIYjhhhw+pmGHIIa41D77iGjiiSimqOKKEcrH4ospugjjjCHKSOONGHqH44489siUjj4GqaCNQhbJH5FGJnkfkko26eSTUEb54IdSVvmdPPJYqaV4/PCz5ZfcVQjmmGTiJ2aZaC5HZZps8rZmm3De9macdNZp5511MonnnqfpyeefovkJ6KCbAUnooYiSZmiijGImaKOQnvVopJQuNWmlmGaq6aacdurpp6CGKuqopF54ZqmoYonqqv90ySqqc77/KuustNZq66245qrrrrz2yt+ivjZ6abB4DkusnYWUd+yyzDbr7LPQRivttNRWC+Wp1tYZa7ZkbsstmN5+K+645JZr7rnopqvuusECy26Vxr4bZLzy9khvvfjmq+++/Pbr778ABzwctgL7GG7BKx6McIoKLxwcVYNcJY8rWzERsVf+UCzWxXxp/NcSHDuckCGGzIRxdb2VLDE0B5FsMl8oF+TyZDETZMggt2CAARYSN1KBQTrzjLHPQO88GdEFYVCB0CIn1EQTXfFlFkFcSTz1QFVjfLVaY2m91RKMNf1qw2J3SHbZGw6DCtpst+3223DHLffcdNdtt0n33k1g3noD/6h234AHLvjghBdu+OGIJ17k2YrPx3jj7/0N+eSUV2755ZhnrvnmnJO0Xuf68Q16dpKPbvrpqKeu+uqst+66po+/nlzssh+3StS156777rz37vvvwAcPnejC30Z88bWVjvzyzDfvfK/uPj/c8dK3Rn31q11vJe3Ys8Z996gpD/745JdvPpyk3HE+cPbYs76blL2v2/daai+/Zvbfj5n4+vfv//8AtFD0Apg99hDwNfk7YGPIkyhXKfA19HugY/gnwQpa8IIYTA7BMpih+HGQNBH84FJCKKUEivAoJjyhSW6nwha68IUwlMwAYwiZFNIQITa8YW8MOCgS6jAhPvzhQcUoKMQiGvGIFtwgEp8SxCU2EYlPbFIOjTjFIhJxiVjMohbHxw2WbfEsDPziU6ooRDIuzoNiZEoUjXjFNLrxjXBcnRLjOJI1FtGOQlQVoj5HR6SYUYdt7KMgJQOXcLTMEGvDmCFTlki+LFJme2jkdwyxB0PU7C7+6IfHBkIyS2LMHy/jJMku+Q+4gDJlhmjGJ0MpkE6SslFweSVVHHSyitESZlsxwi2/AxjB8MUwiOFLXv5Clb0QJi5h41pdPpnMf6zFmBIKCAAh+QQFBwD/ACyEACsAuQH0AAAI/wD/CRxIsKDBgwgTKlTIreEgg3ciQjPYkNvDghHvTCxY8SLBjBsJctMGYqHJkyhTqsR4x6NIbiE/tjzYEFodiDMpwjwY0eVAbTtx+hRYcaXRo0iTKl3KtKlCf1DFGGRC1ZzBflGnLllitSBUf1ILUmXSlSBUIwucql1LkCqZg1DNLTG4hMlbg1DJHXQL15/cqXYPyuv3VyyTsF7DTWPLuLHjx5AjS55MubLly5gza97MubPnz6BDix5NurTp06hTq17NurXr17Bjy55Nu7bt27hz697Nu7fv38CDCx8+GdUe4shfG2KSvLnS5c6jn4YuvfpJ6tazdzauvbv37+DDi/8fT768+fPo06tfz769+/fw48ufT7++/fv4tSvO3x4q/9v+/adegALORmCB5u2H4IIMNujggxBGKOGEFFZo4YUYZqjhhhx26OGHIGLGXYjCYUciZiae2FuKKlLGYou5jQjjjDTWaOONOOao44489ujjj0AGKeSQRK6nYJGpHYjkSkouSVqTTp4EZZSgHUnllVhmqeWWXHbp5ZdghinmmGSWaeZoMp4p2Ytg3hGEmpS5eSabcLKVZp145qnnnnz26eefgAYq6KCEFrqhlYYmOmWigi7K6KOQRirppJRWaumlmGaq6aac/ndnp2rSCeqYoo5q6qmopqrqqqy26uqrsMb/Kmt9iM6KpaO2Iolrrrz26uuvwAYr7LDEFmvssTV+iiyPpS5rY7PORivttNRWa+212Gar7bat1sotiQ19O+Ou4pZr7rnoTjuWXgVh5U8XgBnBrllQwWsYE/MO9JW9bVGVb7r/GCLwOnhBRYlBAhvCzlUGIzzIIAt71XBBCUdMrz8HUyxwxBh0bA3D/qxgUMcVfCxxyCN7XDDKBXWMgckAC9TEzGXpm9W9NQvkLmIDMbFVzv98xbNAYwEtNGBk/UNAzEw37XSm5D7tYNRSMyiPPFVnrfXWXHft9ddghy22qdCOXV/ZZs+Hdtpst+3223DHLffcdNfdG9V2m4d33uTt/83334AHLvjghBdu+OHHro14dYovHl3jjkcu+eSUV2755ZhnfmG4mmvnd+e8fQ766KSXbvrpqKeu+urPMcd6ia6/Dtwgc5nqyU2yA1dI7LmvyHvvwAcv/PDEmyp68aUdj/xoyhfq7fKwNQ/9Z/vsM/312Gev/fZRQs49Z95/r1n4hiorvmnkn29Z+uq37/778MfvnfTyN0Z//WzdH+jz+G+mf/9N+R8AB0jAAhrwgI+REwLH97sFVoZ9gzKfAyMDwQmupIIWzKAGN8hB9Qmwg30BYWSudqpsNEOEkOEHP1D4mA+y8IUwjKEMD4fBGdZQhjf0kwRnaJQcwrAQteOhEJSHSMQiFs6FL0QiC5WoJ/4Z0SRMFGEUn0jFKlrxiolrIBYT4sMXsugrqHCYIcKxslAgTGBkPFkYNTbG7gjMEoLpB8HOmDGJzVFjcCzYHQkyCEPkUWJAC1gajmMmVCzmZIRsS10OebE7II2RNvNHIntGFUhWhy8GGUxh+jU0gcQliJS8CyBBKZC6iJJe/yIaEyaJoIAAACH5BAUHAP8ALIAAKwC9AfQAAAj/AP8JHEiwoMGDCBMqXGiQm8NFBu9IbNbwYcSJDbVxg1hQ4h2KDEOKHEmS5LSLdwBV5GYNpcqC2jS27CgRkLaCDlm6XDmToMeXJYMKHUq0qNGjSIv6W9rGIJOn4Awu9de04FMmUQv2k9evKsGrWZOKHUvQnNOnW6QubXeWSdqC9+75Y2v1KRa1c9u+JTiVLsElS9wWXEq2sOHDiBMrXsy4sePHZAlDnky5suXLmDNrZix5s+fPoEOLHk06ZOfSqFOrXs26tevXsIcaYhK7tu3buHPLpq27t+/fwFfPDk68uPHjjYcjX868ufPn0KNLn069Omjl1rNr3+550BLu4MOL/2dciPf48+jTC8Wuvr379/Crn45Pv372+fbz62+Of7///7/1B+CABBZo4IEIJpifgAo26OBkDD4o4YSHRUjhhRgWtc8+GXbo4YfMsQfiiCQeJGKJKJJ4YoosdrhiizDGKOOMNNa42Ys25ugfjjr2WB+PPgbpHpBCFmkkiRYeqeR28siz5JPo8cMPlFSGl2SVWGap5ZZc1nZll2Dm9mWYZMY2ZplosnZmmmy2+RuRbsY5Gpxy1ukZnXbmeRmeevbp55+AYshnoIQWBocRdRgAQKGMPrZoo5BGKumkuK1J6aULWYrppmpx6ulQmn4q6qiklmrqqaimquqqrLbqKlGDvv9KaKyyAkprrX7eiuuuvPbq66/ABivssMQWayxSoR4bZrLKdslss1s+C+201FZr7bXYZqvtttx2i5uu3hbpXbhplkcumuCeq+667Lbr7rvwxivvvEZKSy+K9t6LpD/6PplvvwAHLPDABBds8MGridFWTwNNRcbCBm3Vz8N1MXHSYEtR/NVTmiDccUGGDGKIWRj78zFBhqRMMl9LnTxQyiNHzJXLAsG8csMtG2RIFwjMYBAGQA+Dl88FAY2B0FpxRTRBRgeTT8lLD2S0Fwi3cdXVgYWFM1VtaS3QVF4NBJbMXXWNVxtNNPFP2mnv8CjCcMct99x012333SRKiXeL/+7/DWDffvuHyh6BF2744YgnrvjijDeuXrqO01fId5FPOG7lEoZzMeacd+7556CHLvroewNOunWmn05d6qpLN3jrsMcu++y012777XFCjvtzuu/eXO++L6d58MQXb/zxyCev/PLEsc68l/w+v53z0r/2evXYZ699m2Tctf10wH//Wvjit3Y5o+aWDx356qvGfvuoDQ///PTXX6L89htHff6a7c8/Zv5TUgD/V5kNEZA49rDHAYNzvQU68IEQPE8DI3ib91FwMha84GMyCCUOapAxHvygYkIoQsTgr4QoTKEKW3PCFaZmgC5EVvRi+MIZFgqGNFSKDXM4GhzyUCgT/KEQ/4dIRKMEsYiauUMQkHgd8zBRMyQ8UhSfGJIpUnEhVrxiQlqoxS560YVc/KJjfChGnJWRMk2ClN7OCBkyntGNZTwiG+dIx/rJsY6GySIb9XhGPvbIj2KcHB4Zc75BmnBzhkykIp8XxkXK0JGGgaMYJZkjSnrRkl3EpBbvCMlOejJ2nPxkUAD5RVLmiAWFMMRNSuYKnaVslQSJiz9aCbKUIfJrS6ElykAQHSfV0hCRwIsvCTIIkQUTY/1QhyuBKcxlHjOWchmmQJ4SqassAy+DaMs14SKXbFYMaSzzhze/UgEDQKcdTvzHVfayNb8MBDCCQaY51LaxeIbTndNEi0FkiQRPCgUEACH5BAUGAP8ALIAAKwC2AfQAAAj/AP8JHEiwoMGDCBMqXJiQm7VeB+/csXSQGzeIBiVSNGgRY8E7dTYyHEmypMmR2iyGyijRFUeVLO/Qeslt5UeJMwta5OYpZk6CO20SlCjzpNGjSJMqXcq06Ul/5IY1MciESaGD/vxJpWoVq9apBZkYueq0rNmB8vr5EzmwKpOeBbOu5crk50C5bAUuqWpXoNxFdPv+wxv4rOHDiBMrXsy4sePHkCNLnky5csJhqCxr3sy5s+fPoCEbYhK6tOnTqFOrbjx6tevXn7PCnk27tu3bjWXj3s27t+/fmH8LH068uPHjyJMrX868ufPn0KNLn069uvXr2LNr365wGCnu4MOL/1eqe7z58+gJlk/PnmTr9vDjW38vv7595sHv69/Pv7///wAGKOCABBZo4IEIJqjgefkt6OCDSxWyBIQUVmjSIBNaWJ099mjo4Yfq+QPiiBo2SOKJKKao4oostujiizDGKOOMNKJmYo04irdejjxut2OPtNEH5JDzkUbkkdT1AheSTDbp5JNQRinllFRWaeWVuN2I5ZaqCcnll6d5CSZlP45pJmdlnqkmZVqu6eabcMYp55x01mnnnWa2ieeeRqXJ558j+QnooIQWauihiCaq6KKMNuroo5BGepZ3khIqZqV3Xorpppx26umnoIYq6qiklmrqqZXqiSqX++yz6pocvv8q66y01mrrrbjmquuuvPbq62WZ/RqlpsISSWyxyCar7LLMNuvss9BGK+20m6lKbYuCXrtittp26+234IYr7rjklmvuuQ5aiy6Fx66L2z336HJQVXt4JS9X9RqU1b0FLbFEvnH5w+9ALMxgblbZkEWQIYa4pC85CRvEsMMBR1zQxF5ZvPAeFIdoDbyaHIQBBkYGHLJBI5cc4skFpewVywM1cMLBWs3b1cPD2KxwiDlztfNdNVM1llc919auuw6iAjDSTDft9NNQRy311FRX3Sy3Vv+Hddb9hTMN12CHLfbYZJdt9tlopw3g0Wqzx3bb6CkN99x012333XjnrffeZG//zfd18sjzd3reQDP44YgnrvjijDfu+ONcvg35cpJPnpzclmeu+eacd+7556CHTpvfovNGeum4eV2qAQSgvpwVN7gu++y012777ZZX/ijma+ru6OlS8i4q8LinRnzxyCev/PLMN8/s8Yuq7ib0ivoepfSjWu98Z9pv7/334Icv/vh8dq+o8GdiWGrgb5JyR6n88EP+atTPb//9+Oev//4n1o8o9mry36HM1yQAhoqA/DMMAhPIwAY68IEQjGB0Fmgo9JmJgoUS4JEs+CkNSvAoHvygCEdIwhKa8ISICeGgDGgmFQIKg0Ni4adgiMKE0LCGOMyhDnfIw/zd8E8cBNMPl/nkQh4FsVNF5GESe8jEJjrxiVDU3BLxJEMwsY9U6nNT4UpVCJVFESlD/KIYq2eIJYXIHD/7B8PMCDQ0GmQQZfSKOa4jl2AtjGHN0FdWPDIQhhkijwVJiz/4KBA/6qIfARukxPCoR0XaqSpw8Io2bBZJPU7SIHupZMAuWZ2/FCaRefmHWwQjyFC6hY2DyYop+dLIUAIoIAAAIfkEBQcA/wAsggArALcB9AAACP8A/wkcSLCgwYMIEypc+G9VM4PcIi4yeKfiw4IRuRmiaBGiRI53ljEcSbKkyZIRrR2scwfQwYjTDlZ06VElR5oFrXGzWXCmtpoyW54cSrSo0aNIkypVaOiNQX9Q2xhksoQJuKdQ0zApyKTr1YJQ/Unl6nWp2bMEobY7aITJloP++pk72PUt1rVT3R4k5w8vWSxw+9LVi7aw4cOIEyc0tFWx48eQI0ueTLmy5cmML2vezLmz58+gQ4seTbq06dOoU6tezbq169ewY8ueTbu27du4TUPNzbu379+UdwMfTry4cZPCjytfzry58+dp/UGfTr36aHnyrGvfzj0yP37dw4v/H0++vPnz6NOrX8++vfv38OMXzCy/vv3a9O/r3786P///AAZ4n38CFmigZAQeqOCChSXI4IMQRijhhBRWaOGFGGaoIYXJbejhgh1+KKKAIY5o4okojlRiiiy6t2KLMKb3Yow01mjjjTjmqOOOPPYI4yBL+Cikc4U0NuSRxjmI5JJMWqdkk1DK9mSUVLY2ZZVYZqnlllx26eWXYJ43Y5hkTjZmmWg6dmaabLZp2JpuxpkUnHLWSRSdduap55589unnn4AGKuighBZq6KHqXYmonkAuSmiRjkYq6aSUVmrppZhmqummnHbq6W14fpplqKJWSWqpqKaq6qqsturqq7DG/yrrrLSSpmitPt6KK4+67urrr8AGK+ywxBZr7LHIJhveqcp+yGyzGz4L7bTUVmvttdhmq+223HaLZa/eSghuuBCOS+65kYZFxlRV8TSQunkx4a5A8JIlr0H9yNPPuuhG548mBhki8FxgQQXwfIMYQrC/lgQ8MFb/OqwwvvpqEtYMBmFQAQbDQIxxQRiE3HHB/nxMUMgcU9yPyf3+E9ZYBHVlFcQwD0TVzCRrZe9X/tYskMw8D5RvPz63HKi5RguIdNIALs00f+HE9PTUVFdt9dVYZ6311uNJyzV7Xn+tXthio4fKHmWnrfbabLft9ttwJ+103N3NTfd2dt9tXdR69//t99+ABy744IRT+V3hMkqHuJiKL17e2Y5HLvnklFdu+eWY25Z35rdtznltdwTxeXV8j2766ainrvrqrMdNduusvQ67arLPjhrktueu++4Sls57b7X/HlrwwsvqefGgHY+8Z8ovz5nvzkcv/fTWkXIH9bM1in1szW9fKvHeRwZ++I+NT75iuJ+v/vrsnwZ9+6WZD/9Z8s8/KaT2l9Z9/mbtz79S7/ufAAdIQJOkr4Cc8R8Ch6LABQ6qfg4kCQQjyJCIUFAzB7ygBjd4vgByUE2N+yBkJijCOjWwhPMxEgoVc8IVCsSDLoyhDE2XwRmepYUuxKENyUTCFfYQhT8sYQ2md0jEIi6OG9Aw4lnsYQ8lmiWITsySDlE4xRJWUYQwjKIWt7i2IXKxJFf8YBi/yKTDkfFOITxjSaD4QS+q0SSG2IMhflKwfqBCYnT0lyvw+BS+7JE6fMmOwxoBnoIJcj6GiERgDkkQOSryKf1Qx0EE9khD5okJbRFJHXFis65o0l+DiNcn38WXUAJSMHkBzF0GY5eC+YUgbWllWuTShLzI8l2oFFBAAAAh+QQFBwD/ACyFACsAuAH0AAAI/wD/CRxIsKDBgwgTKlR4p+EwbwW5SWxksOGdhwW1aeNGsaDFYQYlcjRYR8LCkyhTqlwZUWTFhnsMbpT48k7MljQ9wgzpUqdNnhpfRmJJtKjRo0iTKl2qEAMTJtYM+pt6x+BTqAbv3fNXteBVaFKpWq2AgKnZswSnTrX6FIpBef3WemWyxG1Btf7YMrGbVq3BJW3DarXKYgnaw4gTK17MuLHjx5AjKzXERLLly5gza97MubPnz6BDix5NurTp06hTq17NurXr17Bjy55Nu7bt27hz695tWi7v38CDC2fqe7jx48iTF0/OfPTy5tCjS1/9fLr169g1y5OXvbv37+DDi/8fT768+fPo06tfz769+/fwzVOOT7/+7fn28+tvjX//+f7+BSjgZwAOaOCBkhWI4IIMNujggxBGKOGEFFZo4YUYZmhhdRp2eCCHHoboH4gi4kZiiSjCd2KKLK63YoswxijjjDTWaOONOOao4448BldIZT0GCZ2CQhYZHJFGjoZkkkzeB2STUOa2ZJRUVmnllVhmqeWWXHbppYcvfinmY2GOaaZiOZ0JWZpqtklmXm7G2Rg05sCBAAFy5okYnnr26eefgAYq6KCEDjdloYj+c2iihC7K6KOQRirppJRWaumlmGaq6aacylhmp15+CiqXoo5q6qmopqrqqqy26uqrsMb/KmuGjs7KZK22Golrrrz26uuvwAYr7LDEFmvssVryww+yRpbKLIvOPivttNRWa+212Gar7bbcSrtrtxd+C26FdwQx7rnopqvuuuziqFYbejUjFTn+wDsXE8PAOdC78YZVb7th9eNJIQUZYjA5/pJikMGGIFyQVv4oXLDB2iS88MH+prGAWjsYhMHHuvRzF70dF/QxBrL4WzJBJ4d811QrAyzQVP3AoVdUL3N1c1ZbdUXQV/76PNBVOPfljxcyJ6300kw3jZy4Tvs3iGFRU/hj1RSGMw3WXHft9ddghy322GTXFm3Z6Z2N9nlqr10eKUK7LffcdNdt99145z0s1Hp7/8d339n9Dfh1Wg9u+OGIJ6744ow3LmLbjg8HeeTBTU75b6jcdPnmnHfu+eeghy76ZYKPblvpptOGeuqyFc7667DHLvvstNeutOWEum7mdqryfqayqgJ/Zuaq4m778cgnr/zyzPe9eqHEn/l8o0+OOf2g1+/IDVipFkJ18+CHL/745JdftfGC6j4m+oGyn6P7f8J/Y/Soym/+/fjnr//+/CeafaD0s171TPW/HBXwTwe8kfoIOMD+OfCBEIygBCcoJvvpaYFfsmCeNDgjDsbJgzEKoKlASMESmvCEKEyhCtGTwD6J8EtTU1UMz3S17jXQSxgEVQtXyMMe+vCHQAzia7hIqKYcdomIZ0JiipS4Pn2NCW6q2sc+hEjFKlrxiljMImh2mKcXeomLcgKjjMToJjLCyIicMqMW18jGNrrxjfpjopjQuKWp0OJihrCGyAgCF3/ccWKD4J7R/kgQhukxZyzgU3TwYpBBGGwRgrkHHiGZMycKhGGU5GNcLKkoQzjSX2qaSiO+J5CrBOMtcRnlXJbQC3+p8mdPOWXOVmAdRhYEMHuJpF6gYElbwjKXBekjJ59SF1AiKCAAACH5BAUGAP8ALIAAKwC8AfQAAAj/AP8JHEiwoMGDCBMqXHjwzh1JB7lxG9bwYcSJFSEalEiRocePIEOGbObq4iqDDu+U3MjtZMGUKwty0+aSIEyTKB3GJCixpsifQIMKHUq0qNGgTJgACmfQnz9oB5MC6tf06cElSqkWdAr1qNevBcP5HOg0lMGkTMYKLGsQa9qD/eSZLYhW7T+2dJPaxQu2r9+/gAMLHky4sOHDiBMrXsy4sePHkCMLNcREsuXLmDNr3szZIOXOoEMPHYZKtOnTkEmjXs2aoNPWsGPLnk0b6OvauHPr3s27t+/fwIMLH068uPHjyJMrX868ufPn0KNLn069unXC/Phd3869O8Pb3o+r/w5P/uP48sQ/o1/Pvrn69vDjy59Pv779+/jz69/Pv7///wAGKOCABDL3XoEIJghUIUsoCFowczmoHIQScgZehRhmeJc/Gnbo4YcghijiiCSWaOKJKKao4oostijchS7GaB2MMoJ1Xo2r3YjjVwfu6CNzgzT445BEFmnkkUgmqeSSTDbp5JNQRulRj1JWyRmVVhakY5aIbcklWRx+KaZlNI5p5plopqnmmmy26eabcMYp55x01pmbl3bmiRCWevZJEJ9+BirooIQWauihiCaq6KKMNurokng+umaZkk4aZqWYZqrpppx26umnoIYq6qikKklhqVwCimqTqq7q6quwxv8q66y01mrrrbjmWmekuuJIaa84yiMPsMQWa+yxyCar7LLMNuvss17xCq2IrU4LYrXWZqvtttx26+234IYr7riKDXKQUx3lBce5/qRLEFbrVhVMVEzEu5W0y+pykDz9eHOQIYbs5Y+/ngXMLsEFDWJwVQj/uXBBoWDBrl0YYBDExAdVYDG7pRlU8cVNhTMNtxoVxG9XeS1VFcoESaWVa1a1ldXK9E5lkLvk5qzzzjz37PPPQAcdJ7ZC50d00fehsgfSTDft9NNQRy311FRX/eE++1idnz32aI2fyF6HLfbYZJdt9tlop632npWtXd7Rbj+ndNx012333XjnrffefLv/+Wvfyv0NOHJgD2744YgnrvjijDfueHBwP15b5JLPNnflmGcOGgKaD0fJTp33Jnjos41O+umam446a6qvjlrhrscuO1iwzz4b5bZrhnvumO3O++9uMwh8bEEOD9vlxiefPPLKm9Z685E9D/1j0k9vfdXVX69Y9tojVnv34GPuDcvhX+Z7+YKdjz5g6q/vvrjtv89j2/JDxnz9+Ot9f/7bX8r/YhL5X2O4J8ACNouABhwKAhMYlO8x8IFhcyAE2Ue/CaavghakYAY3+Kz4cTAhHvzgQfYnwhL+jIQmJMoCU1gVFn5lhS6MIaawJkOjcK2GRZEgDndoLR3ycEoY/CFIkkLoQiIK8Yh6MmIKlWhCFCLxicUixR2gCBIYytCKMcSikZyijn8ZwhLs6qJBFAbGpvRDHF4sY0F2YIDjrANna/HHvAoCMEPAcUNzdNgg7uiUPA6kjnyU4xgBdkc2OYUcTTgLE9LALkTKjJFmbNhAkgLJghiBc8Yxh8AiNEm9sIuTAknKEjapyLdUBZT/cItd/BMQACH5BAUHAP8ALIAAKwC3AfQAAAj/AP8JHEiwoMGDCBMqXJjwTp07w7wV5EaxkcE7GCNOrHgxo0SC3Kxxs8iwpMmTKE1i3HOQorWDK1tShHmHpUGK3GjekZmzo82NPVMKHUq0qNGjSJOiZGKEycuC/vz1g2OQidWnBKP621nQqlOD/shtVUq2LEGrUA5GJXcQrT+wUdsySWuwX9yqTJaovdt17t63ZgMLHky4sOHDiBMrXsy4sePHkBXyjUy5suXLmDNrTjx5s+fPoEOLHl24M+nTqCkbYpK6tevXsGMnXi27tu3buHMLpK27t+/fwIMLH068uPHjyJMrX868ufPn0KNLn069uvJCrK1r387dKO/u4MOL/y/4fbx5k6bPq1/PPD379/CFu49Pv779+/jz69/Pv7///wAGKOCABII3X4EIJpjSPvso6OCDKdljD4TQDaIXhRhmSFB5GnboIIcehijiiCSWaOKJKKao4oostujiaSC+KON2Mc5o43Q13ojagTr2qByPPgZZnDzyCGnkkUgmqeSSTDbp5JNQRukbkFJWuRmVVmZpGZZaGpZjl2Cqll2YZF72ZZlopqnmmmy26eabcMZJ5ply1nkSnXbmqRCeevbp55+ABirooIQWauihiCaq6KKE8cMPo39yCWmakk5q6aWYZqrpppx26umnoIYqKqN8jvpkIReaSqaFqrbq6quwxv8q66y01mrrrbjmmlKlur7Ia68t/grssMQWa+yxyCar7LLMNutsZKU+K2K00npIbbXYZqvtttx26+234IYrroLCjgtgueaOtsUSTDQDVz9p4NUuXP60Ia+7Bd1zT73yDgOYQOgWa4khhrAFVVSkGGTIHgW/60kh5BFscFYIKywxWGIlHLEh2qyAAQa69HNwPzdoUNDHIItMsT87GIRyyPnu2/LJH8tycLhkNNEEVgNpxdVZTfEMsFRU9fXVwWMZLfQ/YSV9llXQxBZwuvtNTXV+qPx09dZcd+3112CHLfbY+F1LNn1mnw1f2mqzF840bcct99x012333XjXbXXe1O3/zbd0fv8NXdaCF2744YgnrvjijLfJduPMsQq5edhNbt7blmeu+eacd+7556C392/ogI9OOnSBn14b4aq37vrrsMcu++ybP047bLbf7lrughqgJua6By/88MQXb/zxs6auJ+toKp8n70I6byf0QTKP/PXYZ6/99tx3HyX1fgKPJvh9Sj8j+XqaL6P43rfv/vvwxy///PWpH6f1ZBIJquRoOgpq5WnCH/0GSMACGvCACEzgZtCXJ/bNaUydsp+LGGgnCbbIgQrMoAY3yMEOevCAFnSTAMEUQsdBkEwlZBMFZzTCD7rwhTCMoQxnaLkVygmDYLJhnFKYIh3CiYcowiENn4dIxCIa8YhI3BYQA6g1FJpuUz4M1hM1FUUWtTCJWMyiFrfIxS5aqoptEqKW+Ncp/aUJgJ7yX5rE6MU2uhE4WvGExQxhjUetjBZztIbKBiIPu+BxY8HYY3MIBghBDm2KBFvEXw6SyL1MbEOGUCS9GBlJOWkFEKkSiFeCQa9GZPIfmzRIH/3hSaO5Ijrs+uQh5UIXpLHSkax8olZeCaCAAAAh+QQFBwD/ACyDACsAtwH0AAAI/wD/CRxIsKDBgwgTKlzIbdjBO3ckHdTW8GHEg9wqGoQo0WDGYAtDihxJsiRBiHdcYeS2aiNElR5Zuky5smXBOi8xarN5MmdMniaDCh1KtKjRo0gN+oN2kAkTQP0MyuvH1KDTPQf9LW36NGpBrVWTih0r0CkToAO1hrLKZAlagWrZns3qb21BI07f/usnzy5Bs3q1DmJCtrDhw4gTI9SquLHjx5AjS55MubLly5gza97MubPnz6BDix5NurTp06hTq17NurXr17Bjy55Nu7bt27hz696d2hBh3sCDCx++0Dfx40OHoULOXLTy5tBDGo9Ovbr1z4OWXN/Ovbv37+DDi/8fT768+fPo06tfz769+/fw48uXz3i+/fup6+N3/Xy/+f7+saZfgAQWWNmABiao4IIMNujggxBGKOGEFFZo4YUYZqjhho9Nx+GHBHoIYmQAjphbiSY6JmKKLLq3YoswxijjjDTWaOONOOao44489ujjj2Pxww+QRAKHYJEjoYjkZ0ouudCRTkbZGpRSVmnllVhmqeWWXHbp5ZdghikmSS+OaWZiZW65SiRnPrammGm2KWdScc5p55145qnnnnz26eefgAYq6KCEJthkoX1Sieie8siz6KOQRirppJRWaumlmGaq6aacIndop17WCeqWoo5q6qmopqrqqqy26uqrsMb/Kmttn84KpKK2/ohrrrz26uuvwAYr7LDEFmvssfDViiyMpS6bYrPORivttNRWa+212Gar7bZzvsntiLt+S2G44pZr7rnbOQXHQVM5xNa6SvnjbkHq0jUvQUswAS+6AxliSGD+eHOQv3pNJbBB/pJC18EFEbzwQYP8+w8GGATBbj96UWxxvBlXTJdeFXjM70BNNAFVvGH91ZVUVHGFFcpcnfzVVgblK/PIOOccG7k6G8hzzwSGMw3QRBdt9NFIJ6300kw3vSi0Trv4W9QBovIy1VhnrfXWXHft9ddgh13bz2KDR3bZ3gmN9tpst+3223DHLffcxkJNd3N2342c1Xr3/+3334AHLvjghBde4dmG35ZR4tGpzfjjkEcu+eSUV2755Ufljflqmm+eGt+ehy56Zd6kPPpsnZ8+Wuqqh8Z667DPjXjsoM1Ou2eO36777iKBzvtq++zzO2v22DP8arYfr7zWry8vWfPOQ+Z79NSfnnv1rk+NPWjQb49Y996Hj27y4iNGfvmGXY/++oVPz/5l57+fVPzyH0V//fg7C37+Qt2xMf+TcR8AB8g29RGwMfs7oEgSqMDiaK+BEJzW/SKokAlSECEGvKAGmUaKO2zwMBb8YFr8IcLChLCEKLQUA0u4QhEKMIUwHFkGYxiUQmiHhkbJDg6N0sId+vBPJxRhEI0/OMMfGpFaLzzik0ioxJIMcYNPbKIUzdTDDVZRg0mcokjI4Q91DMwQlKCLFxFmCEuI8SB7KKN10miIew2ELyBpmL+GkY94xZEg/mojXe7YL0MMwo1w8QcfBZJHQJqJi+RoAlvIQJdEsiUNjVTkXZgAyergZS4G4YtfBgIYumyyLHnxJFvcIkp6hbJAAQEAIfkEBQYA/wAshQArALgB9AAACP8A/wkcSLCgwYMIEypUyK3hMoN3IjbSVrAht4cFI96ZWLHhMIgSKRLUBmKhyZMoU6oEeQeVQYuuWLqsqE1bzIwRZxKEKfNlw5sENeoc2HCl0aNIkypdyrSpQn9QsxlkQrVOv4JQ/UktuGQJE6tY/fWbNrXqVYL+jCxwyrZtQapMPBnMCnQgXLlY792rK/DuXKh8//kt2A/w1K540fpzy7ix48eQI0ueTLmyZaZQL2vezLmz58+gQz8eNlS06dOoU6tezbq169ewY8ueTbu27du4c+vezZsy6d7Agwsf3toQE+LIkytf/tg48+fQo0tH6Hy69eLHr2vfzt129e7gw4v/Fz1oyfjz6NNLHkZKvfv38OPLn0+/vv37+POj/62/v3/omf0n4IDCBUjggQjaZmCC9C3I4IMQouZghBRWuNmEFmao4WilbejhhyCGKOKIJJZoon/8najiid+t6KKILb4o44YxzqhcjTbm+CCOOvZIII8+BtlfikIWaeSRSCap5JJMstZLYk1GeR4//Ehp5XgYXqmldFluyVqXXoaJHJhilgkcmWammRuRarbp5ptwxinnnJ6xSeedqwGJ556g6cnnn5vdEQSgnAlK6KGf+Ynooo7BYUQdBgDA6KSTSUrppZhmqummnE5nZ6egpoRmqKSGVeqpJ42K6qqsturqq7DG/yrrrLTWaqumn96aqaK6Lsprr4f+CuywxBZr7LHIJqvsssw2q2yuztKparRtTkttmtZeq+223Hbr7bfghivuuOSu9mS5bRaSHbpmCsuuku6+K++89NZr77345qvvvitCy6+Q2f77YsACr1hUwQgnrPDCDDcMKFxp/OUPNFMZwUTEYfWDEUEQS0zxW1Rh7DB1hhiiicTkGFSyIaGgbNAgg7D8Vz/cqFxyy2H5k3JBK6fRAAZA3yBxLwZhUAEGQmd8S9FBD8000iMn1MTUb0icjXkcm5Xz1Vx5BZZi/Xyc9VdnDZQV12N3EfXabLft9tv2EQw3hfLIM7eLVN69Yjhk6f/t99+ABy744IQXbrh98R7+X+KK98d44/mRcgfklFdu+eWYZ6755oLLzbl7nn+eXuiin8d36ainrvrqrLfu+ut3Pg67drLPbl3ttkuHyh659+7778AHL/zwxCdHevEFLoa8eMcv39vpzkcv/fTUV2/99QP6Syfuq3LvZXnKgo+ousqSj+ju2Kev/vrst+/++61pP2fzp9Kvpf2k4m+l/qDyHyU3YoOfAAdIwAIa8IDuk5+cvHcqBmrJgaSCoJUkCCoKRgl9CMygBjfIwQ560HIKjJP/ODVCJpVQUydUUgoxtUIkQe+DMIyhDGdIwxqiaxWR8NW6jmXBJvVwUz9cUhDsd7VDQGHQhkhMohKXyMQmgiqEcGohpaRopLopy4qIyluytHioFzrxi2AMoxjHSMYiQfFNQ8RUGpG0Rkq10UhvZFQchSS5MtrxjnjMox73eJ8zuomKjAIkwJSHLEEGyZCHQmSPvMjHRjrykZCMpCRf48c2zRFRl/SRIVggCYnZrSAxM0Qnw3IPddhMlJ485QkIAJ6VBcMghfHHMgrBM5i9Mmcf4VnJbqkYWdKSIK6ci15mCbJFoYIJXpDYOgziFWT+5R7maALInJmzZU5TAwYAz2AIEsvAMAExEvMmVaAkELqUJS7C3MtUeJehgAAAIfkEBQcA/wAsgAArAL0B9AAACP8A/wkcSLCgwYMIEypceJCbw0gG70gMZtAhN0oRJxrU5hBjQYl3ejEcSbKkSZMc92S809Chyo8SW3J7SRCkTJoDbVZ0ufKkz59AgwodSrQoUX9I6ywpyKRpM4NI/QEy2JTJ04Ly+kml2lRXP6NgwxLMaoUrk4NRyzJtihapWoJMlpyF6tZsW39vB1YVy7ev37+AAwseTLiw4cOIEytezLix48eQiyKNTLmy5cuYM2tuu7mz56GG5n4eTbrx5NKoUxMMrbq169ewYwNlLbu27du4c+vezbu379/AgwsfTry48ePIkytfzry58+fQo0ufnriQaOrYs2tXSHt78dPew4//7C4+OPjy6NMnP6++vfv38OPLn0+/vv37+PPr38+/v///AAbYHHsCFmigT/vsc6Bngyy1IHL22PPgZuRNaOGF/1SI4YYcdujhhyCGKOKIJJZo4okopqjiisBpyOKL0rkIY1gEzjiajDZK5k+OPDonjzw9BinkkEQWaeSRSCap5JJMNunkk0DVCOWUmUlJ5WrXXYmYlVpmmGWXYD6GY5hklmnmmWimqeaabLbp5ptwxinnnLtxSeeddOGpJ0N27unnn4AGKuighBZq6KGIJqrook6OySiajj5qZqSSVmrppZhmqummnHbq6aeghmpkhKKC2WepSZ6K6qqsturqq7DG/yrrrLTWauuelN76Yq66rthgr8AGK+ywxBZr7LHIJqvssoGpymyHzj67YbTSVmvttdhmq+223Hbr7beN3QOHWcHsSFBUdZBrUFb+pLvWEsF8dW5SVLEwA7b+rGLQIIYYwg1d/lhiUL/+AqxvQQT/i5VWB6/W7zAAu1JIQV0gcA8RBmGgMSoAG5Hxxutq5XFBGmMQSscZN3ACvoBUVZVcVgE87loxFxTVVDRfNZZWOMPVlbwD3dzEP00U3cQOroUzDbhMN+3001BHLfXUVGNIbdXzXY11fFpv/R4qOHkt9thkl2322WinrTZJhTi4dn2/vl0fr3J7p3TdeOet99589//t9994dg24coIPjlzhhhvnibuJN+7445BHLvnklE9Hd+XCXY55i19urtzdnocu+uikl2766aYjjrprqq+uWuuuowZ27IkbQADtw1lxA+6Zd87778AH/5zmwpdGfPE3+o58bKAvXzfszlcGffSRTU/99dhnb1iC2sdGavevWQ8+YrOPX/bx5oupfPoUrs/++/DH7xP68iNGf/2G3Y8/YdnovD/U/ODH/zYjvgHSyFwGTKAC01fABQ6lgQ4MCgQj+JPyUbBb+rugUTKoQaLcIQgdDKEIUcfBEf6khCY8CQpTWJLmsfBZE3whZ2RYmBjS8IY45JYNc7hDHPbwhhbM4bG2VijEgbmviKA5IhKXyESmta2JfIkbFMFCxCa6cIq6+iENtShDLmLxi2AElRdZOMYUltGEiwujrqyjxiS2UShVfCOZCtEvaABNIFHRxcDqeMd/3AMpekSYIQbhPzwC0iAgMABxkNKIPRriLo2YmMMeaZB+ZCWSgqSkzRgpyYEQDJKdbFNVvLJJf1BiaD5jAikJ8kdTolIvcbkFwE5ZkAp8By92AVheBLKXSpIll6Xc5T96GUwBBQQAIfkEBQcA/wAsgQArALYB9AAACP8A/wkcSLCgwYMIEypcmNAat2UH79xppM0gt4cRJ1YseBGiwToaGYocSbIkyYuuItZBdRBlRpYWuaU0KBEmR2szC9ZsKfOlyZ9AgwodSrSoUZPk/GU7yITJm4P+lDJlUqefwahLDRqhavWo168Do+YkyMSIJ6j+xg5sevZq2qltC/ojp1YgW7R1/90Fy7ev37+AEw6zGbiw4cOIEytezLjxYUNMHEueTLmy5cuYKUPOzLmz58+gQ4seTbq06dOoU6tezRpt69ewY8tuHXW27du4c0serLu379/AgwsfTry48ePIkytfnrxXXObQo0tHzI/f9OvYsx+trb279+/gw4v/H0++/M/N5tOrF45+vfv3tnnDn0+/vv37+PPr38+fvvz+AAYYWHsCFmigUYUsceCCDDbo4IMQ4sddhBQ+OGGFGB74X4YcdujhhyCGKOKI+21I4onmXYjiiuKpyOKLMMYo44zzEUjjjcoNoiCOPCY3DCk9BinkkEQWaeSR3ZmI5JKs2cjkk6g5CeWUVFZppZEuXqnlZVlu6eVuhH0p5phklmnmmQEqieaaYHXJ5ptEuQnnnHTWaeedeOap55589unnn4AGCp5zgvpZSGSF8illoow26uijkEYq6aSUVmrppZhmKpqamnopZ6dW7rMPqKSWauqpqKaq6qqsturqq7Ce/8ZprEMuSquQtt6q66689urrr8AGK+ywxBYr3azGnvhpsiIuy+yz0EYr7bTUVmvttdhmCyWy2kKYa7cPfgsubPf4A81UaaB1rkFNpevWugUtwYS7cvXj0bhyzXWQIYaEclBS5OxriCZoBWwQv/66ZXBBe/QLVT/clNvLQRhgcANaExtU8cVuZVzQxg/fgq9b2exIFlcGJVUyu06htXJBTVVFsskDbSVzvdOoJu7IBu7Ms4Co7PHz0EQXbfTRSCet9NJMG+ts0/Q9DTV84eQ89dVYZ6311lx37fXXYNfnc9jgjU22d0GfrfbabLft9ttwxy331vLIM7d41d0dXtV69//t99+ABy744IQXXqXZhvuGeOK6pc3445BHLvnklFdu+eWoSY35a5pvzhrfnocu+uikl2766WBxi3rm/pC5uKCdH/n66p85TvvtuOeu++68qx1Mwr1HiaiYsQs6O5HFB08Z6Mo37/zz0EcvfayqTz9Z8kTq2GndZB5qPWi2fy/++OSXb/75V1aPvmHHD4n9n+0L+f76XjFP//3456///vzfp37/XplfkOLXJwH2iIAALEn4EsjABjrwgRCMIGn+J0GTIJBHBtzTBXGUwQoWxH4eDKEIR0jCEpbwdyYsSgdvtME8rZBGLRThAlNIwxra8IY47B0Fc/iPGM6Ie5rS3phe8sZDkoCwiEhMomT4NQi02O1ghpCEEwUmRZJBZy7LKAQUg4GWLG6xi1osiCH2wEW3DENgZcyXF9nUFCugZR1T8cIb44gWa1yRLnDBSx7dkpeyPCcsb2HZHwUiFv4EBAAh+QQFBgD/ACyDACsAtwH0AAAI/wD/CRxIsKDBgwgTKly46k4wg9wiUjJ4p+LDghG1SaJoEaJEjnUWihxJsqRJjBH3cLxzkJs2bioLVmTpEebKlilv1oxJcObJn0CDCh1KtKjRhIYwNDPorykgg0uYMFlasOk9QEsKSp3K1KnBrTsQHB1LdmBTf1a+Sj3YT16/tFrXdkWrlsnBs3AJMol6t2negVvLCh5MuLBhpHYPK17MuLHjx5AjS55MubLly5gza97MubPnz6BDix5NurTp06hTq17NurXr17Bjy55Nu7bt27hLN83Nu7fv3yJ3Ax8OVDjx452NI1+eUDnz59CjZ5YnT7r169iza9/Ovbv37+DDi/8fT768+fPo06tfz759e0OJ3cufXxo+/db274fPrz81//4ABijZfwIWaOCBCCao4IIMNujggxBGKOGEFFZo4YWMOYfhhvdpyOFiHn4oW4giFkZiiSiSd2KKLLbo4oswxijjjDTWaOONOOao445EFRIfj0DeRmCQJA1J5GZGHqlQkko2iRqTTkYp5ZRUVmnllVhmqeWWXHbp5UgrfilmWWFKGdGYjJ3ZZZlotikUm27GKeecdNZp55145qnnnnz26eef+kEJaJ2CDjrnIFkZquiijDbq6KOQRirppJRWaumlw8GJ6ZSabhplp56GKuqopJZq6qmopqrqqqy2ylqhrub/CGusN85K66245qrrrrz26uuvwAYr7HmgDothscZaiGyyzDbr7LPQRivttNRWa22XdwRxrYi2bstgt96GK+64z50VUkFRMXERQWelUVcw/lTV1Ll6SbXuQG75Qy+5/5y1ikGGBMzNXP8WNIjAXd2DCsAIy+tPwQQFbMjABeW7yllGGFQBBhgs7LAPBnHc8VwZFySyxwTlWzK//XoVF1cOP4WuVFSx689ViQJG81wy1wtzyv340zPLRBeN349GNwhu0vctzfR82dT89NRUV2311VhnrfXWry3LtXhefw1e2GJ7hwpPZaet9tpst+3223Dz6nTc2M1Nt3V23x1dONPo/+3334AHLvjghBf+IdmG84Z44rgtzrhtZz8u+eSUV2755ZhnXlnemsOWbefPcQ56a3yPbvrpqKeu+uqsF+1466C9Drtnss/OmSf72k43P/zoflvtvmMGfPDEF2/8ZKIfn1nyyl/GfPOVlQ792s9PL1khOVufGqLad+/994oND76J8Y6vW/nmjxZ5+liLzz5Z7r9/VPzy129/59XfT1b++h/Ff/9FkR4Ai/a/AQqlgAYECgITyMAGxo1+DlyImiIoGQhSECHru+C2LKhBeXUQMhz8oAhHGK4FkjBiSDshYUyown9ErYXR8hEMDcNCFdZwhjjMoa9CKEIeftCHHcygDquHBUQN7mMfQyyLPeyRxCY6sYQpfKICoyjFk9yQhAKsotyoqMUicbGLIrkiGMdIRkMV8YJnpGAaI4iKLhiCIHsIGDT6UZW26IJhhoAGE23mjzsWRGJzLAg5muLHcjWlEYX448H64o9F4JGRiPxjwNjilkhGbJJdeWOcjCAVXdCRXW2ZyMt0sUezNIUSTRjlJwcySH+gEjp4+Qpf5vIXgQSGlnWh5FtyybMABQQAIfkEBQcA/wAshgArALYB9AAACP8A/wkcSLCgwYMIEypUeKdhL4PcImoy2PDOw4LaJFJ0CFFjQQkLQ4ocSbLkwYjcAG28Y01bQZQqC1Zs+TJiTIIzXRKEuZImQW0Zbw6MZLKo0aNIkypdyjQhk6fDDPqbusjgUyZRC96japXJkmH9Ck71V7VghaZo0x4c66Urk3VSp7YtuGTJ27j9triFK1buXoP3ts4dyGKJ2sOIEytezLix48eQIyc1xESy5cuYM2vezLkzYsqeQ4seTbq06dOoU6tezbq169ewY8ueTbu27duLp+Lezbu3b9O6fwsfTrz44eDGkytfzry58+fQo0uf/hg59evYs1+WJ0+79+/gD/P/4xe+vPnz6NOrX8++vfv38IWDjk+//vD59vPrr41/v///AAYo4IAEZtdfgQgm2NiBCjboYFMMPijhhBRWaOGFGGaoYXPWbejhgx1+KCKCIY5o4okopqjiisf5w+KL9ZUI44zoyUjjjTjmqOOOPPboI0KDGPbjkNAVUhmRSDIXYZJMNunkk1BatmSUVL42ZZVYqnZlllx26eWXYIaJpY1ilmkZmWam6Riaarbp5ptwtsdmnHQiBY05cCBAQJ18orVnn4AGKuighBY62paGJopoooUuyuijkEYq6aSUVmrppZhmqummnCI5Z6dmfgqqmKKOauqpqKaq6qqsturqq7DG/yorjY7O2mSttiaJa6689urrr8AGK+ywxBZr7LFtcocsk+Mtm2SpzkYr7bTUVmvttdhmq+223Aq0a7cYfguuheKOa+656Kar7rrstkvSWIAIOdBVuoRFEDlTxVvQU0vcEpc/QglEr70DjWXFDQS7608/8shikCEQW/OvwwVBbIjEWk1FMUEQD4IxQWNtPJDFHxfsTyhjQWEQBixTYhC+/qhcEMsVuNxXzCu3/K8P7orFsCFugXVzWQRdJTRBW5HV1RLB/Ev0vFAl/M9UWfVs9dVYZ6311pUGybWFRn5dYbli2xfONGWnrfbabLft9ttwx90ZtHKzR3fd6u2zD94Bhv9yB9+ABy744IQXbvjhrJKNOHWKLy5d445Dd3bklFdu+eWYZ6755gTezblynn9uXOiiE4fKHqWnrvrqrLfu+uuwT3Zk7M9BTrtstt8O2+S69+7778AHrzrpwrNGPJHKrpq8mc0WT9zxzqN2evTUV2/99divm3v2nW3fo/eEgr+j+NxjVoi85dOmTTPpt+/++/DH3yn08ktGv4/3F5o/j/vX31j//lvM9AJIwAIa8IAIRBL5Egih2ZVpgYCC4I0kyEDZVbA0vLugBjfIwQ56sD4R+SBnAJgjEgLKhDdCoQhFosIVLmSALoyhDGdIwxpayYE2ZAwFZ+S1VfXQTGHLoWPBdijEf2SwiEhMohKXyESFtLCIT3xRFOE0xRVVsYZ6a+Jh/KbFLnrxi2DUIBGFOEYWlfFNZ1RRGmm4xhkeMYxwjKMc5+i8K9LQjigaS9MqBrFlSK0fU9kjxwYxCD/eTJAj66PUprID7IxFEg+DWHe0shVI8tEQ6CAPyKZiSY5J8l+dHAghDTFJk6lpLJ5wiysMAkh/pHJfdVnlzV5ZtKfIcpNGQMB12PIXSvpjMFBjgjk0abJf9nKTxqSLXfgCsgQFBAAh+QQFBwD/ACyAACsAvQH0AAAI/wD/CRxIsKDBgwgTKlyI8M6dQQe5cWt20KGhiBMr3rloUOIwhiBDihw5stmdUBhpaUTZkZtKgw5ZFtTmcmVKmy1fktzJs6fPn0CDCv3JhMmXg/78kTtYNA1SpUyZODWYdNnQq1gLhmNC6akuIgaLdqXqT9eSsFwPyutnFu3YgknbFhTr9WzWu3jz6t3Lt6/fv4ADCx5MuLDhw4gTK17MuLHjxySHoYJMubJlhoaYXN7MGWjSzqBDK84surRpuP5Oq16NVzLr17Bjy55Nu7bt27hz697Nu7fv38CDCx9OvLjx48iTK1/OvLnz59CjSxfqerr1np+vDyetvXvI7N5/c/8PT/5g9fLo06tfz769+/fw48ufT7++/fv48+vfz7+////lBUMKgMgVYheBl9ljD4LGDXIgg5SBB2Fw501o4YUYZqjhhhx26OGHIIYo4ogklmjiiSimCFiFKpomYYt4jQdjaS/OiJWMNoLGYo489ujjj0AGKeSQRBZp5JFIJqnkkkyGtmOTg+EI5VNTHiZllQTViOVfT27p5ZdghinmmGSWaeaZaKap5ppsstZlm3BiplmcdIp0ZZ145qnnnnz26eefgAYq6KCEFtrnm4aaqWWiZy7K6KOQRirppJRWaumlmGaq6aZtCsjplw5+6uWdopZq6qmopqrqqqy26uqrsIr/imisOTpKa62p3arrrrz26uuvwAYr7LDEFrvZrMZ+SGqyIC7L7LPQRivttNRWa+212GY7IbLavrbFUWRpE5UYT4mLFrlU3WPNuE/lGi0lmhzUjz/oHGSIIY30Q1a9Bt0b7772GvIvatMEPDBBC6zAwlNWGYQBBguT1XBBD0cM1z3DaOAwxO4OZCuxZExV0LxLoeXFUyXPJRXKUYmcpT8TE9QUbeEU3O3NOOes88489+zzz0AD7WzQ9Q1N9Hyo7HH00kw37fTTUEct9dRUi6hg1fN9jHV5NW/t9ddghy322GSXbfbZIxmNdnNqr72cJ3W4LffcdNdt99145613nFrv/y1c334D13XghBdu+OGIJ6744oxvN2fjwLUNuWxJT742AgZY/hslrmju+eeghy56soCP7mLHps82uKTcpl6a5K53BnvstNdu++24ixlq7qvNzntjlU/a+u+QlU68Y8Yfr/zyzDfvPIDJP19Y9NIPlg1Fk/biSfWXFfI495D5Dv745Jdv/vm1iY9+jN+vf1jwrE/mfmLUz59V/fbnr//+/PdPEv7+ww7qAsiX1UVqeAQMivoSSJIFMvCBEIygBGPnwAkmpIIWPAj8Dii/DGIFgB6kUghHSMISmjBwVzvhT0B4QgNCCoEq7Ff7Ypi2GdLwhjjMoQ55hsES9pCEcKOU9ml2KBJ+8IOI3xkgEpdYqKQo8V75IssT8aWvka0lYFE8zjoMoYunQKMQ/eKiF8FYkEGIkSzQCFgX0UhGgtxrjWtyYlSs0K45yuuKaKEjcsyxBEuEgyxykVlaAPkggSxhkKj5ilvqssj+BAQAIfkEBQcA/wAsgQArALcB9AAACP8A/wkcSLCgwYMIEypcmLDOnTu9DHLjpk2TwYcQJU60WBBjxILWNjIcSbKkyZIYrWkryC0koIsPp2nk9rLjQ5UsJ9YkeMchToITacK883Ng0J0nkypdyrSp06dQSRphwmSYQX/95BkySLXqVX/+FnGlarUgObBio6pdO7DruqtnvYxlYo5fQbD+5BZ0+zUv16lv72LdMjcwQbx62SpezLixY4RgH0ueTLmy5cuYM2vGHHmz58+gQ4seTRp059KoU6tezbq169ewY8ueTbu27du4Dxpikru379/Ae+8OTry48eOfhyNfzry58+fQo0ufTr269evYs2sftES79+/gMxf/4h2+vPnzUZWjX8++vfv38OPLn6/0NP37+J/bz8+/f/D9/gUo4IAEFmjggQgmqKCAAC7o4IOMNQjhhBQ2tc8+FWao4YYcdughgup9KGKHIY5oYoUlnqjiiiy26OKLMMa4YIoy1jgfjTbm6B6OOvbo449ABumfhEIWWZ088hipZHb82LXkk1BGKeWUVFbpHpFWZlkbllp2CRuXXoYp5phkRsljmWiGdmaabGq2ZptwxinnnHTWqeCbdub5FJ569qkUn34GKuighBZq6KGIJqrooow26uij8SEJaaNNTsoomJZmqummnHbq6aeghirqqKSWampsgJ4aZqqqdllId63G/yrrrLTWauutuOaq66689tobpr4qCWywRQ5L7LHIJqvsssw26+yz0EYrbXmsTstitdaqiG223Hbr7bfghivuuOSWa26Yxp6bYbrqUshuu7UtQZUu/dyVFSCwtjVvvYeBhe9e+xZ0j7/5CkTVErfAW5AlhjRsTV+yGLSHw1dlFXFBDRvysGD+XExQxhsTdFbHBjU8iDUYpExJxfJAYVDKGKzMscsFwSwzQQP7QzNBKVdws8ICNSH0MPwOhFdaBE1VVdECYaXVXMPYwzHS+i5tFlpjLRGMbe8CrWDXXiMIdtgGorIH2WinrfbabLft9ttwF7ht3PjNTTd9dt8tXzgy6f/t99+ABy744IQXHvjYhpuHeOLhLc74d2Y/LvnklFdu+eWYZ24nd5rLN17n8eUNenR8j2766ainrvrqrLdeneOu/+dP7ODBTrtvkaRx++689+7778AHn7rowtNGfPGyHY88bKUv7/zz0Ecv/eTKT49a9cXOfir2QtpufWnefz9a5OKXb/756KfvrD1Sq59b+EJyTyj8QcrvvmX2309Z8/r37///AAwgofInQMUQsEeSOhXn5FSpAr6Gfg5UDPkiSMEKWvCCGHQRBDPYlA366IB98mCPQMjBk5CwhCUZhi5QyMIWuvCFMKQWeWKYmRPWSIR9sqGMcEhDyGivh5eZIBDPh0jEIhrxiJvh4RGVWCMd0omJMnLiEKUIRP4h8YpYzKIWt5iQBXJxLVTU4A9LFcYWQZGIZxyiEL/Ixja68Y0VTCMQ5egiL5YqgXH6HBydUsYYWnGPgAyNP8ixNYw1bBj1+EohP9awZTCtaf5Y5EAatgdHZscQE0uSYPrRiJI1TJP98ockPGkIUBrtLKM0pCHQ4SSjgSWVjCxloAbpibm44iBgqSXAmHDLr+iSIFQxQi+xwwTAfKUfhNmlYVzpF2XCpZnApEpdOJaYqi3TQAEBADs=;" vertex="1" parent="1">
          <mxGeometry x="840" y="380" width="698" height="358" as="geometry" />
        </mxCell>
      </root>
    </mxGraphModel>
  </diagram>
</mxfile>
